<?xml version="1.0" encoding="UTF-8" standalone="no"?><svg xmlns="http://www.w3.org/2000/svg" xmlns:xlink="http://www.w3.org/1999/xlink"><symbol viewBox="0 0 39 37" id="icon_starBlue"><title>icon_starBlue.svg</title><path d="M19.444 30L7.428 36.18l2.295-13.09L0 13.82l13.436-1.91L19.444 0l6.01 11.91 13.434 1.91-9.722 9.27 2.295 13.09" fill="#4990E2" fill-rule="evenodd"/></symbol><symbol viewBox="0 0 39 37" id="icon_starRed"><title>icon_starRed.svg</title><path d="M19.444 30L7.428 36.18l2.295-13.09L0 13.82l13.436-1.91L19.444 0l6.01 11.91 13.434 1.91-9.722 9.27 2.295 13.09" fill="#D0011B" fill-rule="evenodd"/></symbol><symbol viewBox="0 0 39 37" id="icon_starYellow"><title>icon_starYellow.svg</title><path d="M19.444 30L7.428 36.18l2.295-13.09L0 13.82l13.436-1.91L19.444 0l6.01 11.91 13.434 1.91-9.722 9.27 2.295 13.09" fill="#F8E70B" fill-rule="evenodd"/></symbol><symbol viewBox="0 0 100 25" id="logo_node"><title>logo_node</title><g fill="#231814" fill-rule="evenodd"><path d="M0 .424h3.855l12.67 16.404V.424h4.096v23.73h-3.443L4.097 7.267v16.885H0V.423M86.44 20.48v-6.497h11.865V10.31H86.44V4.097h13.42V.424H82.202v9.887H76.89c-.145-.988-.4-1.87-.764-2.73-.61-1.435-1.475-2.694-2.594-3.757-1.118-1.062-2.452-1.897-4-2.496-1.548-.6-3.25-.903-5.1-.903H55.65v9.887h-5.265c-.146-.988-.4-1.907-.767-2.798-.61-1.48-1.458-2.785-2.543-3.892C45.99 2.513 44.69 1.63 43.177.987 41.663.343 39.99.017 38.16.017c-1.83 0-3.503.328-5.017.983-1.514.656-2.825 1.542-3.932 2.66-1.107 1.12-1.9 2.418-2.51 3.898-.61 1.48-.853 3.056-.853 4.73v.066c0 1.673.242 3.25.852 4.73.61 1.48 1.424 2.773 2.51 3.88 1.084 1.108 2.367 1.984 3.88 2.628 1.515.644 3.18.966 5.01.966 1.83 0 3.5-.328 5.013-.983 1.514-.656 2.823-1.543 3.93-2.66 1.107-1.12 1.965-2.425 2.576-3.905.397-.966.66-1.897.8-3.027h5.23v10.17h8.78c1.853 0 3.554-.306 5.102-.917 1.548-.61 2.882-1.446 4-2.508 1.12-1.062 1.984-2.322 2.594-3.77.397-.94.663-1.845.8-2.975h5.277v10.17H100V20.48H86.44zm-40.873-4.887c-.396 1.02-.944 1.905-1.644 2.652-.7.747-1.543 1.343-2.526 1.785-.983.442-2.062.663-3.237.663-1.175 0-2.26-.22-3.254-.662-.995-.44-1.848-1.046-2.56-1.816-.71-.77-1.2-1.664-1.594-2.683-.395-1.018-.526-2.105-.526-3.26v-.068c0-1.155.13-2.242.526-3.26.395-1.02.91-1.91 1.61-2.667.7-.76 1.527-1.36 2.51-1.8.983-.442 2.053-.663 3.23-.663 1.173 0 2.254.227 3.25.68.993.452 1.844 1.058 2.556 1.817.712.757 1.264 1.674 1.66 2.705.16.414.283.872.378 1.296h-3.743c-.21-.423-.515-.903-.848-1.258-.375-.4-.85-.733-1.37-.97-.53-.24-1.13-.368-1.747-.368-.615 0-1.19.117-1.713.35-.517.233-.968.553-1.34.955-.366.397-.714.866-.92 1.396-.205.528-.367 1.097-.367 1.69v.032c0 .595.162 1.164.368 1.693.204.53.527 1.002.9 1.405.376.408.847.732 1.37.965.525.233 1.11.35 1.725.35.616 0 1.196-.117 1.717-.35.516-.233.967-.557 1.338-.952.337-.36.685-.7.9-1.265h3.8c-.098.565-.248 1.093-.448 1.61zm14.32-11.356h4.544c1.243 0 2.374.194 3.39.6 1.018.408 1.882.963 2.594 1.675.712.71 1.265 1.585 1.66 2.58.155.387.278.795.372 1.22h-12.56V4.236zm12.188 11.315c-.396.983-.95 1.833-1.66 2.545-.713.712-1.577 1.26-2.594 1.655-1.016.396-2.147.587-3.39.587h-4.543v-6.357h12.637c-.1.565-.25 1.07-.45 1.57z"/></g></symbol></svg>