<?xml version="1.0" encoding="UTF-8" standalone="no"?><svg xmlns="http://www.w3.org/2000/svg" xmlns:xlink="http://www.w3.org/1999/xlink"><symbol viewBox="0 0 42 76" id="icon_bolt"><title>icon_bolt.svg</title><path d="M1.204 40.917c.407.324.814.488 1.385.488h.57l18.447-4.65-8.978 36.81c-.08.487 0 .978.246 1.385.244.41.65.735 1.142.898.327 0 .57.084.65.084.9 0 1.554-.41 1.88-1.146l24.648-52.723c.328-.735.248-1.39-.327-1.96-.488-.49-.98-.735-1.55-.735-.164 0-.327.08-.57.08l-18.04 4.49 7.835-21.057c.084-.326.164-.57.164-.817 0-.57-.165-.978-.572-1.386-.407-.327-.898-.57-1.47-.57H11.732c-.486 0-.897.163-1.22.407-.412.327-.655.65-.735 1.06L.633 39.202c-.164.655 0 1.306.57 1.717" fill="#0A0B09" fill-rule="evenodd"/></symbol><symbol viewBox="0 0 81 61" id="icon_code"><title>icon_code.svg</title><path d="M1.046 31.292l20.3 20.3c.232.312.625.47 1.015.47.314 0 .703-.158.937-.47l2.187-2.11c.31-.312.466-.62.466-1.014 0-.39-.156-.703-.466-1.012l-17.1-17.1 17.1-17.175c.31-.232.466-.625.466-1.015 0-.313-.156-.702-.466-.935l-2.187-2.188c-.234-.313-.623-.466-.936-.466-.39 0-.782.153-1.015.466l-20.3 20.3c-.312.232-.468.625-.468 1.015 0 .313.156.702.47.935zm28.73 27.482c.157.313.47.546.86.626l2.654.78c.39.08.702.08 1.015-.157.39-.157.546-.466.703-.78l16.24-56.288c.156-.393.076-.703-.08-1.096-.233-.314-.466-.547-.86-.623L47.58.454c-.313-.077-.702-.077-1.015.156-.313.157-.546.47-.703.86L29.62 57.682c-.077.39-.077.702.157 1.092zm25.607-9.29l2.188 2.107c.314.314.624.47 1.017.47.39 0 .703-.156 1.016-.47l20.295-20.298c.237-.233.393-.622.393-.935 0-.39-.155-.783-.392-1.016L59.603 9.043c-.313-.313-.626-.466-1.016-.466-.393 0-.703.153-1.016.466l-2.187 2.188c-.31.233-.39.622-.39.935 0 .39.08.783.39 1.016l17.1 17.177-17.1 17.1c-.31.308-.39.62-.39 1.01 0 .394.08.703.39 1.016z" fill="#0A0B09" fill-rule="evenodd"/></symbol><symbol viewBox="0 0 59 59" id="icon_design"><title>icon_design</title><path d="M.8 50.952l7.117 7.057c.386.447.963.64 1.603.64.643 0 1.154-.193 1.603-.64l45.983-45.984c.448-.45.705-.963.705-1.603 0-.643-.256-1.22-.704-1.67L50.05 1.7c-.447-.448-.96-.64-1.6-.64-.644 0-1.22.192-1.607.64L.8 47.746c-.45.386-.643.963-.643 1.603 0 .642.192 1.153.643 1.602zM7.274 5.74l1.092 3.53 1.09-3.53 3.464-1.088-3.463-1.026-1.09-3.53-1.093 3.53L3.75 4.652 7.273 5.74zm10.392 7.954l2.114 6.99 2.183-6.99 6.988-2.182-6.987-2.115-2.183-6.99-2.114 6.99-6.992 2.115 6.992 2.182zM30.17 5.74l1.09 3.53 1.09-3.53 3.464-1.088-3.463-1.026-1.09-3.53-1.09 3.53-3.46 1.026 3.46 1.088zm18.28.834l3.844 3.85-10.517 10.45-3.846-3.845L48.45 6.573zm4.616 22.06l1.088 3.53 1.092-3.53 3.525-1.088-3.524-1.026-1.092-3.528-1.088 3.528-3.463 1.026 3.463 1.088z" fill="#0A0B09" fill-rule="evenodd"/></symbol><symbol viewBox="0 0 14 14" id="icon_fb"><title>icon_fb</title><path d="M12 0H2C.896 0 0 .896 0 2v10c0 1.104.896 2 2 2h5.655V8.443H5.668V6.417h1.987v-1.85c0-1.36.88-2.61 2.907-2.61.82 0 1.426.08 1.426.08l-.046 1.892s-.62-.006-1.297-.006c-.73 0-.848.337-.848.894v1.599H12l-.097 2.027H9.798V14H12c1.104 0 2-.896 2-2V2c0-1.104-.896-2-2-2z" fill="#3C5A96" fill-rule="evenodd"/></symbol><symbol viewBox="0 0 54 81" id="icon_fork"><title>icon_fork.svg</title><path d="M3.203 77.652c1.956 1.956 4.378 2.982 7.177 2.982 2.705 0 5.126-1.026 7.087-2.982 1.956-1.96 2.887-4.29 2.887-7.086 0-1.774-.465-3.452-1.396-5.035-.84-1.49-2.052-2.703-3.64-3.542v-1.4c0-2.422.75-4.1 2.15-5.22 1.49-1.027 4.38-2.236 8.855-3.636 4.66-1.49 8.204-2.89 10.534-4.29 7.74-4.383 11.656-11.56 11.75-21.54 1.584-.838 2.797-2.046 3.636-3.633.93-1.492 1.4-3.17 1.4-4.944 0-2.796-.935-5.222-2.89-7.178-1.962-1.957-4.384-2.89-7.088-2.89-2.795 0-5.22.933-7.178 2.89-1.96 1.956-2.89 4.382-2.89 7.178 0 1.773.465 3.452 1.395 4.943.84 1.586 2.148 2.794 3.64 3.633 0 1.865-.188 3.452-.466 4.757-.283 1.4-.748 2.612-1.4 3.638-.748 1.026-1.4 1.957-2.144 2.7-.747.657-1.773 1.4-3.078 2.052-1.304.652-2.517 1.122-3.634 1.587-1.122.465-2.613.93-4.57 1.583-3.45 1.026-6.156 2.052-8.02 2.89V19.287c1.586-.84 2.8-2.052 3.638-3.638.93-1.583 1.396-3.26 1.396-5.035 0-2.795-.93-5.126-2.887-7.086C15.507 1.57 13.085.64 10.38.64c-2.8 0-5.22.93-7.177 2.887-1.96 1.96-2.89 4.29-2.89 7.086 0 1.774.464 3.452 1.394 5.035.84 1.586 2.148 2.8 3.64 3.638v42.702c-1.492.84-2.8 2.052-3.64 3.543-.93 1.584-1.395 3.262-1.395 5.036 0 2.795.93 5.125 2.89 7.086zm7.177-12.03c1.305 0 2.518.47 3.448 1.4 1.026 1.026 1.49 2.24 1.49 3.544 0 1.4-.464 2.608-1.49 3.543-.93 1.025-2.143 1.49-3.448 1.49-1.4 0-2.612-.465-3.543-1.49-1.026-.936-1.49-2.145-1.49-3.544 0-1.305.464-2.518 1.49-3.544.93-.93 2.144-1.4 3.543-1.4zm0-59.948c1.305 0 2.518.465 3.448 1.396 1.026.934 1.49 2.147 1.49 3.543 0 1.4-.464 2.613-1.49 3.543-.93 1.026-2.143 1.492-3.448 1.492-1.4 0-2.612-.466-3.543-1.492-1.026-.93-1.49-2.143-1.49-3.543 0-1.396.464-2.61 1.49-3.543.93-.93 2.144-1.396 3.543-1.396zm33.285 6.617c1.305 0 2.517.47 3.448 1.492 1.026.935 1.495 2.148 1.495 3.544 0 1.308-.47 2.517-1.495 3.543-.93.934-2.143 1.4-3.448 1.4-1.4 0-2.613-.466-3.543-1.4-1.026-1.027-1.49-2.236-1.49-3.544 0-1.396.464-2.61 1.49-3.544.93-1.02 2.143-1.49 3.543-1.49z" fill="#0A0B09" fill-rule="evenodd"/></symbol><symbol viewBox="0 0 18 16" id="icon_gh"><title>icon_gh.svg</title><path d="M2.44 13.005c1.02 1.418 2.363 2.4 3.988 2.93.19.038.322.02.416-.076.095-.077.132-.19.132-.303v-1.513l-.245.037c-.15.038-.34.038-.585.038-.227 0-.473-.018-.737-.075-.246-.038-.49-.15-.7-.32-.227-.153-.377-.38-.472-.645l-.095-.245c-.074-.15-.188-.34-.34-.53-.15-.207-.3-.34-.452-.396l-.076-.057c-.056-.038-.094-.076-.132-.134-.038-.038-.076-.095-.095-.15-.02-.04 0-.077.057-.115.038-.038.15-.056.302-.056l.208.037c.132.037.32.112.51.245.21.15.38.34.53.548.15.303.34.51.585.662.228.15.454.226.68.226.228 0 .435-.018.606-.038.17-.037.32-.094.473-.17.056-.472.226-.83.51-1.077-.397-.056-.756-.114-1.078-.188-.32-.096-.642-.228-.983-.416-.34-.19-.624-.436-.85-.7-.227-.284-.416-.662-.567-1.116-.132-.454-.208-.983-.208-1.588 0-.85.284-1.568.83-2.174-.263-.642-.225-1.36.077-2.154.208-.057.51 0 .908.15.397.152.7.285.888.397.17.114.32.208.435.304.66-.19 1.34-.285 2.04-.285.682 0 1.362.094 2.024.284l.397-.267c.263-.17.603-.32.963-.453.378-.15.66-.19.85-.132.32.793.36 1.512.095 2.154.548.606.832 1.324.832 2.174 0 .605-.076 1.134-.208 1.588-.152.472-.34.832-.568 1.115-.227.264-.51.51-.85.7-.34.187-.68.32-1.002.415-.32.074-.68.132-1.078.188.36.302.55.813.55 1.493v2.23c0 .115.036.227.13.303.096.094.228.113.417.075 1.626-.53 2.968-1.512 3.99-2.93 1.04-1.398 1.55-2.987 1.55-4.744 0-1.474-.36-2.834-1.08-4.082-.735-1.228-1.718-2.212-2.947-2.95C11.815.512 10.453.153 9 .153c-1.475 0-2.836.36-4.083 1.077-1.23.736-2.212 1.72-2.95 2.948C1.25 5.426.892 6.786.892 8.26c0 1.758.51 3.347 1.55 4.745" fill="#0A0B09" fill-rule="evenodd"/></symbol><symbol viewBox="0 0 14 12" id="icon_hatena"><title>icon_hatena</title><g fill="#0071C5" fill-rule="evenodd"><path d="M10.932 0h2.746v7.84h-2.746zM8.44 6.252c-.468-.52-1.108-.813-1.934-.88.733-.2 1.266-.493 1.613-.893.332-.387.505-.92.505-1.574 0-.52-.12-.986-.333-1.386-.226-.4-.56-.72-.986-.96C6.932.347 6.48.213 5.96.12 5.44.04 4.52 0 3.2 0H0v11.652h3.293c1.32 0 2.28-.04 2.866-.134.586-.093 1.066-.24 1.466-.453.493-.253.866-.626 1.12-1.093.266-.48.386-1.027.386-1.64 0-.866-.24-1.56-.693-2.08zM2.945 2.6h.68c.787 0 1.32.093 1.587.266.266.174.413.48.413.92 0 .427-.147.72-.44.893-.293.173-.827.253-1.613.253h-.64L2.946 2.6zm2.707 6.68c-.307.185-.84.28-1.6.28H2.946V7.01h1.16c.773 0 1.307.094 1.587.294.293.2.426.533.426 1.026 0 .44-.16.76-.467.947zM12.372 8.665c-.867 0-1.574.707-1.574 1.574 0 .865.707 1.572 1.574 1.572.866 0 1.573-.707 1.573-1.573 0-.868-.707-1.575-1.573-1.575z"/><path d="M7.932 5.866H0v5.826h3.293c1.32 0 2.28-.04 2.866-.134.586-.093 1.066-.24 1.466-.453.493-.253.866-.626 1.12-1.093.266-.48.386-1.027.386-1.64 0-.866-.227-1.56-.693-2.08-.16-.173-.32-.306-.508-.426zm-2.28 3.44c-.306.186-.84.28-1.6.28H2.947V7.038h1.16c.773 0 1.307.092 1.587.292.293.2.426.534.426 1.027 0 .44-.16.76-.467.945zM10.932 5.866h2.746v1.96h-2.746z"/></g></symbol><symbol viewBox="0 0 16 12" id="icon_menu"><title>icon_menu.svg</title><path d="M0 12h16v-2H0v2zM0 0v2h16V0H0zm0 7h16V5H0v2z" fill="#fff" fill-rule="evenodd"/></symbol><symbol viewBox="0 0 61 61" id="icon_pencil"><title>icon_pencil.svg</title><path d="M17.28 60.41l32.89-32.888-16.444-16.447-32.89 32.89V60.41H17.28zM5.866 46.02l3.616-3.615 9.284 9.357-3.543 3.615H10.97v-5.103H5.867V46.02zm7.017-6.52l21.48-21.405c.14-.214.353-.284.638-.284.565 0 .85.285.85.85 0 .285-.074.496-.213.71L14.162 40.776c-.215.215-.427.285-.638.285-.64 0-.922-.285-.922-.85 0-.284.142-.5.28-.71zM52.72 24.97l6.59-6.52c.996-.993 1.42-2.2 1.42-3.544 0-1.418-.424-2.624-1.42-3.616l-9.283-9.287C49.035 1.01 47.83.515 46.41.515c-1.417 0-2.62.496-3.542 1.488l-6.59 6.52L52.72 24.97z" fill="#0A0B09" fill-rule="evenodd"/></symbol><symbol viewBox="0 0 16 17" id="icon_plane"><title>icon_plane.svg</title><path d="M.527 9.89l3.45 1.42 9.306-8.073-7.526 9.23v3.044c0 .125.032.22.11.328.062.094.156.157.265.203.047.017.11.033.187.033.17 0 .328-.063.42-.204l2.11-2.577 3.95 1.624c.078.015.14.03.202.03.11 0 .204-.015.28-.06.158-.095.25-.22.283-.39l2.217-13.383c.047-.234-.03-.422-.234-.562-.094-.063-.188-.094-.313-.094-.093 0-.187.03-.28.078L.464 8.906c-.203.11-.297.28-.282.515.016.235.14.39.344.47" fill="#0A0B09" fill-rule="evenodd"/></symbol><symbol viewBox="0 0 15 14" id="icon_pocket"><title>icon_pocket</title><path d="M12.5 0h-10C1.12 0 0 1.12 0 2.5v3.75c0 4.14 3.36 7.5 7.5 7.5 4.14 0 7.5-3.36 7.5-7.5V2.5C15 1.12 13.88 0 12.5 0zm-.366 5.884L8.6 9.42l-.042-.042c-.22.364-.602.622-1.058.622-.456 0-.84-.258-1.058-.622l-.04.04-3.536-3.534c-.488-.49-.488-1.28 0-1.768.488-.49 1.28-.49 1.768 0L7.5 6.983l2.866-2.867c.49-.49 1.28-.49 1.768 0 .488.488.488 1.28 0 1.768z" fill="#F03E56" fill-rule="evenodd"/></symbol><symbol viewBox="0 0 14 12" id="icon_tw"><title>icon_tw</title><path d="M14 1.66c-.515.228-1.068.382-1.65.45.593-.354 1.05-.917 1.263-1.588-.554.33-1.17.568-1.822.697C11.268.66 10.52.31 9.694.31 8.107.312 6.82 1.598 6.82 3.184c0 .225.027.444.076.654-2.387-.12-4.504-1.263-5.92-3-.248.423-.39.918-.39 1.444 0 .996.506 1.875 1.277 2.39-.47-.015-.913-.144-1.3-.36v.038c0 1.392.988 2.552 2.303 2.816-.24.065-.494.1-.756.1-.186 0-.365-.02-.54-.05.365 1.14 1.426 1.97 2.682 1.992-.982.77-2.222 1.23-3.566 1.23-.232 0-.46-.014-.686-.04 1.27.815 2.78 1.29 4.402 1.29 5.284 0 8.174-4.377 8.174-8.172 0-.124-.004-.248-.01-.37.56-.406 1.05-.91 1.434-1.487z" fill="#55ACEE" fill-rule="evenodd"/></symbol><symbol viewBox="0 0 79 79" id="icon_wp"><title>icon_wp.svg</title><path d="M12.32 67.43c3.513 3.436 7.65 6.247 12.49 8.278 4.762 2.108 9.837 3.123 15.145 3.123 5.23 0 10.306-1.014 15.148-3.122 4.84-2.03 8.977-4.842 12.49-8.278 3.437-3.513 6.247-7.65 8.275-12.49 2.11-4.843 3.123-9.837 3.123-15.145 0-5.312-1.01-10.306-3.122-15.148-2.028-4.838-4.838-8.977-8.275-12.49-3.513-3.437-7.65-6.247-12.49-8.275C50.26 1.774 45.186.758 39.955.758c-5.308 0-10.383 1.016-15.145 3.124-4.84 2.028-8.977 4.838-12.49 8.275-3.437 3.513-6.247 7.652-8.278 12.49C1.934 29.49.922 34.483.922 39.795c0 5.308 1.012 10.302 3.12 15.144 2.03 4.84 4.84 8.977 8.278 12.49zm1.325-53.945c3.28-3.36 7.263-6.014 11.868-7.965 4.605-1.95 9.37-2.967 14.442-2.967 4.998 0 9.84 1.016 14.445 2.967 4.605 1.95 8.588 4.605 11.868 7.965 3.356 3.277 6.01 7.26 7.962 11.865 1.95 4.608 2.967 9.447 2.967 14.445 0 4.995-1.016 9.836-2.967 14.442-1.952 4.605-4.606 8.587-7.962 11.867-3.28 3.357-7.263 6.01-11.868 7.962-4.605 1.95-9.447 2.967-14.445 2.967-5.072 0-9.837-1.016-14.442-2.967-4.605-1.95-8.588-4.605-11.868-7.962-3.356-3.28-6.01-7.262-7.962-11.867-1.95-4.606-2.966-9.447-2.966-14.442 0-4.998 1.015-9.837 2.966-14.445 1.952-4.606 4.606-8.588 7.962-11.865zm-2.028 44.188c3.513 5.388 8.042 9.447 13.74 12.257L9.353 26.132c-1.95 4.372-2.89 8.898-2.89 13.663 0 6.556 1.718 12.49 5.154 17.878zM13.1 21.447h1.015l8.9-.47c.547 0 1.016.237 1.25.626.312.39.312.86.156 1.326-.236.468-.625.78-1.17.858-1.173.08-2.5.236-3.827.313l12.18 36.227 7.34-21.937L33.71 24.1 30.2 23.79c-.313-.077-.626-.157-.782-.39-.233-.156-.39-.39-.39-.702-.076-.233-.076-.546 0-.783.157-.31.313-.466.546-.7.237-.156.546-.236.86-.236 3.67.313 6.636.47 8.82.47l8.9-.47c.547 0 1.017.237 1.25.626.313.39.313.86.08 1.326-.157.468-.546.78-1.092.858-1.253.08-2.5.236-3.827.313l12.1 35.99 3.28-11.16c.154-.39.39-1.173.78-2.5s.627-2.187.78-2.576c.08-.39.236-1.016.47-1.95.232-.86.39-1.563.47-2.11.075-.545.075-1.17.075-1.717 0-3.047-.86-6.09-2.73-9.214-.08-.157-.313-.466-.626-1.013-.313-.55-.546-.86-.623-1.015-.08-.157-.237-.47-.55-.94-.233-.39-.39-.778-.467-.935-.156-.233-.236-.546-.39-.936-.236-.393-.312-.702-.392-1.015-.076-.314-.076-.627-.156-.937-.076-.313-.076-.706-.076-1.016 0-1.64.546-3.047 1.562-4.215 1.092-1.172 2.42-1.72 4.06-1.72h.388c-3.043-2.81-6.48-4.997-10.382-6.48C48.31 7.083 44.174 6.3 39.956 6.3c-5.78 0-11.086 1.328-16.005 4.062-4.917 2.73-8.9 6.4-11.943 11.005.313 0 .623.08 1.092.08zm26.855 51.84c3.75 0 7.42-.626 11.088-1.95-.08-.158-.156-.314-.236-.47L40.504 42.68l-9.993 29.2c3.045.935 6.168 1.405 9.445 1.405zM68.922 56.58c3.043-5.154 4.528-10.698 4.528-16.785 0-5.7-1.405-11.01-4.14-16.084.158 1.093.234 2.266.234 3.434 0 3.124-.86 7.106-2.574 12.025L56.74 68.68c5.076-2.967 9.135-7.03 12.182-12.1z" fill="#0A0B09" fill-rule="evenodd"/></symbol><symbol viewBox="0 0 100 25" id="logo_node"><title>logo_node</title><g fill="#231814" fill-rule="evenodd"><path d="M0 .424h3.855l12.67 16.404V.424h4.096v23.73h-3.443L4.097 7.267v16.885H0V.423M86.44 20.48v-6.497h11.865V10.31H86.44V4.097h13.42V.424H82.202v9.887H76.89c-.145-.988-.4-1.87-.764-2.73-.61-1.435-1.475-2.694-2.594-3.757-1.118-1.062-2.452-1.897-4-2.496-1.548-.6-3.25-.903-5.1-.903H55.65v9.887h-5.265c-.146-.988-.4-1.907-.767-2.798-.61-1.48-1.458-2.785-2.543-3.892C45.99 2.513 44.69 1.63 43.177.987 41.663.343 39.99.017 38.16.017c-1.83 0-3.503.328-5.017.983-1.514.656-2.825 1.542-3.932 2.66-1.107 1.12-1.9 2.418-2.51 3.898-.61 1.48-.853 3.056-.853 4.73v.066c0 1.673.242 3.25.852 4.73.61 1.48 1.424 2.773 2.51 3.88 1.084 1.108 2.367 1.984 3.88 2.628 1.515.644 3.18.966 5.01.966 1.83 0 3.5-.328 5.013-.983 1.514-.656 2.823-1.543 3.93-2.66 1.107-1.12 1.965-2.425 2.576-3.905.397-.966.66-1.897.8-3.027h5.23v10.17h8.78c1.853 0 3.554-.306 5.102-.917 1.548-.61 2.882-1.446 4-2.508 1.12-1.062 1.984-2.322 2.594-3.77.397-.94.663-1.845.8-2.975h5.277v10.17H100V20.48H86.44zm-40.873-4.887c-.396 1.02-.944 1.905-1.644 2.652-.7.747-1.543 1.343-2.526 1.785-.983.442-2.062.663-3.237.663-1.175 0-2.26-.22-3.254-.662-.995-.44-1.848-1.046-2.56-1.816-.71-.77-1.2-1.664-1.594-2.683-.395-1.018-.526-2.105-.526-3.26v-.068c0-1.155.13-2.242.526-3.26.395-1.02.91-1.91 1.61-2.667.7-.76 1.527-1.36 2.51-1.8.983-.442 2.053-.663 3.23-.663 1.173 0 2.254.227 3.25.68.993.452 1.844 1.058 2.556 1.817.712.757 1.264 1.674 1.66 2.705.16.414.283.872.378 1.296h-3.743c-.21-.423-.515-.903-.848-1.258-.375-.4-.85-.733-1.37-.97-.53-.24-1.13-.368-1.747-.368-.615 0-1.19.117-1.713.35-.517.233-.968.553-1.34.955-.366.397-.714.866-.92 1.396-.205.528-.367 1.097-.367 1.69v.032c0 .595.162 1.164.368 1.693.204.53.527 1.002.9 1.405.376.408.847.732 1.37.965.525.233 1.11.35 1.725.35.616 0 1.196-.117 1.717-.35.516-.233.967-.557 1.338-.952.337-.36.685-.7.9-1.265h3.8c-.098.565-.248 1.093-.448 1.61zm14.32-11.356h4.544c1.243 0 2.374.194 3.39.6 1.018.408 1.882.963 2.594 1.675.712.71 1.265 1.585 1.66 2.58.155.387.278.795.372 1.22h-12.56V4.236zm12.188 11.315c-.396.983-.95 1.833-1.66 2.545-.713.712-1.577 1.26-2.594 1.655-1.016.396-2.147.587-3.39.587h-4.543v-6.357h12.637c-.1.565-.25 1.07-.45 1.57z"/></g></symbol><symbol viewBox="0 0 200 69" id="logo_node_home"><title>logo_node_home</title><g fill="none" fill-rule="evenodd"><path d="M.95 54.99h.882l3.35 9.49 3.124-9.52h.61l3.122 9.52 3.35-9.49h.824l-3.87 10.74h-.64L8.58 56.467l-3.122 9.26h-.64L.948 54.99M20.37 65.836c-.508 0-.993-.097-1.454-.29-.463-.192-.87-.466-1.22-.822-.35-.356-.626-.782-.83-1.28-.203-.497-.304-1.05-.304-1.66v-.03c0-.56.094-1.084.28-1.577.19-.493.447-.92.776-1.287.33-.366.717-.655 1.163-.87.447-.212.934-.318 1.46-.318.548 0 1.04.104 1.475.312.436.208.808.495 1.117.86.31.366.547.795.715 1.288.167.492.25 1.028.25 1.607v.16c0 .034-.005.082-.014.143h-6.43c.03.486.138.915.32 1.29.184.373.412.69.686.954.274.262.586.462.936.598.35.137.72.205 1.105.205.61 0 1.125-.117 1.547-.35.42-.234.794-.523 1.12-.87l.517.458c-.396.427-.845.78-1.348 1.06-.503.278-1.125.418-1.866.418zm2.636-4.433c-.03-.396-.11-.774-.236-1.135-.128-.36-.305-.68-.534-.96-.228-.278-.51-.502-.845-.67-.334-.167-.725-.25-1.172-.25-.386 0-.747.075-1.082.228-.335.152-.627.363-.876.632-.248.27-.454.59-.617.96-.162.37-.26.77-.29 1.195h5.653zM29.625 65.836c-.386 0-.74-.05-1.064-.152-.323-.102-.615-.24-.873-.412-.26-.172-.492-.37-.7-.594-.207-.223-.392-.457-.554-.7v1.675h-.746v-11.12h.746l-.002 5.088c.163-.253.35-.496.564-.73.212-.234.448-.437.707-.61.26-.172.548-.312.868-.42.318-.105.67-.158 1.056-.158.466 0 .925.09 1.376.274.45.183.854.447 1.208.792.355.345.64.77.86 1.272.217.502.326 1.07.326 1.698v.03c0 .63-.11 1.196-.327 1.7-.218.502-.504.928-.858 1.28-.356.35-.76.618-1.21.806-.45.188-.91.282-1.375.282zm-.07-.716c.427 0 .826-.076 1.196-.23.372-.15.695-.37.968-.654.275-.284.49-.63.648-1.043.157-.41.236-.876.236-1.394v-.03c0-.51-.08-.97-.244-1.387-.162-.417-.383-.77-.662-1.06-.28-.29-.605-.512-.975-.67-.37-.157-.758-.236-1.165-.236-.406 0-.8.082-1.18.244-.38.164-.72.392-1.013.687-.295.294-.53.645-.708 1.05-.178.407-.267.86-.267 1.356v.03c0 .5.09.953.267 1.364.177.412.413.762.708 1.05.294.29.632.517 1.013.68.38.162.774.243 1.18.243zM39.868 54.99h3.55c.83 0 1.596.135 2.29.404.697.27 1.296.642 1.8 1.12.502.477.89 1.038 1.164 1.683.274.645.41 1.343.41 2.094v.032c0 .75-.136 1.452-.41 2.102-.274.65-.662 1.214-1.165 1.69-.503.478-1.102.854-1.798 1.128-.696.274-1.46.41-2.293.41h-3.55V54.99zm.792.716v9.23h2.757c.74 0 1.41-.12 2.01-.358.6-.24 1.108-.565 1.524-.978.417-.413.74-.897.968-1.452.23-.555.343-1.154.343-1.796v-.03c0-.632-.113-1.228-.342-1.788-.228-.56-.55-1.05-.967-1.468-.415-.417-.923-.748-1.522-.993-.6-.245-1.27-.367-2.01-.367H40.66zM54.278 65.836c-.508 0-.993-.097-1.455-.29-.462-.192-.868-.466-1.218-.822-.35-.356-.628-.782-.83-1.28-.204-.497-.305-1.05-.305-1.66v-.03c0-.56.093-1.084.28-1.577.188-.493.447-.92.776-1.287.33-.366.717-.655 1.163-.87.445-.212.93-.318 1.458-.318.547 0 1.04.104 1.475.312.436.208.808.495 1.117.86.31.366.547.795.714 1.288.167.492.25 1.028.25 1.607v.16c0 .034-.004.082-.014.143h-6.428c.03.486.137.915.32 1.29.182.373.41.69.685.954.274.262.587.462.937.598.35.137.718.205 1.104.205.61 0 1.125-.117 1.546-.35.422-.234.795-.523 1.12-.87l.518.458c-.396.427-.845.78-1.348 1.06-.503.278-1.125.418-1.866.418zm2.635-4.433c-.03-.396-.11-.774-.236-1.135-.127-.36-.305-.68-.533-.96-.23-.278-.51-.502-.846-.67-.335-.167-.726-.25-1.172-.25-.386 0-.747.075-1.082.228-.335.152-.627.363-.876.632-.25.27-.455.59-.617.96-.16.37-.258.77-.288 1.195h5.65zM62.107 65.805c-.568 0-1.137-.106-1.706-.32-.568-.21-1.06-.486-1.476-.822l.442-.594c.426.324.873.575 1.34.753.467.178.95.266 1.447.266.528 0 .972-.132 1.333-.396.36-.263.54-.623.54-1.08v-.03c0-.222-.055-.415-.167-.577-.113-.162-.265-.304-.458-.426-.193-.12-.41-.22-.655-.302-.243-.082-.502-.163-.777-.244-.315-.09-.632-.187-.952-.29-.32-.1-.607-.23-.86-.386-.254-.157-.46-.352-.617-.585-.157-.234-.235-.523-.235-.867v-.03c0-.315.063-.6.19-.86.127-.258.302-.483.526-.676.224-.192.493-.342.808-.448.314-.106.66-.16 1.036-.16.467 0 .946.078 1.44.234.49.155.93.367 1.317.634l-.395.625c-.356-.233-.74-.42-1.15-.564-.412-.14-.825-.212-1.242-.212-.538 0-.967.13-1.287.388-.32.258-.48.58-.48.965v.032c0 .212.06.397.183.554.12.157.28.292.48.403.197.11.428.21.692.295.264.087.533.17.807.252.314.09.624.19.93.296.303.106.577.243.82.41.245.167.44.368.588.6.147.233.22.522.22.867v.03c0 .345-.068.657-.205.935-.137.28-.328.517-.57.715-.245.198-.53.35-.854.456-.327.106-.677.16-1.053.16M66.57 54.838h.93v1.02h-.93v-1.02zm.092 3.046h.746v7.77h-.746v-7.77zM73.142 68.12c-1.312 0-2.503-.4-3.57-1.202l.44-.61c.948.73 1.996 1.097 3.147 1.097.446 0 .856-.063 1.228-.19.37-.126.692-.316.962-.57.27-.252.48-.566.633-.94.153-.374.23-.81.23-1.305v-1.123c-.173.244-.366.472-.58.685-.212.213-.45.404-.715.572-.264.167-.56.3-.884.395-.325.096-.68.144-1.066.144-.467 0-.924-.086-1.37-.26-.448-.17-.847-.418-1.197-.738-.35-.32-.63-.703-.844-1.15-.213-.446-.32-.95-.32-1.508v-.03c0-.558.107-1.066.32-1.523.213-.457.495-.846.845-1.166.35-.32.75-.567 1.197-.74.447-.172.904-.258 1.37-.258.387 0 .745.048 1.075.144.33.097.627.224.89.38.265.16.504.344.717.557.212.214.4.432.563.655v-1.554h.746v6.566c0 .57-.088 1.07-.26 1.508-.174.436-.418.812-.733 1.127-.336.335-.746.59-1.23.77-.483.177-1.014.266-1.595.266zm-.106-3.762c.407 0 .805-.07 1.19-.213.388-.142.732-.342 1.032-.6.3-.26.542-.57.725-.93.184-.36.275-.765.275-1.212v-.03c0-.447-.09-.853-.275-1.22-.183-.365-.425-.677-.725-.936-.3-.26-.644-.456-1.03-.594-.387-.137-.785-.206-1.192-.206-.407 0-.793.07-1.16.206-.367.138-.688.333-.962.587-.275.254-.49.56-.65.92-.157.362-.236.77-.236 1.228v.03c0 .437.08.838.244 1.204.163.365.382.677.657.936.274.26.595.462.96.61.368.147.75.22 1.146.22zM79.183 57.884h.746v1.447c.263-.456.62-.84 1.066-1.156.446-.315 1.025-.472 1.736-.472.488 0 .924.078 1.31.236.386.157.713.378.983.662.27.285.472.622.61 1.013.136.392.205.82.205 1.288v4.753h-.747v-4.615c0-.802-.213-1.445-.64-1.927-.426-.482-1.035-.723-1.828-.723-.386 0-.74.07-1.066.206-.326.137-.61.327-.854.57-.244.245-.434.537-.57.877-.138.34-.207.713-.207 1.12v4.493h-.747v-7.77M99 63.962c-.507.59-1.056 1.044-1.645 1.364-.59.32-1.244.48-1.965.48-.467 0-.9-.074-1.302-.222-.4-.146-.746-.35-1.036-.61-.29-.258-.518-.568-.686-.928-.167-.36-.25-.76-.25-1.196v-.03c0-.72.24-1.34.723-1.86.48-.517 1.16-.938 2.032-1.263-.406-.447-.706-.853-.898-1.218-.193-.367-.29-.773-.29-1.22v-.03c0-.346.066-.666.198-.96.132-.295.315-.55.548-.77.234-.218.516-.388.846-.51.33-.122.688-.183 1.074-.183.345 0 .667.06.967.183.3.122.56.287.777.495.218.21.39.455.518.74.127.283.19.583.19.898v.03c0 .67-.23 1.226-.693 1.668-.463.443-1.105.806-1.927 1.09l2.802 2.88c.264-.366.51-.767.74-1.204.227-.437.443-.9.646-1.386l.717.29c-.244.548-.495 1.06-.754 1.538-.26.477-.536.91-.83 1.294l1.965 2.026-.625.518L99 63.962zm-3.595 1.158c.6 0 1.153-.15 1.66-.45.508-.3.986-.708 1.433-1.226l-3.154-3.26c-.852.295-1.472.673-1.858 1.135-.386.462-.58.95-.58 1.47v.03c0 .325.062.627.184.906.122.28.294.523.518.73.223.21.487.372.792.49.305.116.64.174 1.005.174zm.305-5.697c1.533-.488 2.3-1.234 2.3-2.24v-.03c0-.477-.16-.876-.48-1.196-.32-.32-.723-.48-1.21-.48-.55 0-.993.166-1.333.496-.34.33-.51.738-.51 1.226v.03c0 .172.02.334.06.487.04.152.11.312.206.48.096.167.223.35.38.548.158.198.353.424.587.678zM107.515 54.99h3.55c.832 0 1.596.135 2.292.404.695.27 1.295.642 1.798 1.12.502.477.89 1.038 1.165 1.683.274.645.41 1.343.41 2.094v.032c0 .75-.136 1.452-.41 2.102-.274.65-.663 1.214-1.165 1.69-.503.478-1.103.854-1.798 1.128-.696.274-1.46.41-2.292.41h-3.55V54.99zm.792.716v9.23h2.758c.74 0 1.41-.12 2.01-.358.6-.24 1.107-.565 1.523-.978.417-.413.74-.897.968-1.452.228-.555.343-1.154.343-1.796v-.03c0-.632-.116-1.228-.344-1.788-.23-.56-.55-1.05-.968-1.468-.416-.417-.924-.748-1.523-.993-.6-.245-1.27-.367-2.01-.367h-2.758zM121.926 65.836c-.51 0-.993-.097-1.455-.29-.46-.192-.867-.466-1.218-.822-.35-.356-.627-.782-.83-1.28-.203-.497-.305-1.05-.305-1.66v-.03c0-.56.094-1.084.282-1.577.186-.493.444-.92.774-1.287.33-.366.717-.655 1.163-.87.445-.212.932-.318 1.46-.318.546 0 1.037.104 1.473.312.436.208.808.495 1.117.86.31.366.548.795.715 1.288.167.492.25 1.028.25 1.607v.16c0 .034-.004.082-.015.143h-6.428c.03.486.137.915.32 1.29.182.373.41.69.685.954.274.262.586.462.937.598.35.137.718.205 1.104.205.61 0 1.124-.117 1.546-.35.422-.234.794-.523 1.12-.87l.518.458c-.396.427-.846.78-1.348 1.06-.503.278-1.125.418-1.866.418zm2.635-4.433c-.03-.396-.108-.774-.236-1.135-.127-.36-.304-.68-.532-.96-.23-.278-.51-.502-.846-.67-.335-.167-.726-.25-1.173-.25-.386 0-.746.075-1.08.228-.336.152-.628.363-.877.632-.25.27-.455.59-.617.96-.164.37-.26.77-.29 1.195h5.65zM126.07 57.884h.867l2.94 6.93 2.97-6.93h.838l-3.488 7.83h-.64l-3.488-7.83M137.935 65.836c-.508 0-.993-.097-1.455-.29-.462-.192-.868-.466-1.22-.822-.35-.356-.626-.782-.83-1.28-.202-.497-.303-1.05-.303-1.66v-.03c0-.56.093-1.084.28-1.577.188-.493.447-.92.776-1.287.33-.366.717-.655 1.163-.87.446-.212.932-.318 1.46-.318.546 0 1.038.104 1.474.312.435.208.808.495 1.117.86.31.366.547.795.714 1.288.168.492.252 1.028.252 1.607v.16c0 .034-.005.082-.015.143h-6.428c.03.486.136.915.32 1.29.18.373.41.69.684.954.274.262.587.462.937.598.35.137.72.205 1.105.205.61 0 1.125-.117 1.546-.35.423-.234.796-.523 1.12-.87l.52.458c-.397.427-.846.78-1.35 1.06-.502.278-1.124.418-1.865.418zm2.635-4.433c-.03-.396-.11-.774-.236-1.135-.127-.36-.305-.68-.533-.96-.228-.278-.51-.502-.845-.67-.335-.167-.726-.25-1.173-.25-.386 0-.746.075-1.08.228-.336.152-.628.363-.877.632-.25.27-.455.59-.617.96-.163.37-.26.77-.29 1.195h5.652zM143.053 54.533h.746v11.12h-.747v-11.12zM149.565 65.836c-.578 0-1.108-.11-1.59-.327-.48-.22-.9-.512-1.253-.878-.355-.365-.63-.79-.83-1.28-.197-.487-.295-1.004-.295-1.553v-.03c0-.55.098-1.068.296-1.555.198-.487.477-.92.836-1.295.36-.375.783-.672 1.27-.89.485-.22 1.017-.328 1.595-.328.578 0 1.107.11 1.59.327.48.218.898.51 1.253.875.355.366.63.792.83 1.28.196.487.295 1.005.295 1.553v.03c0 .55-.1 1.067-.296 1.554-.198.488-.476.92-.837 1.295-.36.376-.782.673-1.27.892-.485.217-1.018.326-1.595.326zm.03-.716c.458 0 .883-.088 1.275-.266.392-.176.728-.414 1.008-.712s.5-.65.656-1.054c.158-.404.237-.834.237-1.29v-.03c0-.464-.08-.9-.243-1.31-.163-.41-.39-.766-.68-1.07-.29-.303-.63-.54-1.023-.713-.392-.17-.81-.258-1.26-.258-.457 0-.883.09-1.274.266-.392.177-.728.415-1.008.713s-.5.65-.657 1.054c-.158.404-.236.834-.236 1.29v.03c0 .464.08.9.243 1.31.163.41.39.766.68 1.07.29.303.63.54 1.022.712.392.172.812.258 1.26.258zM155.27 57.884h.746v1.737c.162-.253.35-.496.562-.73.213-.234.45-.437.707-.61.258-.172.547-.312.866-.42.32-.105.673-.158 1.058-.158.466 0 .924.09 1.375.274.45.183.854.447 1.21.792.353.345.64.77.857 1.272.218.502.327 1.07.327 1.698v.03c0 .63-.11 1.196-.327 1.7-.218.502-.504.928-.858 1.28-.355.35-.758.618-1.21.806-.45.188-.908.282-1.374.282-.385 0-.74-.05-1.064-.152-.325-.102-.616-.24-.874-.412-.26-.172-.492-.37-.7-.594-.207-.223-.392-.457-.554-.7v4.112h-.746V57.884zm3.87 7.236c.425 0 .823-.076 1.194-.23.37-.15.693-.37.968-.654.274-.284.49-.63.647-1.043.156-.41.235-.876.235-1.394v-.03c0-.51-.08-.97-.244-1.387-.16-.417-.382-.77-.66-1.06-.28-.29-.606-.512-.976-.67-.37-.157-.76-.236-1.165-.236-.408 0-.8.082-1.182.244-.38.164-.72.392-1.013.687-.295.294-.53.645-.708 1.05-.178.407-.267.86-.267 1.356v.03c0 .5.09.953.267 1.364.177.412.413.762.708 1.05.294.29.632.517 1.013.68.38.162.774.243 1.18.243zM164.714 57.884h.746v1.387c.122-.202.26-.398.42-.586.156-.188.336-.355.54-.503.203-.146.44-.263.708-.35.27-.085.576-.128.92-.128.337 0 .644.045.923.137.28.09.526.212.74.364.213.153.398.33.556.534.157.202.292.416.403.64.122-.214.27-.422.44-.625.174-.203.375-.383.603-.54.228-.158.488-.283.777-.374.29-.093.617-.138.982-.138.457 0 .87.078 1.242.236.37.157.685.376.944.655.26.28.457.62.594 1.02.138.402.206.846.206 1.333v4.707h-.747v-4.615c0-.843-.202-1.496-.608-1.958-.406-.462-.97-.693-1.69-.693-.326 0-.638.06-.937.183-.3.122-.56.3-.785.533-.223.234-.4.52-.533.86-.132.34-.198.73-.198 1.166v4.523h-.748v-4.66c0-.813-.202-1.45-.61-1.913-.405-.462-.958-.693-1.66-.693-.344 0-.67.07-.974.213-.305.143-.57.34-.792.594-.223.254-.4.55-.526.884-.127.335-.19.7-.19 1.097v4.478h-.746v-7.77M181.865 65.836c-.508 0-.993-.097-1.454-.29-.46-.192-.867-.466-1.218-.822-.35-.356-.627-.782-.83-1.28-.203-.497-.305-1.05-.305-1.66v-.03c0-.56.094-1.084.282-1.577.186-.493.444-.92.774-1.287.33-.366.716-.655 1.162-.87.446-.212.933-.318 1.46-.318.547 0 1.04.104 1.474.312.436.208.81.495 1.117.86.31.366.548.795.715 1.288.167.492.25 1.028.25 1.607v.16c0 .034-.004.082-.014.143h-6.43c.032.486.138.915.32 1.29.184.373.413.69.687.954.274.262.586.462.937.598.35.137.718.205 1.104.205.61 0 1.125-.117 1.546-.35.42-.234.794-.523 1.12-.87l.518.458c-.397.427-.846.78-1.35 1.06-.5.278-1.123.418-1.865.418zm2.636-4.433c-.03-.396-.108-.774-.235-1.135-.127-.36-.305-.68-.534-.96-.227-.278-.51-.502-.844-.67-.335-.167-.726-.25-1.173-.25-.386 0-.746.075-1.08.228-.337.152-.628.363-.877.632-.25.27-.455.59-.617.96-.164.37-.26.77-.29 1.195h5.65zM186.877 57.884h.746v1.447c.264-.456.62-.84 1.067-1.156.446-.315 1.025-.472 1.736-.472.488 0 .924.078 1.31.236.386.157.713.378.983.662.268.285.47.622.608 1.013.137.392.206.82.206 1.288v4.753h-.747v-4.615c0-.802-.213-1.445-.64-1.927-.426-.482-1.035-.723-1.827-.723-.387 0-.742.07-1.067.206-.325.137-.61.327-.853.57-.243.245-.434.537-.57.877-.138.34-.207.713-.207 1.12v4.493h-.746v-7.77M197.89 65.79c-.305 0-.59-.04-.853-.122-.264-.08-.495-.21-.693-.388-.198-.178-.353-.4-.464-.67-.112-.27-.168-.587-.168-.952V58.57h-1.127v-.686h1.127v-2.482h.746v2.482h2.727v.686h-2.727v5c0 .557.145.947.434 1.17.29.223.663.334 1.12.334.193 0 .376-.02.548-.057.173-.038.37-.106.594-.202v.7c-.203.092-.403.16-.6.207-.2.045-.42.068-.664.068" fill="#1F2121"/><path d="M.263.944H7.98L33.37 33.71V.945h8.19v47.39H34.59L8.455 14.62v33.715H.263V.945M172.92 41.185V28.21h23.695v-7.336H172.92V8.464h26.798V1.127h-35.26v19.746h-10.61c-.293-1.974-.8-3.825-1.53-5.542-1.218-2.866-2.945-5.426-5.178-7.548-2.234-2.12-4.898-3.723-7.99-4.92-3.09-1.194-6.488-1.736-10.188-1.736h-17.537v19.746H100.91c-.292-1.974-.8-3.9-1.533-5.677-1.218-2.956-2.91-5.607-5.077-7.82-2.167-2.21-4.763-3.994-7.786-5.28C83.49.81 80.15.15 76.494.15c-3.655 0-6.996.647-10.02 1.956-3.024 1.31-5.642 3.076-7.853 5.31-2.21 2.234-3.797 4.828-5.016 7.784-1.218 2.956-1.7 6.102-1.7 9.442v.135c0 3.34.482 6.49 1.7 9.444 1.22 2.958 2.847 5.542 5.013 7.753 2.167 2.212 4.73 3.96 7.754 5.247 3.024 1.286 6.35 1.93 10.005 1.93 3.656 0 6.987-.655 10.012-1.964 3.023-1.308 5.637-3.08 7.85-5.314 2.21-2.234 3.924-4.75 5.142-7.708.795-1.928 1.323-3.7 1.6-5.955h10.445v20.31h17.537c3.7 0 7.097-.7 10.19-1.92 3.09-1.218 5.754-2.933 7.988-5.055 2.233-2.12 3.96-4.57 5.18-7.46.792-1.88 1.323-3.62 1.6-5.876h10.537v20.31H200v-7.335h-27.08zm-81.633-9.85c-.79 2.035-1.885 3.76-3.283 5.252-1.4 1.492-3.08 2.66-5.044 3.542-1.963.88-4.12 1.31-6.466 1.31-2.347 0-4.513-.443-6.5-1.326-1.986-.882-3.688-2.093-5.11-3.632-1.422-1.538-2.395-3.325-3.184-5.36-.79-2.035-1.05-4.207-1.05-6.514v-.135c0-2.307.26-4.477 1.05-6.512.79-2.035 1.817-3.81 3.217-5.324 1.398-1.515 3.047-2.714 5.01-3.596 1.963-.882 4.1-1.323 6.45-1.323 2.345 0 4.503.453 6.49 1.357 1.985.904 3.685 2.114 5.107 3.63 1.422 1.514 2.525 3.435 3.315 5.492.316.828.565 1.832.755 2.678H84.57c-.418-.846-1.03-1.894-1.694-2.603-.75-.797-1.7-1.508-2.74-1.98-1.052-.48-2.256-.757-3.486-.757-1.23 0-2.38.22-3.42.688-1.034.465-1.934 1.1-2.675 1.902-.733.794-1.43 1.73-1.84 2.787-.408 1.053-.732 2.186-.732 3.374v.06c0 1.19.324 2.326.734 3.38.41 1.058 1.052 2.002 1.796 2.807.753.815 1.693 1.463 2.74 1.927 1.047.466 2.216.702 3.443.702 1.23 0 2.387-.238 3.428-.705 1.03-.463 1.93-1.02 2.67-1.81.675-.718 1.37-1.308 1.8-2.436h7.59c-.198 1.127-.497 2.092-.897 3.125zm28.6-22.59h9.075c2.48 0 4.74.298 6.77 1.11 2.03.813 3.757 1.876 5.18 3.298 1.42 1.422 2.526 3.233 3.316 5.22.308.773.554 1.655.742 2.5h-25.083V8.746zm24.34 22.508c-.79 1.963-1.894 3.617-3.316 5.04-1.42 1.42-3.147 2.58-5.178 3.37-2.03.79-4.29 1.24-6.77 1.24h-9.075V28.21h25.238c-.198 1.127-.496 2.046-.897 3.043z" fill="#231814"/></g></symbol></svg>