<?xml version="1.0" encoding="UTF-8" standalone="no"?><svg xmlns="http://www.w3.org/2000/svg" xmlns:xlink="http://www.w3.org/1999/xlink"><symbol viewBox="0 0 39 37" id="icon_starBlue"><title>icon_starBlue.svg</title><path d="M19.444 30L7.428 36.18l2.295-13.09L0 13.82l13.436-1.91L19.444 0l6.01 11.91 13.434 1.91-9.722 9.27 2.295 13.09" fill="#4990E2" fill-rule="evenodd"/></symbol><symbol viewBox="0 0 39 37" id="icon_starRed"><title>icon_starRed.svg</title><path d="M19.444 30L7.428 36.18l2.295-13.09L0 13.82l13.436-1.91L19.444 0l6.01 11.91 13.434 1.91-9.722 9.27 2.295 13.09" fill="#D0011B" fill-rule="evenodd"/></symbol><symbol viewBox="0 0 39 37" id="icon_starYellow"><title>icon_starYellow.svg</title><path d="M19.444 30L7.428 36.18l2.295-13.09L0 13.82l13.436-1.91L19.444 0l6.01 11.91 13.434 1.91-9.722 9.27 2.295 13.09" fill="#F8E70B" fill-rule="evenodd"/></symbol></svg>