<?xml version="1.0" encoding="UTF-8" standalone="no"?><svg xmlns="http://www.w3.org/2000/svg" xmlns:xlink="http://www.w3.org/1999/xlink"><symbol viewBox="0 0 7 15" id="icon_fb"><title>icon_fb</title><path d="M4.2 5.865v-1.7-.1c0-.7.1-1 1-1h1.5l.1-2.2s-.7-.1-1.7-.1c-2.3 0-3.4 1.5-3.4 3v2H0v2.4h1.7v6.6h2.5v-6.6h2.5l.1-2.4H4.2v.1z" fill="#3B5998" fill-rule="evenodd"/></symbol><symbol viewBox="0 0 14 12" id="icon_hatena"><title>icon_hatena</title><g fill="#0071C5" fill-rule="evenodd"><path d="M10.932 0h2.746v7.84h-2.746zM8.44 6.252c-.468-.52-1.108-.813-1.934-.88.733-.2 1.266-.493 1.613-.893.332-.387.505-.92.505-1.574 0-.52-.12-.986-.333-1.386-.226-.4-.56-.72-.986-.96C6.932.347 6.48.213 5.96.12 5.44.04 4.52 0 3.2 0H0v11.652h3.293c1.32 0 2.28-.04 2.866-.134.586-.093 1.066-.24 1.466-.453.493-.253.866-.626 1.12-1.093.266-.48.386-1.027.386-1.64 0-.866-.24-1.56-.693-2.08zM2.945 2.6h.68c.787 0 1.32.093 1.587.266.266.174.413.48.413.92 0 .427-.147.72-.44.893-.293.173-.827.253-1.613.253h-.64L2.946 2.6zm2.707 6.68c-.307.185-.84.28-1.6.28H2.946V7.01h1.16c.773 0 1.307.094 1.587.294.293.2.426.533.426 1.026 0 .44-.16.76-.467.947zM12.372 8.665c-.867 0-1.574.707-1.574 1.574 0 .865.707 1.572 1.574 1.572.866 0 1.573-.707 1.573-1.573 0-.868-.707-1.575-1.573-1.575z"/><path d="M7.932 5.866H0v5.826h3.293c1.32 0 2.28-.04 2.866-.134.586-.093 1.066-.24 1.466-.453.493-.253.866-.626 1.12-1.093.266-.48.386-1.027.386-1.64 0-.866-.227-1.56-.693-2.08-.16-.173-.32-.306-.508-.426zm-2.28 3.44c-.306.186-.84.28-1.6.28H2.947V7.038h1.16c.773 0 1.307.092 1.587.292.293.2.426.534.426 1.027 0 .44-.16.76-.467.945zM10.932 5.866h2.746v1.96h-2.746z"/></g></symbol><symbol viewBox="0 0 16 12" id="icon_menu"><title>icon_menu.svg</title><path d="M0 12h16v-2H0v2zM0 0v2h16V0H0zm0 7h16V5H0v2z" fill="#fff" fill-rule="evenodd"/></symbol><symbol viewBox="0 0 15 14" id="icon_pocket"><title>icon_pocket</title><path d="M12.5 0h-10C1.12 0 0 1.12 0 2.5v3.75c0 4.14 3.36 7.5 7.5 7.5 4.14 0 7.5-3.36 7.5-7.5V2.5C15 1.12 13.88 0 12.5 0zm-.366 5.884L8.6 9.42l-.042-.042c-.22.364-.602.622-1.058.622-.456 0-.84-.258-1.058-.622l-.04.04-3.536-3.534c-.488-.49-.488-1.28 0-1.768.488-.49 1.28-.49 1.768 0L7.5 6.983l2.866-2.867c.49-.49 1.28-.49 1.768 0 .488.488.488 1.28 0 1.768z" fill="#F03E56" fill-rule="evenodd"/></symbol><symbol viewBox="0 0 14 12" id="icon_tw"><title>icon_tw</title><path d="M14 1.66c-.515.228-1.068.382-1.65.45.593-.354 1.05-.917 1.263-1.588-.554.33-1.17.568-1.822.697C11.268.66 10.52.31 9.694.31 8.107.312 6.82 1.598 6.82 3.184c0 .225.027.444.076.654-2.387-.12-4.504-1.263-5.92-3-.248.423-.39.918-.39 1.444 0 .996.506 1.875 1.277 2.39-.47-.015-.913-.144-1.3-.36v.038c0 1.392.988 2.552 2.303 2.816-.24.065-.494.1-.756.1-.186 0-.365-.02-.54-.05.365 1.14 1.426 1.97 2.682 1.992-.982.77-2.222 1.23-3.566 1.23-.232 0-.46-.014-.686-.04 1.27.815 2.78 1.29 4.402 1.29 5.284 0 8.174-4.377 8.174-8.172 0-.124-.004-.248-.01-.37.56-.406 1.05-.91 1.434-1.487z" fill="#55ACEE" fill-rule="evenodd"/></symbol><symbol viewBox="0 0 100 25" id="logo_node"><title>logo_node</title><g fill="#231814" fill-rule="evenodd"><path d="M0 .424h3.855l12.67 16.404V.424h4.096v23.73h-3.443L4.097 7.267v16.885H0V.423M86.44 20.48v-6.497h11.865V10.31H86.44V4.097h13.42V.424H82.202v9.887H76.89c-.145-.988-.4-1.87-.764-2.73-.61-1.435-1.475-2.694-2.594-3.757-1.118-1.062-2.452-1.897-4-2.496-1.548-.6-3.25-.903-5.1-.903H55.65v9.887h-5.265c-.146-.988-.4-1.907-.767-2.798-.61-1.48-1.458-2.785-2.543-3.892C45.99 2.513 44.69 1.63 43.177.987 41.663.343 39.99.017 38.16.017c-1.83 0-3.503.328-5.017.983-1.514.656-2.825 1.542-3.932 2.66-1.107 1.12-1.9 2.418-2.51 3.898-.61 1.48-.853 3.056-.853 4.73v.066c0 1.673.242 3.25.852 4.73.61 1.48 1.424 2.773 2.51 3.88 1.084 1.108 2.367 1.984 3.88 2.628 1.515.644 3.18.966 5.01.966 1.83 0 3.5-.328 5.013-.983 1.514-.656 2.823-1.543 3.93-2.66 1.107-1.12 1.965-2.425 2.576-3.905.397-.966.66-1.897.8-3.027h5.23v10.17h8.78c1.853 0 3.554-.306 5.102-.917 1.548-.61 2.882-1.446 4-2.508 1.12-1.062 1.984-2.322 2.594-3.77.397-.94.663-1.845.8-2.975h5.277v10.17H100V20.48H86.44zm-40.873-4.887c-.396 1.02-.944 1.905-1.644 2.652-.7.747-1.543 1.343-2.526 1.785-.983.442-2.062.663-3.237.663-1.175 0-2.26-.22-3.254-.662-.995-.44-1.848-1.046-2.56-1.816-.71-.77-1.2-1.664-1.594-2.683-.395-1.018-.526-2.105-.526-3.26v-.068c0-1.155.13-2.242.526-3.26.395-1.02.91-1.91 1.61-2.667.7-.76 1.527-1.36 2.51-1.8.983-.442 2.053-.663 3.23-.663 1.173 0 2.254.227 3.25.68.993.452 1.844 1.058 2.556 1.817.712.757 1.264 1.674 1.66 2.705.16.414.283.872.378 1.296h-3.743c-.21-.423-.515-.903-.848-1.258-.375-.4-.85-.733-1.37-.97-.53-.24-1.13-.368-1.747-.368-.615 0-1.19.117-1.713.35-.517.233-.968.553-1.34.955-.366.397-.714.866-.92 1.396-.205.528-.367 1.097-.367 1.69v.032c0 .595.162 1.164.368 1.693.204.53.527 1.002.9 1.405.376.408.847.732 1.37.965.525.233 1.11.35 1.725.35.616 0 1.196-.117 1.717-.35.516-.233.967-.557 1.338-.952.337-.36.685-.7.9-1.265h3.8c-.098.565-.248 1.093-.448 1.61zm14.32-11.356h4.544c1.243 0 2.374.194 3.39.6 1.018.408 1.882.963 2.594 1.675.712.71 1.265 1.585 1.66 2.58.155.387.278.795.372 1.22h-12.56V4.236zm12.188 11.315c-.396.983-.95 1.833-1.66 2.545-.713.712-1.577 1.26-2.594 1.655-1.016.396-2.147.587-3.39.587h-4.543v-6.357h12.637c-.1.565-.25 1.07-.45 1.57z"/></g></symbol></svg>