<?xml version="1.0" encoding="UTF-8" standalone="no"?><svg xmlns="http://www.w3.org/2000/svg" xmlns:xlink="http://www.w3.org/1999/xlink"><symbol viewBox="0 0 110 102" id="icon_brush"><title>icon_brush</title><path d="M18.715 33.608l-7.55 3.153a.502.502 0 0 0 0 .927l7.55 3.153c.122.05.218.148.27.27l3.153 7.548a.5.5 0 0 0 .924 0l3.154-7.55a.504.504 0 0 1 .27-.268l7.548-3.153a.502.502 0 0 0 0-.926l-7.548-3.152a.503.503 0 0 1-.27-.27l-3.154-7.548a.5.5 0 0 0-.924 0l-3.153 7.548a.503.503 0 0 1-.27.27zm13.592 20.564l-5.71 2.386a.33.33 0 0 0 0 .607l5.71 2.385a.33.33 0 0 1 .177.177l2.386 5.712a.33.33 0 0 0 .606 0l2.385-5.713a.333.333 0 0 1 .178-.177l5.713-2.385a.33.33 0 0 0 0-.607l-5.712-2.386a.33.33 0 0 1-.177-.177l-2.384-5.71a.33.33 0 0 0-.606 0l-2.386 5.71a.327.327 0 0 1-.177.177zM86.094 81.67l-4.355 1.82a.25.25 0 0 0 0 .462l4.354 1.82c.062.025.11.073.135.134l1.82 4.355a.25.25 0 0 0 .462 0l1.82-4.354a.255.255 0 0 1 .134-.135l4.355-1.818a.25.25 0 0 0 0-.463l-4.354-1.82a.255.255 0 0 1-.135-.135l-1.818-4.355a.25.25 0 0 0-.463 0l-1.82 4.355a.255.255 0 0 1-.136.135zM4.51 49.848l-4.356 1.82a.25.25 0 0 0 0 .462l4.356 1.82c.06.025.11.073.134.134l1.82 4.355a.25.25 0 0 0 .463 0l1.818-4.356a.255.255 0 0 1 .135-.135l4.356-1.82a.25.25 0 0 0 0-.463l-4.356-1.82a.255.255 0 0 1-.135-.134l-1.818-4.355a.25.25 0 0 0-.464 0l-1.82 4.355a.255.255 0 0 1-.133.135zm50.254 40.664c3.972-5.674 3.973-12.53 0-15.31-3.97-2.78-10.41-.436-14.384 5.238-1.8 2.57-2.773 5.464-1.692 8.59 1.586 4.586-1.453 9.542-1.742 12.683-.17 1.837 13.845-5.527 17.818-11.2zm13.834-24.476l-10.112-7.08L52.89 69.09c-.62 1.12-.318 2.567.73 3.302l4.014 2.81c1.05.735 2.513.524 3.355-.442l7.608-8.724zm4.518-33.564c.085-.156.117-.2.235-.335L100.69.827c.843-.965 2.24-1.09 3.29-.353l4.015 2.81a2.51 2.51 0 0 1 .758 3.266L88.643 42.998c-.086.157-.044.098-.163.233L69.39 65.06l-10.26-7.184 13.986-25.404z" fill="#888" fill-rule="evenodd"/></symbol><symbol viewBox="0 0 71 102" id="icon_f"><title>icon_f</title><path d="M0 0v102h17.857V56.714H64v-14.57H17.857V15.427h52.57V0H0z" fill="#888" fill-rule="evenodd"/></symbol><symbol viewBox="0 0 84 104" id="icon_layout"><title>icon_layout</title><g transform="translate(1 1)" fill="none" fill-rule="evenodd"><path d="M0 100V2a2 2 0 0 1 2-2h78a2 2 0 0 1 2 2v98a2 2 0 0 1-2 2H2a2 2 0 0 1-2-2z" stroke="#888" stroke-width="2"/><path d="M62 96h14V30H62v66zM6 96h54V30H6v66zm0-68h70V6H6v22z" fill="#888"/></g></symbol><symbol viewBox="0 0 44 103" id="icon_next"><title>icon_slideRight</title><path d="M1.066 1.26l40.808 50.024-40.808 50.684" stroke-width="2" stroke="#000" fill="none" fill-rule="evenodd"/></symbol><symbol viewBox="0 0 44 103" id="icon_prev"><title>icon_slideLeft</title><path d="M42.808 1.26L2 51.283l40.808 50.684" stroke-width="2" stroke="#000" fill="none" fill-rule="evenodd"/></symbol><symbol viewBox="0 0 137 102" id="icon_sass"><title>icon_sass</title><path d="M96.216 77.08c-.432-.308-.36-1.302 1.06-4.395.557-1.215 1.83-3.26 4.04-5.213.257.803.413 1.574.41 2.292-.03 4.785-3.445 6.573-5.51 7.315M78.04 81.22c-.578.303-1.11.493-1.356.346-.182-.108.24-.506.24-.506s2.95-3.175 4.112-4.62a152.8 152.8 0 0 0 2.314-2.956c.007.112.01.223.01.332-.007 3.804-3.68 6.372-5.32 7.404M54.445 69.964c-1.366 3.328-4.224 11.844-5.962 11.388-1.494-.39-2.403-6.866-.3-13.236 1.06-3.207 3.323-7.038 4.652-8.526 2.14-2.393 4.495-3.176 5.068-2.205.728 1.236-2.603 10.492-3.458 12.58m-28.56 19.414c-3.92 4.275-9.396 5.892-11.744 4.53-2.536-1.47-1.532-7.766 3.28-12.305 2.93-2.765 6.716-5.312 9.227-6.88.57-.345 1.41-.85 2.43-1.462l.265-.15-.004-.006c.198-.117.4-.24.608-.363 1.75 6.46.053 12.146-4.06 16.635m91.22-30.756c-4.755.026-8.874 1.167-12.327 2.87-1.262-2.52-2.54-4.74-2.755-6.387-.25-1.925-.54-3.073-.238-5.365.302-2.294 1.63-5.54 1.61-5.783-.02-.246-.298-1.413-3.04-1.433-2.744-.02-5.09.528-5.367 1.253a27.037 27.037 0 0 0-1.133 4.053c-.48 2.488-5.477 11.358-8.314 16-.928-1.81-1.717-3.41-1.88-4.67-.25-1.926-.542-3.075-.24-5.368.303-2.292 1.63-5.54 1.61-5.782-.02-.244-.297-1.412-3.04-1.432-2.744-.02-5.09.528-5.367 1.253-.276.724-.57 2.417-1.132 4.054-.562 1.638-7.204 16.436-8.943 20.27a118.31 118.31 0 0 1-2.2 4.6l-.005-.008-.09.19c-.468.914-.745 1.42-.745 1.42s.004.006.008.018c-.37.67-.766 1.293-.962 1.293-.136 0-.41-1.783.06-4.232.988-5.134 3.363-13.14 3.34-13.415-.013-.14.44-1.536-1.55-2.266-1.937-.71-2.627.473-2.804.477-.17.004-.298.418-.298.418s2.158-9.002-4.114-9.002c-3.92 0-9.352 4.287-12.028 8.175-1.69.92-5.303 2.893-9.137 5l-4.4 2.42c-.098-.107-.194-.213-.294-.32-7.602-8.11-21.658-13.85-21.06-24.756.216-3.965 1.594-14.405 27.007-27.068C58.095 4.728 74.76 7.582 77.64 13.91c4.115 9.038-8.906 25.835-30.525 28.26-8.238.923-12.575-2.27-13.653-3.458-1.137-1.252-1.306-1.31-1.73-1.074-.69.382-.253 1.488 0 2.146.645 1.68 3.295 4.66 7.81 6.14 3.974 1.306 13.644 2.02 25.34-2.503C77.98 38.355 88.208 24.26 85.204 12.48 82.15.495 62.28-3.442 43.478 3.238 32.288 7.21 20.172 13.452 11.46 21.6 1.106 31.288-.546 39.72.135 43.243c2.417 12.52 19.67 20.67 26.58 26.713l-.95.524C22.3 72.192 9.146 79.075 5.856 86.347c-3.732 8.25.594 14.168 3.458 14.966 8.873 2.468 17.978-1.973 22.872-9.272 4.892-7.296 4.295-16.798 2.05-21.135-.028-.055-.06-.107-.088-.16.894-.53 1.805-1.07 2.71-1.6 1.762-1.035 3.493-2 4.995-2.817-.84 2.302-1.456 5.063-1.776 9.048-.377 4.682 1.543 10.735 4.053 13.116 1.106 1.05 2.436 1.074 3.28 1.074 2.92 0 4.255-2.432 5.723-5.307 1.8-3.525 3.4-7.63 3.4-7.63s-2.006 11.09 3.457 11.09c1.99 0 3.993-2.582 4.884-3.898a.75.75 0 0 1 .004.022s.053-.086.154-.258c.207-.316.325-.517.325-.517l.01-.057c.798-1.39 2.574-4.558 5.236-9.782 3.438-6.747 6.735-15.202 6.735-15.202s.31 2.068 1.314 5.486c.59 2.01 1.847 4.234 2.838 6.366-.798 1.107-1.288 1.742-1.288 1.742l.014.034a66.164 66.164 0 0 1-2.1 2.65c-2.715 3.232-5.947 6.923-6.38 7.988-.51 1.255-.39 2.178.595 2.92.72.544 2.003.628 3.34.538 2.438-.165 4.155-.77 5-1.137 1.322-.467 2.86-1.2 4.3-2.26 2.664-1.96 4.27-4.76 4.115-8.468-.085-2.043-.738-4.07-1.562-5.982.24-.348.484-.697.727-1.052 4.197-6.137 7.452-12.88 7.452-12.88s.307 2.068 1.312 5.486c.51 1.73 1.512 3.617 2.414 5.468-3.945 3.207-6.393 6.933-7.243 9.377-1.57 4.52-.34 6.57 1.968 7.035 1.046.212 2.523-.267 3.634-.738a16.826 16.826 0 0 0 4.592-2.363c2.663-1.958 5.223-4.698 5.07-8.407-.072-1.69-.53-3.364-1.15-4.975 3.344-1.392 7.676-2.168 13.193-1.523 11.834 1.382 14.156 8.77 13.71 11.864-.44 3.093-2.924 4.792-3.754 5.306-.83.514-1.082.69-1.013 1.073.1.553.484.532 1.193.413.974-.164 6.214-2.516 6.438-8.224.286-7.25-6.658-15.21-18.96-15.146" fill="#888" fill-rule="evenodd"/></symbol><symbol viewBox="0 0 96 92" id="icon_star"><title>icon_star</title><path d="M35.568 30.3L46.87 1.273c.675-1.73 3.14-1.688 3.752.065l10.283 29.4a2 2 0 0 0 1.774 1.338l31.096 1.78c1.855.106 2.575 2.463 1.097 3.588L70.088 56.312a1.998 1.998 0 0 0-.723 2.1l7.916 30.125c.473 1.796-1.545 3.21-3.072 2.152l-25.6-17.744a2.002 2.002 0 0 0-2.222-.038L20.182 89.746c-1.563 1.004-3.532-.48-2.997-2.258l8.963-29.83a2.003 2.003 0 0 0-.65-2.125L1.39 35.813c-1.44-1.175-.637-3.505 1.22-3.546l31.14-.694a2 2 0 0 0 1.82-1.274" fill="#888" fill-rule="evenodd"/></symbol><symbol viewBox="0 0 104 84" id="icon_widget"><title>icon_widget</title><g transform="translate(1 1)" fill="none" fill-rule="evenodd"><path d="M2 0h98a2 2 0 0 1 2 2v78a2 2 0 0 1-2 2H2a2 2 0 0 1-2-2V2a2 2 0 0 1 2-2z" stroke="#888" stroke-width="2"/><path d="M63.5 70.96h30v-26h-30v26zM73 35h20v-6H73v6zm-6.438-5.95a3 3 0 1 0 0 6 3 3 0 0 0 0-6zM73 26h20v-6H73v6zm-6.438-5.95a3 3 0 1 0 0 6 3 3 0 0 0 0-6zM73 17h20v-6H73v6zm-3.438-2.95a3 3 0 1 1-6 0 3 3 0 0 1 6 0z" fill="#888"/></g></symbol></svg>