<?xml version="1.0" encoding="UTF-8" standalone="no"?>
<svg width="110px" height="102px" viewBox="0 0 110 102" version="1.1" xmlns="http://www.w3.org/2000/svg" xmlns:xlink="http://www.w3.org/1999/xlink">
    <!-- Generator: Sketch 3.6.1 (26313) - http://www.bohemiancoding.com/sketch -->
    <title>icon_brush</title>
    <desc>Created with Sketch.</desc>
    <defs></defs>
    <g id="Page-1" stroke="none" stroke-width="1" fill="none" fill-rule="evenodd">
        <g id="index" transform="translate(-1082.000000, -3187.000000)" fill="#888888">
            <g id="section-03" transform="translate(98.000000, 2496.000000)">
                <path d="M1002.7145,724.607829 L995.1655,727.760829 C994.7545,727.932829 994.7545,728.514829 995.1655,728.686829 L1002.7145,731.839829 C1002.8365,731.890829 1002.9335,731.987829 1002.9845,732.108829 L1006.1375,739.657829 C1006.3085,740.068829 1006.8915,740.068829 1007.0625,739.657829 L1010.2155,732.108829 C1010.2665,731.987829 1010.3635,731.890829 1010.4855,731.839829 L1018.0345,728.686829 C1018.4455,728.514829 1018.4455,727.932829 1018.0345,727.760829 L1010.4855,724.607829 C1010.3635,724.556829 1010.2665,724.459829 1010.2155,724.337829 L1007.0625,716.789829 C1006.8915,716.378829 1006.3085,716.378829 1006.1375,716.789829 L1002.9845,724.337829 C1002.9335,724.459829 1002.8365,724.556829 1002.7145,724.607829 L1002.7145,724.607829 Z M1016.3065,745.171829 L1010.5955,747.557829 C1010.3255,747.669829 1010.3255,748.051829 1010.5955,748.164829 L1016.3065,750.549829 C1016.3865,750.583829 1016.4505,750.646829 1016.4835,750.726829 L1018.8695,756.438829 C1018.9815,756.707829 1019.3635,756.707829 1019.4765,756.438829 L1021.8615,750.726829 C1021.8955,750.646829 1021.9585,750.583829 1022.0385,750.549829 L1027.7505,748.164829 C1028.0195,748.051829 1028.0195,747.669829 1027.7505,747.557829 L1022.0385,745.171829 C1021.9585,745.138829 1021.8955,745.074829 1021.8615,744.994829 L1019.4765,739.283829 C1019.3635,739.013829 1018.9815,739.013829 1018.8695,739.283829 L1016.4835,744.994829 C1016.4505,745.074829 1016.3865,745.138829 1016.3065,745.171829 L1016.3065,745.171829 Z M1070.0945,772.669829 L1065.7395,774.488829 C1065.5335,774.574829 1065.5335,774.865829 1065.7395,774.951829 L1070.0945,776.770829 C1070.1555,776.796829 1070.2035,776.844829 1070.2295,776.905829 L1072.0485,781.260829 C1072.1345,781.466829 1072.4255,781.466829 1072.5115,781.260829 L1074.3305,776.905829 C1074.3565,776.844829 1074.4045,776.796829 1074.4655,776.770829 L1078.8205,774.951829 C1079.0265,774.865829 1079.0265,774.574829 1078.8205,774.488829 L1074.4655,772.669829 C1074.4045,772.643829 1074.3565,772.595829 1074.3305,772.534829 L1072.5115,768.179829 C1072.4255,767.973829 1072.1345,767.973829 1072.0485,768.179829 L1070.2295,772.534829 C1070.2035,772.595829 1070.1555,772.643829 1070.0945,772.669829 L1070.0945,772.669829 Z M988.5095,740.847829 L984.1545,742.666829 C983.9485,742.752829 983.9485,743.043829 984.1545,743.129829 L988.5095,744.948829 C988.5705,744.974829 988.6185,745.022829 988.6445,745.083829 L990.4635,749.438829 C990.5495,749.644829 990.8405,749.644829 990.9265,749.438829 L992.7455,745.083829 C992.7715,745.022829 992.8195,744.974829 992.8805,744.948829 L997.2355,743.129829 C997.4415,743.043829 997.4415,742.752829 997.2355,742.666829 L992.8805,740.847829 C992.8195,740.821829 992.7715,740.773829 992.7455,740.712829 L990.9265,736.357829 C990.8405,736.151829 990.5495,736.151829 990.4635,736.357829 L988.6445,740.712829 C988.6185,740.773829 988.5705,740.821829 988.5095,740.847829 L988.5095,740.847829 Z M1038.7635,781.511829 C1042.7365,775.837829 1042.7375,768.982829 1038.7655,766.201829 C1034.7935,763.420829 1028.3535,765.765829 1024.3795,771.439829 C1022.5795,774.010829 1021.6075,776.903829 1022.6885,780.030829 C1024.2735,784.615829 1021.2345,789.571829 1020.9455,792.712829 C1020.7765,794.549829 1034.7905,787.185829 1038.7635,781.511829 L1038.7635,781.511829 Z M1052.5975,757.035829 L1042.4855,749.955829 L1036.8905,760.088829 C1036.2705,761.210829 1036.5715,762.656829 1037.6215,763.391829 L1041.6345,766.201829 C1042.6845,766.936829 1044.1465,766.725829 1044.9895,765.759829 L1052.5975,757.035829 Z M1057.1155,723.471829 C1057.2015,723.315829 1057.2325,723.271829 1057.3505,723.136829 L1084.6875,691.827829 C1085.5305,690.861829 1086.9295,690.737829 1087.9795,691.473829 L1091.9925,694.282829 C1093.0425,695.018829 1093.3695,696.427829 1092.7505,697.549829 L1072.6425,733.997829 C1072.5565,734.154829 1072.5975,734.095829 1072.4795,734.230829 L1053.3905,756.059829 L1043.1315,748.875829 L1057.1155,723.471829 Z" id="icon_brush"></path>
            </g>
        </g>
    </g>
</svg>