<?xml version="1.0" encoding="UTF-8" standalone="no"?>
<svg width="104px" height="84px" viewBox="0 0 104 84" version="1.1" xmlns="http://www.w3.org/2000/svg" xmlns:xlink="http://www.w3.org/1999/xlink">
    <!-- Generator: Sketch 3.6.1 (26313) - http://www.bohemiancoding.com/sketch -->
    <title>icon_widget</title>
    <desc>Created with Sketch.</desc>
    <defs></defs>
    <g id="Page-1" stroke="none" stroke-width="1" fill="none" fill-rule="evenodd">
        <g id="index" transform="translate(-235.000000, -3196.000000)">
            <g id="section-03" transform="translate(98.000000, 2496.000000)">
                <g id="icon_widget" transform="translate(138.000000, 701.000000)">
                    <path d="M2,0 L100,0 C101.105,0 102,0.895 102,2 L102,80 C102,81.105 101.105,82 100,82 L2,82 C0.895,82 0,81.105 0,80 L0,2 C0,0.895 0.895,0 2,0 L2,0 Z" id="Stroke-1" stroke="#888888" stroke-width="2"></path>
                    <path d="M63.5,70.961 L93.5,70.961 L93.5,44.961 L63.5,44.961 L63.5,70.961 Z" id="Fill-3" fill="#888888"></path>
                    <path d="M73,35 L93,35 L93,29 L73,29 L73,35 Z M66.562,29.051 C64.905,29.051 63.562,30.394 63.562,32.051 C63.562,33.708 64.905,35.051 66.562,35.051 C68.219,35.051 69.562,33.708 69.562,32.051 C69.562,30.394 68.219,29.051 66.562,29.051 L66.562,29.051 Z M73,26 L93,26 L93,20 L73,20 L73,26 Z M66.562,20.051 C64.905,20.051 63.562,21.394 63.562,23.051 C63.562,24.708 64.905,26.051 66.562,26.051 C68.219,26.051 69.562,24.708 69.562,23.051 C69.562,21.394 68.219,20.051 66.562,20.051 L66.562,20.051 Z M73,17 L93,17 L93,11 L73,11 L73,17 Z M69.562,14.051 C69.562,15.708 68.219,17.051 66.562,17.051 C64.905,17.051 63.562,15.708 63.562,14.051 C63.562,12.394 64.905,11.051 66.562,11.051 C68.219,11.051 69.562,12.394 69.562,14.051 L69.562,14.051 Z" id="Fill-5" fill="#888888"></path>
                </g>
            </g>
        </g>
    </g>
</svg>