<?xml version="1.0" encoding="UTF-8" standalone="no"?>
<svg width="114px" height="34px" viewBox="0 0 114 34" version="1.1" xmlns="http://www.w3.org/2000/svg" xmlns:xlink="http://www.w3.org/1999/xlink" xmlns:sketch="http://www.bohemiancoding.com/sketch/ns">
    <!-- Generator: Sketch 3.3.3 (12072) - http://www.bohemiancoding.com/sketch -->
    <title>icon_exp</title>
    <desc>Created with Sketch.</desc>
    <defs></defs>
    <g id="front" stroke="none" stroke-width="1" fill="none" fill-rule="evenodd" sketch:type="MSPage">
        <g id="Desktop" sketch:type="MSArtboardGroup" transform="translate(-642.000000, -1359.000000)" fill="#222222">
            <g id="icon_exp" sketch:type="MSLayerGroup" transform="translate(642.000000, 1359.000000)">
                <path d="M43.9841018,0.407498182 L55.5337527,11.9571491 L51.0732436,16.4176582 L39.5235927,4.86800727 L39.6873382,0.571243636 L43.9841018,0.407498182" id="Fill-1" sketch:type="MSShapeGroup"></path>
                <path d="M55.5337527,22.06584 L43.9841018,33.6154909 L39.5235927,29.1549818 L51.0732436,17.6053309 L55.3700073,17.7690764 L55.5337527,22.06584" id="Fill-2" sketch:type="MSShapeGroup"></path>
                <path d="M70.0503055,0.303447273 L58.5010691,11.8526836 L62.9611636,16.3131927 L74.5108145,4.76395636 L74.3470691,0.467192727 L70.0503055,0.303447273" id="Fill-3" sketch:type="MSShapeGroup"></path>
                <path d="M58.5010691,21.9613745 L70.0503055,33.5110255 L74.5108145,29.0505164 L62.9611636,17.50128 L58.6644,17.6646109 L58.5010691,21.9613745" id="Fill-4" sketch:type="MSShapeGroup"></path>
                <path d="M0.316712727,0.407498182 L32.8742836,0.407498182 L32.8742836,6.71563636 L0.316712727,6.71563636 L0.316712727,0.407498182 Z" id="Fill-5" sketch:type="MSShapeGroup"></path>
                <path d="M8.21629091,13.7533745 L32.8282691,13.7533745 L32.8282691,20.0615127 L8.21629091,20.0615127 L8.21629091,13.7533745 Z" id="Fill-6" sketch:type="MSShapeGroup"></path>
                <path d="M0.316712727,27.3073527 L32.8962545,27.3073527 L32.8962545,33.6154909 L0.316712727,33.6154909 L0.316712727,27.3073527 Z" id="Fill-7" sketch:type="MSShapeGroup"></path>
                <path d="M6.62485091,6.77533091 L6.62485091,27.8607709 L0.316712727,27.8607709 L0.316712727,10.9597527 L6.62485091,6.77533091" id="Fill-8" sketch:type="MSShapeGroup"></path>
                <path d="M80.8716,0.407498182 L107.825345,0.407498182 L107.825345,6.71563636 L80.8716,6.71563636 L80.8716,0.407498182 Z" id="Fill-9" sketch:type="MSShapeGroup"></path>
                <path d="M88.1340218,16.1656145 L107.824931,16.1656145 L107.824931,22.4737527 L88.1340218,22.4737527 L88.1340218,16.1656145 Z" id="Fill-10" sketch:type="MSShapeGroup"></path>
                <path d="M107.491222,0.407498182 L113.79936,0.407498182 L113.79936,22.4455636 L107.491222,22.4455636 L107.491222,0.407498182 Z" id="Fill-11" sketch:type="MSShapeGroup"></path>
                <path d="M87.4939636,16.1656145 L87.4939636,33.6175636 L81.1858255,33.6175636 L81.1858255,21.6459055 L87.4939636,16.1656145" id="Fill-12" sketch:type="MSShapeGroup"></path>
            </g>
        </g>
    </g>
</svg>