<?xml version="1.0" encoding="UTF-8" standalone="no"?>
<svg width="18px" height="17px" viewBox="0 0 18 17" version="1.1" xmlns="http://www.w3.org/2000/svg" xmlns:xlink="http://www.w3.org/1999/xlink" xmlns:sketch="http://www.bohemiancoding.com/sketch/ns">
    <!-- Generator: Sketch 3.3.3 (12072) - http://www.bohemiancoding.com/sketch -->
    <title>icon_fb_black.svg</title>
    <desc>Created with Sketch.</desc>
    <defs></defs>
    <g id="front" stroke="none" stroke-width="1" fill="none" fill-rule="evenodd" sketch:type="MSPage">
        <g id="Desktop" sketch:type="MSArtboardGroup" transform="translate(-473.000000, -362.000000)" fill="#0A0B09">
            <g id="icon_fb_black.svg" sketch:type="MSLayerGroup" transform="translate(473.000000, 362.250000)">
                <path d="M1.77894737,15.3448421 C2.38357895,15.9301053 3.08336842,16.2332632 3.93389474,16.2332632 L9.66105263,16.2332632 L9.66105263,9.82484211 L7.29810526,9.82484211 L7.29810526,7.46273684 L9.66105263,7.46273684 L9.66105263,5.70442105 C9.66105263,4.70315789 9.944,3.90905263 10.5301053,3.34231579 C11.0976842,2.77473684 11.8724211,2.49178947 12.8172632,2.49178947 C13.4218947,2.49178947 14.0458947,2.52884211 14.7263158,2.58610526 L14.7263158,4.75957895 L13.3275789,4.77894737 C12.8551579,4.77894737 12.5149474,4.87326316 12.3263158,5.08126316 C12.1183158,5.28926316 12.0231579,5.57221053 12.0231579,5.95031579 L12.0231579,7.46273684 L14.4804211,7.46273684 L14.1595789,9.82484211 L12.0231579,9.82484211 L12.0231579,16.2332632 L14.0458947,16.2332632 C14.8778947,16.2332632 15.5962105,15.9301053 16.2008421,15.3448421 C16.7869474,14.7587368 17.0892632,14.0404211 17.0892632,13.1898947 L17.0892632,3.07705263 C17.0892632,2.24589474 16.7869474,1.52757895 16.2008421,0.941473684 C15.5962105,0.355368421 14.8964211,0.0530526316 14.0458947,0.0530526316 L3.93389474,0.0530526316 C3.08336842,0.0530526316 2.38357895,0.355368421 1.77894737,0.941473684 C1.19284211,1.52757895 0.890526316,2.24589474 0.890526316,3.07705263 L0.890526316,13.1898947 C0.890526316,14.0404211 1.19284211,14.7587368 1.77894737,15.3448421" id="Fill-33" sketch:type="MSShapeGroup"></path>
            </g>
        </g>
    </g>
</svg>