<?xml version="1.0" encoding="UTF-8" standalone="no"?>
<svg width="7px" height="15px" viewBox="0 0 7 15" version="1.1" xmlns="http://www.w3.org/2000/svg" xmlns:xlink="http://www.w3.org/1999/xlink" xmlns:sketch="http://www.bohemiancoding.com/sketch/ns">
    <!-- Generator: Sketch 3.3.3 (12072) - http://www.bohemiancoding.com/sketch -->
    <title>icon_fb</title>
    <desc>Created with Sketch.</desc>
    <defs></defs>
    <g id="single" stroke="none" stroke-width="1" fill="none" fill-rule="evenodd" sketch:type="MSPage">
        <g id="Desktop" sketch:type="MSArtboardGroup" transform="translate(-148.000000, -593.000000)" fill="#3B5998">
            <g id="btn_fb" sketch:type="MSLayerGroup" transform="translate(133.000000, 587.000000)">
                <path d="M19.2,11.8647059 L19.2,10.1647059 C19.2,10.1647059 19.2,10.1647059 19.2,10.0647059 C19.2,9.36470588 19.3,9.06470588 20.2,9.06470588 L21.7,9.06470588 L21.8,6.86470588 C21.8,6.86470588 21.1,6.76470588 20.1,6.76470588 C17.8,6.76470588 16.7,8.26470588 16.7,9.76470588 L16.7,11.7647059 L15,11.7647059 L15,14.1647059 L16.7,14.1647059 L16.7,20.7647059 L19.2,20.7647059 L19.2,14.1647059 L21.7,14.1647059 L21.8,11.7647059 L19.2,11.7647059 L19.2,11.8647059 L19.2,11.8647059 Z" id="icon_fb" sketch:type="MSShapeGroup"></path>
            </g>
        </g>
    </g>
</svg>