<?xml version="1.0" encoding="UTF-8" standalone="no"?>
<svg width="59px" height="59px" viewBox="0 0 59 59" version="1.1" xmlns="http://www.w3.org/2000/svg" xmlns:xlink="http://www.w3.org/1999/xlink" xmlns:sketch="http://www.bohemiancoding.com/sketch/ns">
    <!-- Generator: Sketch 3.3.3 (12072) - http://www.bohemiancoding.com/sketch -->
    <title>icon_design</title>
    <desc>Created with Sketch.</desc>
    <defs></defs>
    <g id="front" stroke="none" stroke-width="1" fill="none" fill-rule="evenodd" sketch:type="MSPage">
        <g id="Desktop" sketch:type="MSArtboardGroup" transform="translate(-153.000000, -1108.000000)" fill="#0A0B09">
            <g id="icon_design" sketch:type="MSLayerGroup" transform="translate(152.000000, 1109.465839)">
                <path d="M1.8,49.4857143 L8.91714286,56.5428571 C9.30285714,56.9914286 9.88,57.1828571 10.52,57.1828571 C11.1628571,57.1828571 11.6742857,56.9914286 12.1228571,56.5428571 L58.1057143,10.56 C58.5542857,10.1114286 58.8114286,9.59714286 58.8114286,8.95714286 C58.8114286,8.31428571 58.5542857,7.73714286 58.1057143,7.28857143 L51.0514286,0.234285714 C50.6028571,-0.214285714 50.0885714,-0.405714286 49.4485714,-0.405714286 C48.8057143,-0.405714286 48.2285714,-0.214285714 47.8428571,0.234285714 L1.8,46.28 C1.34857143,46.6657143 1.15714286,47.2428571 1.15714286,47.8828571 C1.15714286,48.5257143 1.34857143,49.0371429 1.8,49.4857143 L1.8,49.4857143 Z M8.27428571,4.27428571 L9.36571429,7.80285714 L10.4571429,4.27428571 L13.92,3.18571429 L10.4571429,2.16 L9.36571429,-1.36857143 L8.27428571,2.16 L4.74857143,3.18571429 L8.27428571,4.27428571 L8.27428571,4.27428571 Z M18.6657143,12.2285714 L20.78,19.2171429 L22.9628571,12.2285714 L29.9514286,10.0457143 L22.9628571,7.93142857 L20.78,0.94 L18.6657143,7.93142857 L11.6742857,10.0457143 L18.6657143,12.2285714 L18.6657143,12.2285714 Z M31.1714286,4.27428571 L32.26,7.80285714 L33.3514286,4.27428571 L36.8142857,3.18571429 L33.3514286,2.16 L32.26,-1.36857143 L31.1714286,2.16 L27.7085714,3.18571429 L31.1714286,4.27428571 L31.1714286,4.27428571 Z M49.4485714,5.10857143 L53.2942857,8.95714286 L42.7771429,19.4085714 L38.9314286,15.5628571 L49.4485714,5.10857143 L49.4485714,5.10857143 Z M54.0657143,27.1685714 L55.1542857,30.6971429 L56.2457143,27.1685714 L59.7714286,26.08 L56.2457143,25.0542857 L55.1542857,21.5257143 L54.0657143,25.0542857 L50.6028571,26.08 L54.0657143,27.1685714 L54.0657143,27.1685714 Z" id="Fill-221" sketch:type="MSShapeGroup"></path>
            </g>
        </g>
    </g>
</svg>