<?xml version="1.0" encoding="UTF-8" standalone="no"?>
<svg width="14px" height="14px" viewBox="0 0 14 14" version="1.1" xmlns="http://www.w3.org/2000/svg" xmlns:xlink="http://www.w3.org/1999/xlink" xmlns:sketch="http://www.bohemiancoding.com/sketch/ns">
    <!-- Generator: Sketch 3.3.3 (12072) - http://www.bohemiancoding.com/sketch -->
    <title>icon_fb</title>
    <desc>Created with Sketch.</desc>
    <defs></defs>
    <g id="single" stroke="none" stroke-width="1" fill="none" fill-rule="evenodd" sketch:type="MSPage">
        <g id="Desktop" sketch:type="MSArtboardGroup" transform="translate(-146.000000, -596.000000)" fill="#3C5A96">
            <path d="M158,596 L148,596 C146.896,596 146,596.896 146,598 L146,608 C146,609.104 146.896,610 148,610 L153.655,610 L153.655,604.443 L151.668,604.443 L151.668,602.417 L153.655,602.417 L153.655,600.567 C153.655,599.207 154.534,597.958 156.562,597.958 C157.381,597.958 157.988,598.036 157.988,598.036 L157.942,599.929 C157.942,599.929 157.322,599.924 156.645,599.924 C155.916,599.924 155.797,600.261 155.797,600.818 L155.797,600.912 L155.797,600.914 L155.797,602.417 L158,602.417 L157.903,604.444 L155.798,604.444 L155.798,610 L158,610 C159.104,610 160,609.104 160,608 L160,598 C160,596.896 159.104,596 158,596 L158,596 Z" id="icon_fb" sketch:type="MSShapeGroup"></path>
        </g>
    </g>
</svg>