<?xml version="1.0" encoding="UTF-8" standalone="no"?>
<svg width="14px" height="12px" viewBox="0 0 14 12" version="1.1" xmlns="http://www.w3.org/2000/svg" xmlns:xlink="http://www.w3.org/1999/xlink" xmlns:sketch="http://www.bohemiancoding.com/sketch/ns">
    <!-- Generator: Sketch 3.3.3 (12072) - http://www.bohemiancoding.com/sketch -->
    <title>icon_hatena</title>
    <desc>Created with Sketch.</desc>
    <defs></defs>
    <g id="single" stroke="none" stroke-width="1" fill="none" fill-rule="evenodd" sketch:type="MSPage">
        <g id="Desktop" sketch:type="MSArtboardGroup" transform="translate(-229.000000, -598.000000)" fill="#0071C5">
            <g id="btn_hatena" sketch:type="MSLayerGroup" transform="translate(216.000000, 588.000000)">
                <g id="icon_hatena" transform="translate(13.000000, 10.000000)" sketch:type="MSShapeGroup">
                    <rect id="Rectangle-path" x="10.9317978" y="-1.92411631e-16" width="2.74628092" height="7.83889894"></rect>
                    <path d="M8.43881467,6.2524551 C7.97221354,5.73252813 7.33230343,5.439236 6.50575286,5.37257869 C7.2389832,5.17260678 7.77224163,4.87931464 8.11885961,4.47937082 C8.45214613,4.09275846 8.62545512,3.55950003 8.62545512,2.90625845 C8.62545512,2.38633148 8.50547197,1.91973035 8.2921686,1.51978653 C8.06553377,1.11984271 7.73224725,0.799887646 7.3056405,0.559921353 C6.9323596,0.34661798 6.47908994,0.213303372 5.95916297,0.119983147 C5.439236,0.0399943823 4.5193652,0 3.19955059,0 L0,0 L0,11.6516967 L3.29287081,11.6516967 C4.61268543,11.6516967 5.5725506,11.6117023 6.15913488,11.5183821 C6.74571915,11.4250619 7.22565174,11.2784158 7.62559556,11.0651124 C8.11885961,10.8118147 8.49214051,10.4385338 8.74543827,9.97193266 C9.01206748,9.49200007 9.13205063,8.94541018 9.13205063,8.33216298 C9.13205063,7.46561803 8.89208434,6.77238207 8.43881467,6.2524551 L8.43881467,6.2524551 L8.43881467,6.2524551 Z M2.94625283,2.59963485 L3.62615733,2.59963485 C4.41271352,2.59963485 4.94597195,2.69295508 5.21260116,2.86626407 C5.47923038,3.03957306 5.62587645,3.34619665 5.62587645,3.78613486 C5.62587645,4.2127416 5.47923038,4.50603374 5.18593824,4.67934273 C4.8926461,4.85265172 4.35938767,4.93264049 3.57283149,4.93264049 L2.93292137,4.93264049 L2.94625283,2.59963485 L2.94625283,2.59963485 Z M5.65253937,9.2786967 C5.34591577,9.46533715 4.81265734,9.55865738 4.05276408,9.55865738 L2.94625283,9.55865738 L2.94625283,7.01234837 L4.10608992,7.01234837 C4.87931464,7.01234837 5.41257307,7.10566859 5.69253375,7.3056405 C5.98582589,7.50561242 6.1191405,7.83889894 6.1191405,8.33216298 C6.1191405,8.77210119 5.95916297,9.09205625 5.65253937,9.2786967 L5.65253937,9.2786967 L5.65253937,9.2786967 Z" id="Shape"></path>
                    <path d="M12.3715956,8.6654495 C11.5050506,8.6654495 10.7984832,9.37201692 10.7984832,10.2385619 C10.7984832,11.1051068 11.5050506,11.8116742 12.3715956,11.8116742 C13.2381405,11.8116742 13.944708,11.1051068 13.944708,10.2385619 C13.944708,9.37201692 13.2381405,8.6654495 12.3715956,8.6654495 L12.3715956,8.6654495 L12.3715956,8.6654495 Z" id="Shape"></path>
                    <path d="M7.93221916,5.86584274 L0,5.86584274 L0,11.6916911 L3.29287081,11.6916911 C4.61268543,11.6916911 5.5725506,11.6516967 6.15913488,11.5583765 C6.74571915,11.4650563 7.22565174,11.3184102 7.62559556,11.1051068 C8.11885961,10.8518091 8.49214051,10.4785282 8.74543827,10.011927 C9.01206748,9.53199445 9.13205063,8.98540456 9.13205063,8.37215737 C9.13205063,7.50561242 8.9054158,6.81237646 8.43881467,6.29244949 C8.27883714,6.1191405 8.11885961,5.98582589 7.93221916,5.86584274 L7.93221916,5.86584274 L7.93221916,5.86584274 Z M5.65253937,9.30535962 C5.34591577,9.49200007 4.81265734,9.5853203 4.05276408,9.5853203 L2.94625283,9.5853203 L2.94625283,7.03901129 L4.10608992,7.03901129 C4.87931464,7.03901129 5.41257307,7.13233151 5.69253375,7.33230343 C5.98582589,7.53227534 6.1191405,7.86556186 6.1191405,8.35882591 C6.1191405,8.79876411 5.95916297,9.11871917 5.65253937,9.30535962 L5.65253937,9.30535962 L5.65253937,9.30535962 Z" id="Shape"></path>
                    <rect id="Rectangle-path" x="10.9317978" y="5.86584274" width="2.74628092" height="1.95972473"></rect>
                </g>
            </g>
        </g>
    </g>
</svg>