<?xml version="1.0" encoding="UTF-8" standalone="no"?>
<svg width="18px" height="16px" viewBox="0 0 18 16" version="1.1" xmlns="http://www.w3.org/2000/svg" xmlns:xlink="http://www.w3.org/1999/xlink" xmlns:sketch="http://www.bohemiancoding.com/sketch/ns">
    <!-- Generator: Sketch 3.3.3 (12072) - http://www.bohemiancoding.com/sketch -->
    <title>icon_gh.svg</title>
    <desc>Created with Sketch.</desc>
    <defs></defs>
    <g id="front" stroke="none" stroke-width="1" fill="none" fill-rule="evenodd" sketch:type="MSPage">
        <g id="Desktop" sketch:type="MSArtboardGroup" transform="translate(-527.000000, -363.000000)" fill="#0A0B09">
            <g id="icon_gh.svg" sketch:type="MSLayerGroup" transform="translate(527.000000, 362.250000)">
                <path d="M2.44,13.7553684 C3.46063158,15.1726316 4.80294737,16.1553684 6.42821053,16.6850526 C6.61768421,16.7229474 6.74989474,16.7035789 6.84421053,16.6092632 C6.93852632,16.5334737 6.97642105,16.4206316 6.97642105,16.3069474 L6.97642105,15.7393684 L6.97642105,14.7945263 L6.73052632,14.8324211 C6.57978947,14.8703158 6.39031579,14.8703158 6.14526316,14.8703158 C5.91789474,14.8703158 5.672,14.8517895 5.40757895,14.7945263 C5.16168421,14.7566316 4.91663158,14.6437895 4.70863158,14.4736842 C4.48126316,14.3221053 4.33052632,14.0955789 4.23621053,13.8303158 L4.14105263,13.5852632 C4.06610526,13.4336842 3.95242105,13.2450526 3.80084211,13.0555789 C3.65010526,12.8475789 3.49852632,12.7153684 3.34778947,12.6589474 L3.272,12.6025263 C3.21557895,12.5646316 3.17768421,12.5267368 3.13978947,12.4694737 C3.10189474,12.4324211 3.064,12.3751579 3.04463158,12.3187368 C3.02610526,12.2808421 3.04463158,12.2429474 3.10189474,12.2050526 C3.13978947,12.1671579 3.25263158,12.1486316 3.40421053,12.1486316 L3.61221053,12.1865263 C3.74442105,12.2244211 3.93305263,12.2993684 4.12252632,12.4324211 C4.33052632,12.5831579 4.50063158,12.7726316 4.65136842,12.9797895 C4.80294737,13.2829474 4.99157895,13.4901053 5.23747368,13.6416842 C5.46484211,13.7932632 5.69136842,13.8682105 5.91789474,13.8682105 C6.14526316,13.8682105 6.35242105,13.8496842 6.52336842,13.8303158 C6.69263158,13.7932632 6.84421053,13.736 6.99578947,13.6602105 C7.05221053,13.1877895 7.22231579,12.8290526 7.50610526,12.5831579 C7.10863158,12.5267368 6.74989474,12.4694737 6.42821053,12.3945263 C6.10736842,12.2993684 5.78568421,12.1671579 5.44547368,11.9785263 C5.10526316,11.7890526 4.82147368,11.544 4.59494737,11.2787368 C4.36842105,10.9957895 4.17894737,10.6176842 4.02821053,10.1637895 C3.896,9.70989474 3.82021053,9.18105263 3.82021053,8.57642105 C3.82021053,7.72589474 4.104,7.00757895 4.65136842,6.40210526 C4.38694737,5.75957895 4.42484211,5.04126316 4.72715789,4.248 C4.93515789,4.19073684 5.23747368,4.248 5.63494737,4.39873684 C6.03157895,4.55031579 6.33389474,4.68252632 6.52336842,4.79536842 C6.69263158,4.90905263 6.84421053,5.00336842 6.95789474,5.09852632 C7.61894737,4.90905263 8.29936842,4.81473684 8.99915789,4.81473684 C9.67957895,4.81473684 10.36,4.90905263 11.0218947,5.09852632 L11.4185263,4.83326316 C11.6829474,4.66315789 12.0231579,4.51242105 12.3827368,4.38021053 C12.7608421,4.22863158 13.0437895,4.19073684 13.2332632,4.248 C13.5541053,5.04126316 13.592,5.75957895 13.3275789,6.40210526 C13.8757895,7.00757895 14.1595789,7.72589474 14.1595789,8.57642105 C14.1595789,9.18105263 14.0837895,9.70989474 13.9515789,10.1637895 C13.8,10.6362105 13.6113684,10.9957895 13.384,11.2787368 C13.1574737,11.544 12.8736842,11.7890526 12.5334737,11.9785263 C12.1932632,12.1671579 11.8530526,12.2993684 11.5322105,12.3945263 C11.2105263,12.4694737 10.8517895,12.5267368 10.4543158,12.5831579 C10.8138947,12.8854737 11.0025263,13.3957895 11.0025263,14.0762105 L11.0025263,16.3069474 C11.0025263,16.4206316 11.0404211,16.5334737 11.1347368,16.6092632 C11.2298947,16.7035789 11.3621053,16.7229474 11.5507368,16.6850526 C13.176,16.1553684 14.5183158,15.1726316 15.5389474,13.7553684 C16.5789474,12.3566316 17.0892632,10.7684211 17.0892632,9.01094737 C17.0892632,7.53642105 16.7296842,6.17557895 16.0113684,4.92842105 C15.2745263,3.69978947 14.2917895,2.71621053 13.0631579,1.97936842 C11.8151579,1.26105263 10.4543158,0.902315789 8.99915789,0.902315789 C7.52463158,0.902315789 6.16378947,1.26105263 4.91663158,1.97936842 C3.688,2.71621053 2.70526316,3.69978947 1.96757895,4.92842105 C1.24926316,6.17557895 0.890526316,7.53642105 0.890526316,9.01094737 C0.890526316,10.7684211 1.40084211,12.3566316 2.44,13.7553684" id="Fill-172" sketch:type="MSShapeGroup"></path>
            </g>
        </g>
    </g>
</svg>