<?xml version="1.0" encoding="UTF-8" standalone="no"?>
<svg width="96px" height="92px" viewBox="0 0 96 92" version="1.1" xmlns="http://www.w3.org/2000/svg" xmlns:xlink="http://www.w3.org/1999/xlink">
    <!-- Generator: Sketch 3.6.1 (26313) - http://www.bohemiancoding.com/sketch -->
    <title>icon_star</title>
    <desc>Created with Sketch.</desc>
    <defs></defs>
    <g id="Page-1" stroke="none" stroke-width="1" fill="none" fill-rule="evenodd">
        <g id="index" transform="translate(-1109.000000, -2682.000000)" fill="#888888">
            <g id="section-03" transform="translate(98.000000, 2496.000000)">
                <path d="M1046.56758,216.299314 L1057.87058,187.274314 C1058.54458,185.543314 1061.00858,185.586314 1061.62158,187.339314 L1071.90458,216.741314 C1072.17158,217.504314 1072.87158,218.032314 1073.67858,218.078314 L1104.77558,219.858314 C1106.63058,219.964314 1107.35058,222.321314 1105.87258,223.446314 L1081.08758,242.312314 C1080.44458,242.801314 1080.15858,243.630314 1080.36458,244.411314 L1088.28058,274.537314 C1088.75258,276.333314 1086.73458,277.747314 1085.20758,276.689314 L1059.60658,258.946314 C1058.94158,258.486314 1058.06558,258.471314 1057.38558,258.908314 L1031.18158,275.746314 C1029.61858,276.750314 1027.64958,275.267314 1028.18458,273.488314 L1037.14758,243.657314 C1037.37958,242.883314 1037.12358,242.045314 1036.49858,241.533314 L1012.38658,221.814314 C1010.94858,220.638314 1011.75058,218.308314 1013.60758,218.267314 L1044.74858,217.573314 C1045.55658,217.555314 1046.27458,217.052314 1046.56758,216.299314" id="icon_star"></path>
            </g>
        </g>
    </g>
</svg>