<?xml version="1.0" encoding="UTF-8" standalone="no"?>
<svg width="54px" height="81px" viewBox="0 0 54 81" version="1.1" xmlns="http://www.w3.org/2000/svg" xmlns:xlink="http://www.w3.org/1999/xlink" xmlns:sketch="http://www.bohemiancoding.com/sketch/ns">
    <!-- Generator: Sketch 3.3.3 (12072) - http://www.bohemiancoding.com/sketch -->
    <title>icon_fork.svg</title>
    <desc>Created with Sketch.</desc>
    <defs></defs>
    <g id="front" stroke="none" stroke-width="1" fill="none" fill-rule="evenodd" sketch:type="MSPage">
        <g id="Desktop" sketch:type="MSArtboardGroup" transform="translate(-680.000000, -1319.000000)" fill="#0A0B09">
            <g id="icon_fork.svg" sketch:type="MSLayerGroup" transform="translate(680.000000, 1321.076923)">
                <path d="M3.20261538,75.5750769 C5.15907692,77.5315385 7.58076923,78.5575385 10.3804615,78.5575385 C13.0846154,78.5575385 15.5063077,77.5315385 17.4669231,75.5750769 C19.4233846,73.6144615 20.3538462,71.2841538 20.3538462,68.4886154 C20.3538462,66.7149231 19.8886154,65.0367692 18.9581538,63.4541538 C18.1190769,61.9629231 16.9061538,60.75 15.3193846,59.9109231 L15.3193846,58.5110769 C15.3193846,56.0893846 16.0670769,54.4112308 17.4669231,53.2896923 C18.9581538,52.2636923 21.8492308,51.0549231 26.3229231,49.6550769 C30.9835385,48.1638462 34.5267692,46.764 36.8570769,45.3641538 C44.5956923,40.9818462 48.5127692,33.804 48.6083077,23.8264615 C50.1909231,22.9873846 51.4038462,21.7786154 52.2429231,20.1918462 C53.1733846,18.7006154 53.6427692,17.0224615 53.6427692,15.2487692 C53.6427692,12.4532308 52.7081538,10.0273846 50.7516923,8.07092308 C48.7910769,6.11446154 46.3693846,5.17984615 43.6652308,5.17984615 C40.8696923,5.17984615 38.4438462,6.11446154 36.4873846,8.07092308 C34.5267692,10.0273846 33.5963077,12.4532308 33.5963077,15.2487692 C33.5963077,17.0224615 34.0615385,18.7006154 34.992,20.1918462 C35.8310769,21.7786154 37.1395385,22.9873846 38.6307692,23.8264615 C38.6307692,25.6915385 38.4438462,27.2783077 38.1655385,28.5826154 C37.8830769,29.9824615 37.4178462,31.1953846 36.7656923,32.2213846 C36.018,33.2473846 35.3658462,34.1778462 34.6223077,34.9213846 C33.8746154,35.5776923 32.8486154,36.3212308 31.5443077,36.9733846 C30.24,37.6255385 29.0270769,38.0949231 27.9096923,38.5601538 C26.7881538,39.0253846 25.2969231,39.4906154 23.3404615,40.1427692 C19.8886154,41.1687692 17.1844615,42.1947692 15.3193846,43.0338462 L15.3193846,17.2093846 C16.9061538,16.3703077 18.1190769,15.1573846 18.9581538,13.5706154 C19.8886154,11.988 20.3538462,10.3098462 20.3538462,8.53615385 C20.3538462,5.74061538 19.4233846,3.41030769 17.4669231,1.44969231 C15.5063077,-0.506769231 13.0846154,-1.43723077 10.3804615,-1.43723077 C7.58076923,-1.43723077 5.15907692,-0.506769231 3.20261538,1.44969231 C1.242,3.41030769 0.311538462,5.74061538 0.311538462,8.53615385 C0.311538462,10.3098462 0.776769231,11.988 1.70723077,13.5706154 C2.54630769,15.1573846 3.85476923,16.3703077 5.346,17.2093846 L5.346,59.9109231 C3.85476923,60.75 2.54630769,61.9629231 1.70723077,63.4541538 C0.776769231,65.0367692 0.311538462,66.7149231 0.311538462,68.4886154 C0.311538462,71.2841538 1.242,73.6144615 3.20261538,75.5750769 L3.20261538,75.5750769 Z M10.3804615,63.5455385 C11.6847692,63.5455385 12.8976923,64.0149231 13.8281538,64.9453846 C14.8541538,65.9713846 15.3193846,67.1843077 15.3193846,68.4886154 C15.3193846,69.8884615 14.8541538,71.0972308 13.8281538,72.0318462 C12.8976923,73.0578462 11.6847692,73.5230769 10.3804615,73.5230769 C8.98061538,73.5230769 7.76769231,73.0578462 6.83723077,72.0318462 C5.81123077,71.0972308 5.346,69.8884615 5.346,68.4886154 C5.346,67.1843077 5.81123077,65.9713846 6.83723077,64.9453846 C7.76769231,64.0149231 8.98061538,63.5455385 10.3804615,63.5455385 L10.3804615,63.5455385 Z M10.3804615,3.59723077 C11.6847692,3.59723077 12.8976923,4.06246154 13.8281538,4.99292308 C14.8541538,5.92753846 15.3193846,7.14046154 15.3193846,8.53615385 C15.3193846,9.936 14.8541538,11.1489231 13.8281538,12.0793846 C12.8976923,13.1053846 11.6847692,13.5706154 10.3804615,13.5706154 C8.98061538,13.5706154 7.76769231,13.1053846 6.83723077,12.0793846 C5.81123077,11.1489231 5.346,9.936 5.346,8.53615385 C5.346,7.14046154 5.81123077,5.92753846 6.83723077,4.99292308 C7.76769231,4.06246154 8.98061538,3.59723077 10.3804615,3.59723077 L10.3804615,3.59723077 Z M43.6652308,10.2143077 C44.9695385,10.2143077 46.1824615,10.6836923 47.1129231,11.7055385 C48.1389231,12.6401538 48.6083077,13.8530769 48.6083077,15.2487692 C48.6083077,16.5572308 48.1389231,17.766 47.1129231,18.792 C46.1824615,19.7266154 44.9695385,20.1918462 43.6652308,20.1918462 C42.2653846,20.1918462 41.0524615,19.7266154 40.122,18.792 C39.096,17.766 38.6307692,16.5572308 38.6307692,15.2487692 C38.6307692,13.8530769 39.096,12.6401538 40.122,11.7055385 C41.0524615,10.6836923 42.2653846,10.2143077 43.6652308,10.2143077 L43.6652308,10.2143077 Z" id="Fill-143" sketch:type="MSShapeGroup"></path>
            </g>
        </g>
    </g>
</svg>