<?xml version="1.0" encoding="UTF-8" standalone="no"?>
<svg width="81px" height="61px" viewBox="0 0 81 61" version="1.1" xmlns="http://www.w3.org/2000/svg" xmlns:xlink="http://www.w3.org/1999/xlink" xmlns:sketch="http://www.bohemiancoding.com/sketch/ns">
    <!-- Generator: Sketch 3.3.3 (12072) - http://www.bohemiancoding.com/sketch -->
    <title>icon_code.svg</title>
    <desc>Created with Sketch.</desc>
    <defs></defs>
    <g id="front" stroke="none" stroke-width="1" fill="none" fill-rule="evenodd" sketch:type="MSPage">
        <g id="Desktop" sketch:type="MSArtboardGroup" transform="translate(-392.000000, -1105.000000)" fill="#0A0B09">
            <g id="icon_code.svg" sketch:type="MSLayerGroup" transform="translate(392.500000, 1104.000000)">
                <path d="M0.546086957,32.2921739 L20.8452174,52.5913043 C21.0782609,52.9043478 21.4713043,53.0608696 21.8608696,53.0608696 C22.173913,53.0608696 22.5634783,52.9043478 22.7965217,52.5913043 L24.9843478,50.4834783 C25.293913,50.1704348 25.4504348,49.8608696 25.4504348,49.4678261 C25.4504348,49.0782609 25.293913,48.7652174 24.9843478,48.4556522 L7.88521739,31.3565217 L24.9843478,14.1808696 C25.293913,13.9478261 25.4504348,13.5547826 25.4504348,13.1652174 C25.4504348,12.8521739 25.293913,12.4626087 24.9843478,12.2295652 L22.7965217,10.0417391 C22.5634783,9.72869565 22.173913,9.57565217 21.8608696,9.57565217 C21.4713043,9.57565217 21.0782609,9.72869565 20.8452174,10.0417391 L0.546086957,30.3408696 C0.233043478,30.573913 0.0765217391,30.9669565 0.0765217391,31.3565217 C0.0765217391,31.6695652 0.233043478,32.0591304 0.546086957,32.2921739 L0.546086957,32.2921739 Z M29.2765217,59.773913 C29.4330435,60.0869565 29.746087,60.32 30.1356522,60.4 L32.7895652,61.1791304 C33.1791304,61.2591304 33.4921739,61.2591304 33.8052174,61.0226087 C34.1947826,60.866087 34.3513043,60.5565217 34.5078261,60.2434783 L50.7478261,3.95478261 C50.9043478,3.56173913 50.8243478,3.25217391 50.6678261,2.85913043 C50.4347826,2.54608696 50.2017391,2.31304348 49.8086957,2.23652174 L47.0782609,1.45391304 C46.7652174,1.3773913 46.3756522,1.3773913 46.0626087,1.61043478 C45.7495652,1.76695652 45.5165217,2.08 45.36,2.46956522 L29.12,58.6817391 C29.0434783,59.0713043 29.0434783,59.3843478 29.2765217,59.773913 L29.2765217,59.773913 Z M54.8834783,50.4834783 L57.0713043,52.5913043 C57.3843478,52.9043478 57.693913,53.0608696 58.0869565,53.0608696 C58.4765217,53.0608696 58.7895652,52.9043478 59.1026087,52.5913043 L79.3982609,32.2921739 C79.6347826,32.0591304 79.7913043,31.6695652 79.7913043,31.3565217 C79.7913043,30.9669565 79.6347826,30.573913 79.3982609,30.3408696 L59.1026087,10.0417391 C58.7895652,9.72869565 58.4765217,9.57565217 58.0869565,9.57565217 C57.693913,9.57565217 57.3843478,9.72869565 57.0713043,10.0417391 L54.8834783,12.2295652 C54.573913,12.4626087 54.493913,12.8521739 54.493913,13.1652174 C54.493913,13.5547826 54.573913,13.9478261 54.8834783,14.1808696 L71.9826087,31.3565217 L54.8834783,48.4556522 C54.573913,48.7652174 54.493913,49.0782609 54.493913,49.4678261 C54.493913,49.8608696 54.573913,50.1704348 54.8834783,50.4834783 L54.8834783,50.4834783 Z" id="Fill-133" sketch:type="MSShapeGroup"></path>
            </g>
        </g>
    </g>
</svg>