<?xml version="1.0" encoding="UTF-8" standalone="no"?>
<svg width="16px" height="17px" viewBox="0 0 16 17" version="1.1" xmlns="http://www.w3.org/2000/svg" xmlns:xlink="http://www.w3.org/1999/xlink" xmlns:sketch="http://www.bohemiancoding.com/sketch/ns">
    <!-- Generator: Sketch 3.3.3 (12072) - http://www.bohemiancoding.com/sketch -->
    <title>icon_plane.svg</title>
    <desc>Created with Sketch.</desc>
    <defs></defs>
    <g id="front" stroke="none" stroke-width="1" fill="none" fill-rule="evenodd" sketch:type="MSPage">
        <g id="Desktop" sketch:type="MSArtboardGroup" transform="translate(-573.000000, -362.000000)" fill="#0A0B09">
            <g id="icon_plane.svg" sketch:type="MSLayerGroup" transform="translate(573.000000, 362.250000)">
                <path d="M0.526608696,9.63895652 L3.97773913,11.0601739 L13.2834783,2.98713043 L5.75721739,12.2156522 L5.75721739,15.2605217 C5.75721739,15.3850435 5.78852174,15.4789565 5.86713043,15.5881739 C5.92904348,15.682087 6.02295652,15.7446957 6.13217391,15.7913043 C6.17878261,15.8066087 6.2413913,15.8226087 6.31930435,15.8226087 C6.49113043,15.8226087 6.64765217,15.76 6.74086957,15.6194783 L8.8493913,13.0434783 L12.7993043,14.6671304 C12.877913,14.6824348 12.9398261,14.6984348 13.0024348,14.6984348 C13.1116522,14.6984348 13.2055652,14.6824348 13.2834783,14.6358261 C13.44,14.541913 13.5332174,14.4173913 13.5645217,14.2455652 L15.7822609,0.864 C15.8288696,0.629565217 15.7509565,0.442434783 15.5478261,0.301913043 C15.453913,0.239304348 15.36,0.208 15.2354783,0.208 C15.1415652,0.208 15.0483478,0.239304348 14.9544348,0.285913043 L0.464,8.65530435 C0.261565217,8.76452174 0.167652174,8.93634783 0.182956522,9.17078261 C0.198956522,9.40521739 0.323478261,9.56104348 0.526608696,9.63895652" id="Fill-14" sketch:type="MSShapeGroup"></path>
            </g>
        </g>
    </g>
</svg>