<?xml version="1.0" encoding="UTF-8" standalone="no"?>
<svg width="61px" height="61px" viewBox="0 0 61 61" version="1.1" xmlns="http://www.w3.org/2000/svg" xmlns:xlink="http://www.w3.org/1999/xlink" xmlns:sketch="http://www.bohemiancoding.com/sketch/ns">
    <!-- Generator: Sketch 3.3.3 (12072) - http://www.bohemiancoding.com/sketch -->
    <title>icon_pencil.svg</title>
    <desc>Created with Sketch.</desc>
    <defs></defs>
    <g id="front" stroke="none" stroke-width="1" fill="none" fill-rule="evenodd" sketch:type="MSPage">
        <g id="Desktop" sketch:type="MSArtboardGroup" transform="translate(-856.000000, -1108.000000)" fill="#0A0B09">
            <g id="icon_pencil.svg" sketch:type="MSLayerGroup" transform="translate(857.250000, 1109.465839)">
                <path d="M16.0294737,58.9452632 L48.9189474,26.0557895 L32.4757895,9.60947368 L-0.413684211,42.4989474 L-0.413684211,58.9452632 L16.0294737,58.9452632 L16.0294737,58.9452632 Z M4.61684211,44.5547368 L8.23263158,40.9389474 L17.5168421,50.2957895 L13.9736842,53.9115789 L9.72,53.9115789 L9.72,48.8084211 L4.61684211,48.8084211 L4.61684211,44.5547368 L4.61684211,44.5547368 Z M11.6336842,38.0336842 L33.1136842,16.6294737 C33.2526316,16.4147368 33.4673684,16.3452632 33.7515789,16.3452632 C34.3168421,16.3452632 34.6010526,16.6294737 34.6010526,17.1947368 C34.6010526,17.4789474 34.5284211,17.6905263 34.3894737,17.9052632 L12.9126316,39.3094737 C12.6978947,39.5242105 12.4863158,39.5936842 12.2747368,39.5936842 C11.6336842,39.5936842 11.3526316,39.3094737 11.3526316,38.7442105 C11.3526316,38.46 11.4947368,38.2452632 11.6336842,38.0336842 L11.6336842,38.0336842 Z M51.4705263,23.5042105 L58.0610526,16.9831579 C59.0557895,15.9915789 59.4789474,14.7852632 59.4789474,13.44 C59.4789474,12.0221053 59.0557895,10.8157895 58.0610526,9.82421053 L48.7768421,0.536842105 C47.7852632,-0.454736842 46.5789474,-0.950526316 45.1610526,-0.950526316 C43.7431579,-0.950526316 42.54,-0.454736842 41.6178947,0.536842105 L35.0273684,7.05789474 L51.4705263,23.5042105 L51.4705263,23.5042105 Z" id="Fill-105" sketch:type="MSShapeGroup"></path>
            </g>
        </g>
    </g>
</svg>