<?xml version="1.0" encoding="UTF-8" standalone="no"?>
<svg width="79px" height="79px" viewBox="0 0 79 79" version="1.1" xmlns="http://www.w3.org/2000/svg" xmlns:xlink="http://www.w3.org/1999/xlink" xmlns:sketch="http://www.bohemiancoding.com/sketch/ns">
    <!-- Generator: Sketch 3.3.3 (12072) - http://www.bohemiancoding.com/sketch -->
    <title>icon_wp.svg</title>
    <desc>Created with Sketch.</desc>
    <defs></defs>
    <g id="front" stroke="none" stroke-width="1" fill="none" fill-rule="evenodd" sketch:type="MSPage">
        <g id="Desktop" sketch:type="MSArtboardGroup" transform="translate(-303.000000, -1321.000000)" fill="#0A0B09">
            <g id="icon_wp.svg" sketch:type="MSLayerGroup" transform="translate(303.000000, 1321.000000)">
                <path d="M12.32,67.4295652 C15.8330435,70.866087 19.9686957,73.6765217 24.8104348,75.7078261 C29.5721739,77.8156522 34.6469565,78.8313043 39.9547826,78.8313043 C45.186087,78.8313043 50.2608696,77.8156522 55.1026087,75.7078261 C59.9443478,73.6765217 64.08,70.866087 67.5930435,67.4295652 C71.0295652,63.9165217 73.84,59.7808696 75.8678261,54.9391304 C77.9791304,50.0973913 78.9913043,45.1026087 78.9913043,39.7947826 C78.9913043,34.4834783 77.9791304,29.4886957 75.8678261,24.6469565 C73.84,19.8086957 71.0295652,15.6695652 67.5930435,12.1565217 C64.08,8.72 59.9443478,5.90956522 55.1026087,3.88173913 C50.2608696,1.77391304 45.186087,0.75826087 39.9547826,0.75826087 C34.6469565,0.75826087 29.5721739,1.77391304 24.8104348,3.88173913 C19.9686957,5.90956522 15.8330435,8.72 12.32,12.1565217 C8.88347826,15.6695652 6.07304348,19.8086957 4.04173913,24.6469565 C1.93391304,29.4886957 0.92173913,34.4834783 0.92173913,39.7947826 C0.92173913,45.1026087 1.93391304,50.0973913 4.04173913,54.9391304 C6.07304348,59.7808696 8.88347826,63.9165217 12.32,67.4295652 L12.32,67.4295652 Z M13.6452174,13.4852174 C16.9252174,10.1252174 20.9078261,7.47130435 25.5130435,5.52 C30.1182609,3.56869565 34.8834783,2.55304348 39.9547826,2.55304348 C44.9530435,2.55304348 49.7947826,3.56869565 54.4,5.52 C59.0052174,7.47130435 62.9878261,10.1252174 66.2678261,13.4852174 C69.6243478,16.7617391 72.2782609,20.7443478 74.2295652,25.3495652 C76.1808696,29.9582609 77.1965217,34.7965217 77.1965217,39.7947826 C77.1965217,44.7895652 76.1808696,49.6313043 74.2295652,54.2365217 C72.2782609,58.8417391 69.6243478,62.8243478 66.2678261,66.1043478 C62.9878261,69.4608696 59.0052174,72.1147826 54.4,74.066087 C49.7947826,76.0173913 44.9530435,77.0330435 39.9547826,77.0330435 C34.8834783,77.0330435 30.1182609,76.0173913 25.5130435,74.066087 C20.9078261,72.1147826 16.9252174,69.4608696 13.6452174,66.1043478 C10.2886957,62.8243478 7.63478261,58.8417391 5.68347826,54.2365217 C3.73217391,49.6313043 2.71652174,44.7895652 2.71652174,39.7947826 C2.71652174,34.7965217 3.73217391,29.9582609 5.68347826,25.3495652 C7.63478261,20.7443478 10.2886957,16.7617391 13.6452174,13.4852174 L13.6452174,13.4852174 Z M11.6173913,57.6730435 C15.1304348,63.0608696 19.6591304,67.12 25.3565217,69.9304348 L9.35304348,26.1321739 C7.40173913,30.5043478 6.4626087,35.0295652 6.4626087,39.7947826 C6.4626087,46.3513043 8.18086957,52.2852174 11.6173913,57.6730435 L11.6173913,57.6730435 Z M13.0991304,21.4469565 L14.1147826,21.4469565 L23.0156522,20.9773913 C23.5617391,20.9773913 24.0313043,21.213913 24.2643478,21.6034783 C24.5773913,21.9930435 24.5773913,22.4626087 24.4208696,22.9286957 C24.1843478,23.3982609 23.7947826,23.7113043 23.2486957,23.7878261 C22.0765217,23.8678261 20.7513043,24.0243478 19.4226087,24.1008696 L31.6034783,60.3269565 L38.9426087,38.3895652 L33.7113043,24.1008696 L30.1982609,23.7878261 C29.8852174,23.7113043 29.5721739,23.6313043 29.4156522,23.3982609 C29.1826087,23.2417391 29.026087,23.0086957 29.026087,22.6956522 C28.9495652,22.4626087 28.9495652,22.1495652 29.026087,21.9130435 C29.1826087,21.6034783 29.3391304,21.4469565 29.5721739,21.213913 C29.8086957,21.0573913 30.1182609,20.9773913 30.4313043,20.9773913 C34.1008696,21.2904348 37.0678261,21.4469565 39.2521739,21.4469565 L48.1530435,20.9773913 C48.6991304,20.9773913 49.1686957,21.213913 49.4017391,21.6034783 C49.7147826,21.9930435 49.7147826,22.4626087 49.4817391,22.9286957 C49.3252174,23.3982609 48.9356522,23.7113043 48.3895652,23.7878261 C47.1373913,23.8678261 45.8886957,24.0243478 44.5634783,24.1008696 L56.6643478,60.0904348 L59.9443478,48.9286957 C60.0973913,48.5391304 60.333913,47.7565217 60.7234783,46.4313043 C61.1130435,45.1026087 61.3495652,44.2434783 61.5026087,43.853913 C61.5826087,43.4643478 61.7391304,42.8382609 61.9721739,41.9026087 C62.2052174,41.0434783 62.3617391,40.3408696 62.4417391,39.7947826 C62.5182609,39.2486957 62.5182609,38.6226087 62.5182609,38.0765217 C62.5182609,35.0295652 61.6591304,31.986087 59.7878261,28.8626087 C59.7078261,28.706087 59.4747826,28.3965217 59.1617391,27.8504348 C58.8486957,27.3008696 58.6156522,26.9913043 58.5391304,26.8347826 C58.4591304,26.6782609 58.3026087,26.3652174 57.9895652,25.8956522 C57.7565217,25.506087 57.6,25.1165217 57.5234783,24.96 C57.3669565,24.7269565 57.2869565,24.413913 57.133913,24.0243478 C56.8973913,23.6313043 56.8208696,23.3217391 56.7408696,23.0086957 C56.6643478,22.6956522 56.6643478,22.3826087 56.5843478,22.0730435 C56.5078261,21.76 56.5078261,21.3669565 56.5078261,21.0573913 C56.5078261,19.4156522 57.053913,18.0104348 58.0695652,16.8417391 C59.1617391,15.6695652 60.4904348,15.1234783 62.1286957,15.1234783 L62.5182609,15.1234783 C59.4747826,12.3130435 56.0382609,10.1252174 52.1356522,8.64347826 C48.3095652,7.08173913 44.173913,6.29913043 39.9547826,6.29913043 C34.1773913,6.29913043 28.8695652,7.62782609 23.9513043,10.3617391 C19.0330435,13.0921739 15.0504348,16.7617391 12.0069565,21.3669565 C12.32,21.3669565 12.6295652,21.4469565 13.0991304,21.4469565 L13.0991304,21.4469565 Z M39.9547826,73.2869565 C43.7043478,73.2869565 47.373913,72.6608696 51.0434783,71.3356522 C50.9634783,71.1791304 50.8869565,71.0226087 50.8069565,70.866087 L40.5043478,42.6817391 L30.5113043,71.8817391 C33.5547826,72.8173913 36.6782609,73.2869565 39.9547826,73.2869565 L39.9547826,73.2869565 Z M68.9217391,56.5808696 C71.9652174,51.426087 73.4504348,45.8817391 73.4504348,39.7947826 C73.4504348,34.093913 72.0452174,28.786087 69.3113043,23.7113043 C69.4678261,24.8034783 69.5443478,25.9756522 69.5443478,27.1443478 C69.5443478,30.2678261 68.6852174,34.2504348 66.9704348,39.1686957 L56.7408696,68.6817391 C61.8156522,65.7147826 65.8747826,61.6521739 68.9217391,56.5808696 L68.9217391,56.5808696 Z" id="Fill-1" sketch:type="MSShapeGroup"></path>
            </g>
        </g>
    </g>
</svg>