<?xml version="1.0" encoding="UTF-8" standalone="no"?>
<svg width="15px" height="14px" viewBox="0 0 15 14" version="1.1" xmlns="http://www.w3.org/2000/svg" xmlns:xlink="http://www.w3.org/1999/xlink" xmlns:sketch="http://www.bohemiancoding.com/sketch/ns">
    <!-- Generator: Sketch 3.3.3 (12072) - http://www.bohemiancoding.com/sketch -->
    <title>icon_pocket</title>
    <desc>Created with Sketch.</desc>
    <defs></defs>
    <g id="single" stroke="none" stroke-width="1" fill="none" fill-rule="evenodd" sketch:type="MSPage">
        <g id="Desktop" sketch:type="MSArtboardGroup" transform="translate(-425.000000, -597.000000)" fill="#F03E56">
            <g id="btn_pocket" sketch:type="MSLayerGroup" transform="translate(409.000000, 588.000000)">
                <path d="M28.5,9 L18.5,9 C17.12,9 16,10.12 16,11.5 L16,15.25 C16,19.39125 19.35875,22.75 23.5,22.75 C27.64125,22.75 31,19.39125 31,15.25 L31,11.5 C31,10.12 29.88,9 28.5,9 L28.5,9 Z M28.13375,14.88375 L24.59875,18.41875 L24.5575,18.3775 C24.33875,18.7425 23.95625,19 23.5,19 C23.04375,19 22.66125,18.7425 22.4425,18.3775 L22.40125,18.41875 L18.86625,14.88375 C18.3775,14.395 18.3775,13.60375 18.86625,13.11625 C19.35375,12.6275 20.145,12.6275 20.63375,13.11625 L23.5,15.9825 L26.36625,13.11625 C26.855,12.6275 27.645,12.6275 28.13375,13.11625 C28.6225,13.60375 28.6225,14.395 28.13375,14.88375 L28.13375,14.88375 Z" id="icon_pocket" sketch:type="MSShapeGroup"></path>
            </g>
        </g>
    </g>
</svg>