<?xml version="1.0" encoding="UTF-8" standalone="no"?>
<svg width="42px" height="76px" viewBox="0 0 42 76" version="1.1" xmlns="http://www.w3.org/2000/svg" xmlns:xlink="http://www.w3.org/1999/xlink" xmlns:sketch="http://www.bohemiancoding.com/sketch/ns">
    <!-- Generator: Sketch 3.3.3 (12072) - http://www.bohemiancoding.com/sketch -->
    <title>icon_bolt.svg</title>
    <desc>Created with Sketch.</desc>
    <defs></defs>
    <g id="front" stroke="none" stroke-width="1" fill="none" fill-rule="evenodd" sketch:type="MSPage">
        <g id="Desktop" sketch:type="MSArtboardGroup" transform="translate(-647.000000, -1101.000000)" fill="#0A0B09">
            <g id="icon_bolt.svg" sketch:type="MSLayerGroup" transform="translate(647.000000, 1100.855449)">
                <path d="M1.20363636,41.0618182 C1.61090909,41.3854545 2.01818182,41.5490909 2.58909091,41.5490909 L3.16,41.5490909 L21.6072727,36.8981818 L12.6290909,73.7090909 C12.5490909,74.1963636 12.6290909,74.6872727 12.8763636,75.0945455 C13.12,75.5054545 13.5272727,75.8290909 14.0181818,75.9927273 C14.3454545,75.9927273 14.5890909,76.0763636 14.6690909,76.0763636 C15.5672727,76.0763636 16.2218182,75.6654545 16.5490909,74.9309091 L41.1963636,22.2072727 C41.5236364,21.4727273 41.4436364,20.8181818 40.8690909,20.2472727 C40.3818182,19.7563636 39.8909091,19.5127273 39.32,19.5127273 C39.1563636,19.5127273 38.9927273,19.5927273 38.7490909,19.5927273 L20.7090909,24.0836364 L28.5454545,3.02545455 C28.6290909,2.69818182 28.7090909,2.45454545 28.7090909,2.20727273 C28.7090909,1.63636364 28.5454545,1.22909091 28.1381818,0.821818182 C27.7309091,0.494545455 27.24,0.250909091 26.6690909,0.250909091 L11.7309091,0.250909091 C11.2436364,0.250909091 10.8327273,0.414545455 10.5090909,0.658181818 C10.0981818,0.985454545 9.85454545,1.30909091 9.77454545,1.72 L0.632727273,39.3454545 C0.469090909,40 0.632727273,40.6509091 1.20363636,41.0618182" id="Fill-250" sketch:type="MSShapeGroup"></path>
            </g>
        </g>
    </g>
</svg>