<?xml version="1.0" encoding="UTF-8" standalone="no"?>
<svg width="137px" height="102px" viewBox="0 0 137 102" version="1.1" xmlns="http://www.w3.org/2000/svg" xmlns:xlink="http://www.w3.org/1999/xlink">
    <!-- Generator: Sketch 3.6.1 (26313) - http://www.bohemiancoding.com/sketch -->
    <title>icon_sass</title>
    <desc>Created with Sketch.</desc>
    <defs></defs>
    <g id="Page-1" stroke="none" stroke-width="1" fill="none" fill-rule="evenodd">
        <g id="index" transform="translate(-649.000000, -2671.000000)" fill="#888888">
            <g id="section-03" transform="translate(98.000000, 2496.000000)">
                <path d="M647.216168,252.078619 C646.783923,251.771778 646.855964,250.777881 648.275435,247.685462 C648.833085,246.470106 650.105806,244.426281 652.316393,242.47184 C652.572538,243.274962 652.728626,244.046066 652.724624,244.763806 C652.696608,249.549185 649.281339,251.336865 647.216168,252.078619 M629.039198,256.222301 C628.461537,256.525139 627.93057,256.71458 627.683763,256.56783 C627.502327,256.459769 627.922565,256.06221 627.922565,256.06221 C627.922565,256.06221 630.873571,252.887077 632.035563,251.440924 C632.711947,250.600448 633.496391,249.602549 634.350209,248.485916 C634.356879,248.597979 634.360881,248.708709 634.360881,248.818104 C634.352877,252.621593 630.678794,255.189716 629.039198,256.222301 M605.445824,244.963919 C604.079716,248.292473 601.222096,256.807966 599.483778,256.351708 C597.989597,255.960819 597.081082,249.486483 599.184942,243.116205 C600.244209,239.909054 602.506825,236.077549 603.835578,234.590039 C605.975457,232.196682 608.33146,231.413571 608.903784,232.384789 C609.632197,233.62149 606.300975,242.877403 605.445824,244.963919 M576.886968,264.378925 C572.967413,268.654682 567.489642,270.271598 565.141644,268.909493 C562.60554,267.439326 563.610109,261.143757 568.420836,256.605185 C571.353165,253.839617 575.137977,251.29284 577.648734,249.723951 C578.221058,249.379756 579.0602,248.87547 580.080779,248.263123 C580.248874,248.167068 580.344929,248.113705 580.344929,248.113705 L580.340926,248.107034 C580.538372,247.989634 580.739819,247.868232 580.947937,247.744162 C582.698263,254.203824 581.001301,259.889713 576.886968,264.378925 M668.109345,233.624158 C663.353316,233.649505 659.233647,234.791486 655.781023,236.493784 C654.517641,233.973689 653.239583,231.755098 653.024794,230.107498 C652.773985,228.182406 652.484488,227.033755 652.787326,224.741789 C653.088831,222.448489 654.41625,219.201315 654.396238,218.958511 C654.377561,218.714373 654.098736,217.547044 651.355848,217.527033 C648.61296,217.507022 646.266297,218.055332 645.99014,218.779743 C645.713983,219.504154 645.185684,221.133077 644.857498,222.832707 C644.377226,225.320784 639.379726,234.191146 636.543452,238.832443 C635.614925,237.022084 634.826478,235.423845 634.662385,234.161796 C634.411577,232.236705 634.120745,231.088054 634.423583,228.794754 C634.726422,226.502788 636.052507,223.255614 636.03383,223.012809 C636.013818,222.768671 635.736328,221.601343 632.992105,221.581331 C630.249217,221.56132 627.902554,222.108297 627.626397,222.832707 C627.350241,223.557118 627.055407,225.250078 626.493755,226.887005 C625.932103,228.525267 619.289671,243.322989 617.551353,247.158496 C616.664183,249.112938 615.893079,250.683161 615.348771,251.755769 C615.347437,251.753101 615.344768,251.749099 615.344768,251.749099 C615.344768,251.749099 615.311416,251.82114 615.25405,251.941208 C614.787119,252.853725 614.509628,253.359345 614.509628,253.359345 C614.509628,253.359345 614.513631,253.366015 614.517633,253.378022 C614.14809,254.047735 613.751866,254.670755 613.555754,254.670755 C613.419677,254.670755 613.144855,252.887077 613.615788,250.437689 C614.604349,245.304112 616.979028,237.29824 616.955015,237.023418 C616.943008,236.882005 617.396598,235.486547 615.404803,234.7568 C613.469039,234.048398 612.779314,235.230402 612.60188,235.234404 C612.431117,235.238406 612.304378,235.651974 612.304378,235.651974 C612.304378,235.651974 614.461601,226.649538 608.190046,226.649538 C604.270491,226.649538 598.838078,230.937301 596.161895,234.824838 C594.472937,235.74536 590.858889,237.718479 587.024715,239.825006 C585.55188,240.634798 584.049695,241.4606 582.624888,242.246379 C582.527499,242.138317 582.431445,242.03159 582.331388,241.924863 C574.728412,233.813599 560.672444,228.075679 561.268782,217.169497 C561.486238,213.204583 562.864353,202.765332 588.277425,190.102154 C609.094559,179.728273 625.760006,182.583225 628.640305,188.909478 C632.754637,197.947934 619.733923,214.745456 598.115002,217.169497 C589.876999,218.092687 585.539873,214.900211 584.461929,213.711537 C583.325285,212.460161 583.155855,212.402795 582.732949,212.637595 C582.041891,213.020478 582.479472,214.126439 582.732949,214.784145 C583.377314,216.465098 586.026816,219.442786 590.542709,220.924959 C594.515628,222.229699 604.186443,222.944771 615.881073,218.420873 C628.980498,213.354001 639.208963,199.259345 636.204593,187.478 C633.149528,175.495207 613.280932,171.556975 594.478274,178.236761 C583.286596,182.212348 571.171729,188.453219 562.461458,196.600504 C552.104921,206.287328 550.453318,214.718774 551.133703,218.242105 C553.551074,230.761202 570.804854,238.912489 577.714104,244.954581 C577.373911,245.142687 577.05373,245.318787 576.762898,245.478878 C573.299602,247.193183 560.146813,254.075751 556.856948,261.347873 C553.125499,269.597883 557.450617,275.515904 560.314908,276.31369 C569.187938,278.781756 578.293099,274.340571 583.186539,267.041767 C588.078646,259.745632 587.482308,250.244246 585.237035,245.90712 C585.209019,245.852423 585.178335,245.800393 585.148985,245.745696 C586.044159,245.217396 586.955342,244.678424 587.859855,244.147456 C589.622187,243.112203 591.352502,242.146322 592.854687,241.329859 C592.015544,243.632498 591.399195,246.392729 591.079013,250.377655 C590.7028,255.060309 592.622555,261.113073 595.133312,263.494423 C596.239272,264.543018 597.569359,264.568365 598.412504,264.568365 C601.33416,264.568365 602.668249,262.13632 604.135748,259.261357 C605.936769,255.735358 607.535008,251.630365 607.535008,251.630365 C607.535008,251.630365 605.529872,262.719317 610.992968,262.719317 C612.98343,262.719317 614.985898,260.137854 615.87707,258.822442 C615.879738,258.835782 615.881073,258.843787 615.881073,258.843787 C615.881073,258.843787 615.933102,258.758405 616.034493,258.586308 C616.241277,258.270129 616.358677,258.068681 616.358677,258.068681 C616.358677,258.068681 616.362679,258.04867 616.369349,258.012649 C617.168469,256.622528 618.944142,253.455399 621.605651,248.231104 C625.0436,241.483279 628.341469,233.02782 628.341469,233.02782 C628.341469,233.02782 628.649644,235.095659 629.654213,238.513596 C630.245215,240.524069 631.500593,242.747996 632.491822,244.879871 C631.694036,245.987166 631.204425,246.622192 631.204425,246.622192 C631.204425,246.622192 631.208428,246.634199 631.217766,246.655545 C630.580071,247.501357 629.864999,248.413875 629.117909,249.305047 C626.403037,252.537546 623.170538,256.228971 622.738293,257.293575 C622.227337,258.548953 622.348739,259.472143 623.333297,260.215231 C624.053705,260.758206 625.335765,260.842253 626.672523,260.751535 C629.111239,260.587442 630.828212,259.9831 631.674025,259.614891 C632.994774,259.147959 634.531645,258.41421 635.973796,257.353609 C638.636638,255.3965 640.241548,252.596246 640.088128,248.887477 C640.002746,246.843651 639.350376,244.817169 638.525909,242.905419 C638.767379,242.557222 639.010183,242.20769 639.252988,241.852822 C643.450033,235.71601 646.705212,228.973522 646.705212,228.973522 C646.705212,228.973522 647.012053,231.04136 648.016622,234.459298 C648.526244,236.189612 649.52948,238.077349 650.431324,239.927731 C646.485087,243.134882 644.037033,246.860995 643.187218,249.305047 C641.616994,253.824942 642.847025,255.874104 645.155,256.339701 C646.200926,256.551821 647.677763,256.072883 648.78906,255.601949 C650.171177,255.143023 651.832118,254.379923 653.38233,253.239277 C656.045173,251.282167 658.605291,248.541947 658.450537,244.833178 C658.37983,243.144221 657.922237,241.468604 657.300551,239.858358 C660.646448,238.465569 664.978237,237.690463 670.494697,238.334828 C682.329406,239.716945 684.650722,247.106467 684.20647,250.198887 C683.763552,253.29264 681.280811,254.99227 680.451008,255.505895 C679.621204,256.019519 679.367727,256.196953 679.4371,256.578503 C679.53849,257.133484 679.921374,257.112139 680.629776,256.993405 C681.603661,256.829312 686.843965,254.477312 687.068092,248.768743 C687.353587,241.520634 680.409651,233.558787 668.109345,233.624158" id="icon_sass"></path>
            </g>
        </g>
    </g>
</svg>