<?xml version="1.0" encoding="UTF-8" standalone="no"?>
<svg width="200px" height="69px" viewBox="0 0 200 69" version="1.1" xmlns="http://www.w3.org/2000/svg" xmlns:xlink="http://www.w3.org/1999/xlink" xmlns:sketch="http://www.bohemiancoding.com/sketch/ns">
    <!-- Generator: Sketch 3.3.3 (12072) - http://www.bohemiancoding.com/sketch -->
    <title>logo_node_home</title>
    <desc>Created with Sketch.</desc>
    <defs></defs>
    <g id="front" stroke="none" stroke-width="1" fill="none" fill-rule="evenodd" sketch:type="MSPage">
        <g id="Desktop" sketch:type="MSArtboardGroup" transform="translate(-420.000000, -210.000000)">
            <g id="logo_node_home" sketch:type="MSLayerGroup" transform="translate(420.000000, 210.000000)">
                <path d="M0.948660085,54.9901269 L1.83215797,54.9901269 L5.18335684,64.4801128 L8.30606488,54.9596615 L8.91537377,54.9596615 L12.0380818,64.4801128 L15.3892807,54.9901269 L16.2118477,54.9901269 L12.3427362,65.7291961 L11.7029619,65.7291961 L8.58025388,56.4679831 L5.45754584,65.7291961 L4.81777151,65.7291961 L0.948660085,54.9901269" id="Fill-1" fill="#1F2121" sketch:type="MSShapeGroup"></path>
                <path d="M20.3700987,65.8361072 C19.8623413,65.8361072 19.377433,65.7393512 18.9156559,65.5464034 C18.4533145,65.3537377 18.0473907,65.0795487 17.696756,64.7238364 C17.3464034,64.3684062 17.0696756,63.9421721 16.8665726,63.4442877 C16.6631876,62.9469676 16.5619182,62.393512 16.5619182,61.783921 L16.5619182,61.7534556 C16.5619182,61.1949224 16.6555712,60.6696756 16.8431594,60.1768688 C17.0307475,59.6843441 17.2888575,59.2555712 17.6183357,58.8899859 C17.9478138,58.5241185 18.3351199,58.2346968 18.7811001,58.0214386 C19.2270804,57.8084626 19.7136812,57.7015515 20.2406206,57.7015515 C20.7875882,57.7015515 21.2792666,57.8059238 21.7148096,58.0138223 C22.1506347,58.2220028 22.5232722,58.5088858 22.832158,58.8744711 C23.1410437,59.2400564 23.3794076,59.6691114 23.5466855,60.1619182 C23.7136812,60.6544429 23.7974612,61.1898449 23.7974612,61.7689704 L23.7974612,61.9286319 C23.7974612,61.964457 23.7923836,62.0124118 23.7825106,62.0733427 L17.3543018,62.0733427 C17.3844852,62.5585331 17.4911142,62.9881523 17.6739069,63.3616361 C17.8569817,63.7356841 18.0851904,64.0538787 18.3593794,64.3167842 C18.6338505,64.5794076 18.9458392,64.7791255 19.2961918,64.9153738 C19.6465444,65.0519041 20.0146685,65.1201693 20.4005642,65.1201693 C21.0098731,65.1201693 21.5252468,65.003103 21.9469676,64.7695346 C22.3681241,64.5359661 22.7413258,64.2468265 23.0665726,63.9012694 L23.5842031,64.3582511 C23.1881523,64.7847673 22.738787,65.1376587 22.2361072,65.4169252 C21.7334274,65.6961918 21.1114245,65.8361072 20.3700987,65.8361072 L20.3700987,65.8361072 Z M23.0056417,61.403103 C22.9748942,61.0070522 22.8961918,60.629055 22.7695346,60.2682652 C22.6423131,59.9080395 22.4648801,59.5881523 22.2361072,59.3086037 C22.0076164,59.0296192 21.725811,58.8059238 21.3906911,58.6383639 C21.0555712,58.4708039 20.664598,58.387024 20.2177715,58.387024 C19.8318759,58.387024 19.4713681,58.4631876 19.1362482,58.6155148 C18.8011283,58.767842 18.5091678,58.9788434 18.2603667,59.2476728 C18.0115656,59.5167842 17.8059238,59.8366714 17.6434415,60.2076164 C17.4809591,60.5782793 17.3844852,60.9765867 17.3543018,61.403103 L23.0056417,61.403103 L23.0056417,61.403103 Z" id="Fill-2" fill="#1F2121" sketch:type="MSShapeGroup"></path>
                <path d="M29.6248237,65.8361072 C29.2394922,65.8361072 28.8849083,65.7850494 28.5605078,65.68378 C28.2366714,65.5822285 27.9449929,65.445134 27.6866008,65.2724965 C27.4282087,65.0995769 27.1952045,64.9015515 26.9875882,64.6781382 C26.7799718,64.4550071 26.5949224,64.2211566 26.4327221,63.977433 L26.4327221,65.6530324 L25.6866008,65.6530324 L25.6866008,54.5331453 L26.4327221,54.5331453 L26.4313117,59.6208745 C26.5932299,59.3672779 26.7808181,59.1235543 26.9937941,58.8899859 C27.206488,58.6561354 27.4423131,58.4533145 27.7007052,58.2803949 C27.9590973,58.1077574 28.2479549,57.9681241 28.5675599,57.8614951 C28.8863188,57.754866 29.238646,57.7015515 29.6239774,57.7015515 C30.090268,57.7015515 30.5486601,57.7929478 31,57.9757405 C31.4504937,58.1585331 31.8535966,58.422567 32.2081805,58.767842 C32.5627645,59.1133992 32.8490832,59.5373766 33.0671368,60.0397743 C33.2851904,60.5424542 33.3943583,61.1088858 33.3943583,61.7382228 L33.3943583,61.7689704 C33.3943583,62.3985896 33.2851904,62.964457 33.0674189,63.4671368 C32.8493653,63.9700987 32.5633286,64.3963329 32.2087447,64.7466855 C31.8541608,65.0973202 31.4510578,65.3664316 31.0002821,65.5543018 C30.5492243,65.74189 30.0908322,65.8361072 29.6248237,65.8361072 L29.6248237,65.8361072 Z M29.5554302,65.1201693 C29.9819464,65.1201693 30.380536,65.0437236 30.751481,64.8913963 C31.1218618,64.7390691 31.4445698,64.5210155 31.7184767,64.2363893 C31.9926657,63.9523272 32.2084626,63.6045134 32.3658674,63.1932299 C32.5232722,62.7816643 32.6019746,62.3170663 32.6019746,61.7991537 L32.6019746,61.7689704 C32.6019746,61.261213 32.5207334,60.7991537 32.3582511,60.3827927 C32.1957687,59.9661495 31.9751763,59.6132581 31.6956276,59.3241185 C31.4163611,59.0344147 31.0913963,58.8110014 30.7207334,58.6535966 C30.3500705,58.4961918 29.9616361,58.4174894 29.5554302,58.4174894 C29.1492243,58.4174894 28.7557123,58.4990127 28.3751763,58.661213 C27.9940762,58.8236953 27.6564175,59.0524683 27.3619182,59.3466855 C27.0674189,59.6414669 26.8313117,59.9918195 26.6535966,60.3977433 C26.4758815,60.8042313 26.387024,61.2558533 26.387024,61.7534556 L26.387024,61.783921 C26.387024,62.2815233 26.4758815,62.7359661 26.6535966,63.1472496 C26.8313117,63.5585331 27.0674189,63.9091678 27.3619182,64.1983075 C27.6564175,64.4877292 27.9940762,64.7139633 28.3751763,64.8761636 C28.7557123,65.038646 29.1492243,65.1201693 29.5554302,65.1201693 L29.5554302,65.1201693 Z" id="Fill-3" fill="#1F2121" sketch:type="MSShapeGroup"></path>
                <path d="M39.867701,54.9901269 L43.4169252,54.9901269 C44.2493653,54.9901269 45.0138223,55.1249647 45.7094499,55.3937941 C46.4050776,55.6629055 47.0042313,56.0363893 47.5069111,56.5133992 C48.009591,56.9909732 48.3980254,57.5520451 48.6722144,58.196897 C48.9464034,58.8417489 49.0834979,59.5396333 49.0834979,60.2911142 L49.0834979,60.3215797 C49.0834979,61.0733427 48.9464034,61.774048 48.6722144,62.4236953 C48.3980254,63.0739069 48.009591,63.6375176 47.5069111,64.1145275 C47.0042313,64.5918195 46.4050776,64.967842 45.7094499,65.2417489 C45.0138223,65.5159379 44.2493653,65.6530324 43.4169252,65.6530324 L39.867701,65.6530324 L39.867701,54.9901269 L39.867701,54.9901269 Z M40.6598025,55.7060649 L40.6598025,64.9370945 L43.4169252,64.9370945 C44.157969,64.9370945 44.8284908,64.8172073 45.4276446,64.5779972 C46.0267983,64.3385049 46.5345557,64.0126939 46.9509168,63.6 C47.3672779,63.1873061 47.6897038,62.703244 47.9181946,62.1480959 C48.1466855,61.5929478 48.2609309,60.9943583 48.2609309,60.3520451 L48.2609309,60.3215797 C48.2609309,59.6899859 48.1466855,59.0939351 47.9181946,58.5337094 C47.6897038,57.9734838 47.3672779,57.4843441 46.9509168,57.0662906 C46.5345557,56.648519 46.0267983,56.3176305 45.4276446,56.0727786 C44.8284908,55.8284908 44.157969,55.7060649 43.4169252,55.7060649 L40.6598025,55.7060649 L40.6598025,55.7060649 Z" id="Fill-4" fill="#1F2121" sketch:type="MSShapeGroup"></path>
                <path d="M54.2778561,65.8361072 C53.7698166,65.8361072 53.2851904,65.7393512 52.8231312,65.5464034 C52.3607898,65.3537377 51.954866,65.0795487 51.6045134,64.7238364 C51.2541608,64.3684062 50.977433,63.9421721 50.77433,63.4442877 C50.570945,62.9469676 50.4696756,62.393512 50.4696756,61.783921 L50.4696756,61.7534556 C50.4696756,61.1949224 50.5630465,60.6696756 50.7506347,60.1768688 C50.9382228,59.6843441 51.196615,59.2555712 51.525811,58.8899859 C51.8552891,58.5241185 52.2428773,58.2346968 52.6888575,58.0214386 C53.1345557,57.8084626 53.6211566,57.7015515 54.1480959,57.7015515 C54.6953456,57.7015515 55.187024,57.8059238 55.6228491,58.0138223 C56.0586742,58.2220028 56.4310296,58.5088858 56.7399154,58.8744711 C57.0488011,59.2400564 57.2868829,59.6691114 57.4544429,60.1619182 C57.6211566,60.6544429 57.7052186,61.1898449 57.7052186,61.7689704 L57.7052186,61.9286319 C57.7052186,61.964457 57.700141,62.0124118 57.6899859,62.0733427 L51.2617772,62.0733427 C51.2922426,62.5585331 51.3988717,62.9881523 51.5816643,63.3616361 C51.764457,63.7356841 51.9929478,64.0538787 52.2671368,64.3167842 C52.5413258,64.5794076 52.8535966,64.7791255 53.2039492,64.9153738 C53.5543018,65.0519041 53.9221439,65.1201693 54.3083216,65.1201693 C54.9176305,65.1201693 55.4330042,65.003103 55.8544429,64.7695346 C56.2755994,64.5359661 56.6488011,64.2468265 56.974048,63.9012694 L57.4919605,64.3582511 C57.0959097,64.7847673 56.6465444,65.1376587 56.1438646,65.4169252 C55.6411848,65.6961918 55.0188999,65.8361072 54.2778561,65.8361072 L54.2778561,65.8361072 Z M56.9131171,61.403103 C56.8826516,61.0070522 56.8039492,60.629055 56.6770099,60.2682652 C56.5500705,59.9080395 56.3723554,59.5881523 56.1438646,59.3086037 C55.9153738,59.0296192 55.6335684,58.8059238 55.2984485,58.6383639 C54.9633286,58.4708039 54.5723554,58.387024 54.1255289,58.387024 C53.7396333,58.387024 53.3788434,58.4631876 53.0440056,58.6155148 C52.7088858,58.767842 52.4166432,58.9788434 52.1681241,59.2476728 C51.919323,59.5167842 51.7133992,59.8366714 51.5511989,60.2076164 C51.3887165,60.5782793 51.2922426,60.9765867 51.2617772,61.403103 L56.9131171,61.403103 L56.9131171,61.403103 Z" id="Fill-5" fill="#1F2121" sketch:type="MSShapeGroup"></path>
                <path d="M62.1074753,65.8053597 C61.5385049,65.8053597 60.9700987,65.6990127 60.4014104,65.4863188 C59.8324401,65.2739069 59.3399154,64.9994358 58.9238364,64.6629055 L59.3655853,64.0688293 C59.7921016,64.3937941 60.2389281,64.6454161 60.7060649,64.8228491 C61.1729196,65.0008463 61.6552891,65.0894217 62.1531735,65.0894217 C62.6809591,65.0894217 63.1252468,64.9576869 63.4860367,64.6944993 C63.8465444,64.4307475 64.0267983,64.071086 64.0267983,63.6152327 L64.0267983,63.5844852 C64.0267983,63.3616361 63.9706629,63.1692525 63.8592384,63.0067701 C63.7472496,62.8448519 63.5949224,62.7029619 63.4022567,62.5813822 C63.2093089,62.4598025 62.9909732,62.3585331 62.7472496,62.277574 C62.5035261,62.1963329 62.2445698,62.1153738 61.9703808,62.0341326 C61.6552891,61.9430183 61.3382228,61.8465444 61.0183357,61.745275 C60.6984485,61.6437236 60.4112835,61.5148096 60.1576869,61.3576869 C59.9035261,61.2005642 59.6981664,61.0059238 59.5407616,60.7726375 C59.3833568,60.5393512 59.3046544,60.2504937 59.3046544,59.9057828 L59.3046544,59.8753173 C59.3046544,59.561354 59.367842,59.2750353 59.4950635,59.0166432 C59.6217207,58.7582511 59.796897,58.5328632 60.0205924,58.3401975 C60.2437236,58.1478138 60.512835,57.9980254 60.8279267,57.8919605 C61.1424542,57.7856135 61.4880113,57.7320169 61.8637518,57.7320169 C62.3308886,57.7320169 62.8104372,57.8098731 63.303244,57.9655853 C63.7954866,58.1212976 64.2349788,58.3328632 64.6208745,58.6002821 L64.2248237,59.2248237 C63.8691114,58.9915374 63.4860367,58.8036671 63.0747532,58.661213 C62.6634697,58.5190409 62.2496474,58.4479549 61.8332863,58.4479549 C61.2947814,58.4479549 60.8660085,58.5771509 60.5461213,58.835543 C60.2262341,59.0942172 60.0662906,59.4157969 60.0662906,59.8008463 L60.0662906,59.8315938 C60.0662906,60.0440056 60.1272214,60.229055 60.2490832,60.3861777 C60.370945,60.5433004 60.5308886,60.6778561 60.728914,60.7889986 C60.9269394,60.9007052 61.157969,60.9991537 61.4220028,61.0854725 C61.6860367,61.1715092 61.9551481,61.2552891 62.2293371,61.3365303 C62.5441467,61.4276446 62.8538787,61.5263752 63.1585331,61.6327221 C63.4631876,61.7390691 63.7373766,61.8761636 63.9811001,62.0431594 C64.2248237,62.2104372 64.4203103,62.4107193 64.5675599,62.6437236 C64.7145275,62.8764457 64.7884344,63.1653032 64.7884344,63.5102962 L64.7884344,63.5404795 C64.7884344,63.8851904 64.7198872,64.196615 64.5827927,64.4753173 C64.4456982,64.7543018 64.2552891,64.9923836 64.0115656,65.1901269 C63.767842,65.3875882 63.4834979,65.5396333 63.1585331,65.6459803 C62.8332863,65.7520451 62.4832158,65.8053597 62.1074753,65.8053597" id="Fill-6" fill="#1F2121" sketch:type="MSShapeGroup"></path>
                <path d="M66.5706629,54.8377997 L67.499859,54.8377997 L67.499859,55.8583921 L66.5706629,55.8583921 L66.5706629,54.8377997 Z M66.6617772,57.8843441 L67.4081805,57.8843441 L67.4081805,65.6530324 L66.6617772,65.6530324 L66.6617772,57.8843441 Z" id="Fill-7" fill="#1F2121" sketch:type="MSShapeGroup"></path>
                <path d="M73.1424542,68.1207334 C71.8299013,68.1207334 70.6392102,67.719323 69.5712271,66.9176305 L70.012976,66.3083216 C70.9599436,67.0392102 72.0084626,67.4047955 73.1585331,67.4047955 C73.606488,67.4047955 74.016079,67.3416079 74.3878702,67.2149506 C74.7593794,67.0885755 75.0798307,66.8987306 75.3497884,66.6462623 C75.619464,66.3929478 75.8304654,66.0792666 75.9833568,65.7052186 C76.1362482,65.3308886 76.2126939,64.8959097 76.2126939,64.4 L76.2126939,63.2767278 C76.0397743,63.5207334 75.8471086,63.7489422 75.6338505,63.9622003 C75.4205924,64.1754584 75.1819464,64.3658674 74.9179126,64.5337094 C74.6535966,64.7009873 74.3593794,64.8332863 74.0344147,64.9294781 C73.7094499,65.0262341 73.3540197,65.0744711 72.9681241,65.0744711 C72.5009873,65.0744711 72.0440056,64.9881523 71.596897,64.8152327 C71.1503526,64.6425952 70.751481,64.3963329 70.4014104,64.0764457 C70.0510578,63.7568406 69.7692525,63.3734838 69.5559944,62.9263752 C69.3427362,62.4795487 69.2361072,61.9771509 69.2361072,61.4183357 L69.2361072,61.3878702 C69.2361072,60.8296192 69.3427362,60.3215797 69.5559944,59.8648801 C69.7692525,59.4078984 70.0510578,59.019464 70.4014104,58.6992948 C70.751481,58.3794076 71.1503526,58.1334274 71.596897,57.9607898 C72.0440056,57.7878702 72.5009873,57.7015515 72.9681241,57.7015515 C73.3540197,57.7015515 73.7119887,57.7500705 74.042031,57.8462623 C74.3717913,57.9430183 74.6688293,58.0696756 74.9331453,58.2270804 C75.196897,58.3847673 75.4358251,58.5698166 75.6490832,58.7833568 C75.8623413,58.996615 76.0502116,59.2149506 76.2126939,59.4380818 L76.2126939,57.8843441 L76.9590973,57.8843441 L76.9590973,64.4499295 C76.9590973,65.0186178 76.8724965,65.5210155 76.6992948,65.9576869 C76.5263752,66.3940762 76.2820874,66.7700987 75.9669958,67.0849083 C75.6307475,67.4200282 75.2211566,67.6764457 74.7376587,67.8541608 C74.2541608,68.0318759 73.722708,68.1207334 73.1424542,68.1207334 L73.1424542,68.1207334 Z M73.0363893,64.3582511 C73.4431594,64.3582511 73.8406206,64.2874471 74.2273625,64.145275 C74.6141044,64.003103 74.9576869,63.8025388 75.25811,63.5435825 C75.5582511,63.2843441 75.8002821,62.9746121 75.9833568,62.6141044 C76.1667137,62.2538787 76.2583921,61.8502116 76.2583921,61.403103 L76.2583921,61.3726375 C76.2583921,60.925811 76.1667137,60.5196051 75.9833568,60.1540197 C75.8002821,59.7884344 75.5582511,59.4761636 75.25811,59.2172073 C74.9576869,58.9582511 74.6141044,58.7605078 74.2273625,58.6231312 C73.8406206,58.4860367 73.4431594,58.4174894 73.0363893,58.4174894 C72.6293371,58.4174894 72.2425952,58.4860367 71.8758815,58.6231312 C71.5094499,58.7605078 71.1884344,58.9559944 70.9139633,59.2098731 C70.6389281,59.4637518 70.422567,59.770945 70.2648801,60.1311707 C70.1069111,60.4916784 70.0282087,60.9007052 70.0282087,61.3576869 L70.0282087,61.3878702 C70.0282087,61.8248237 70.1094499,62.22567 70.2722144,62.5915374 C70.4349788,62.9571227 70.6541608,63.2691114 70.928914,63.5280677 C71.2036671,63.787024 71.5246827,63.990409 71.8908322,64.1373766 C72.2575458,64.2849083 72.6394922,64.3582511 73.0363893,64.3582511 L73.0363893,64.3582511 Z" id="Fill-8" fill="#1F2121" sketch:type="MSShapeGroup"></path>
                <path d="M79.1830748,57.8843441 L79.9294781,57.8843441 L79.9294781,59.3314528 C80.1932299,58.8744711 80.5486601,58.4888575 80.9957687,58.174048 C81.4423131,57.8589563 82.0214386,57.7015515 82.7320169,57.7015515 C83.2197461,57.7015515 83.6561354,57.7802539 84.0423131,57.9379408 C84.4279267,58.0953456 84.7554302,58.3159379 85.0248237,58.6002821 C85.293653,58.8846262 85.4970381,59.2222849 85.6338505,59.6132581 C85.7712271,60.0045134 85.8397743,60.4332863 85.8397743,60.9007052 L85.8397743,65.6530324 L85.0930889,65.6530324 L85.0930889,61.0375176 C85.0930889,60.235543 84.8798307,59.5932299 84.4535966,59.1105783 C84.0270804,58.6284908 83.4177715,58.387024 82.6253879,58.387024 C82.2394922,58.387024 81.8840621,58.4558533 81.5593794,58.5926657 C81.2341326,58.7297602 80.9500705,58.9201693 80.706347,59.1638928 C80.4623413,59.4078984 80.2719323,59.699859 80.1351199,60.0397743 C79.9980254,60.3802539 79.9294781,60.7534556 79.9294781,61.1596615 L79.9294781,65.6530324 L79.1830748,65.6530324 L79.1830748,57.8843441" id="Fill-9" fill="#1F2121" sketch:type="MSShapeGroup"></path>
                <path d="M99.0002821,63.9622003 C98.4925247,64.551481 97.9441467,65.0056417 97.3551481,65.3255289 C96.7661495,65.6454161 96.1111425,65.8053597 95.3901269,65.8053597 C94.9229901,65.8053597 94.4888575,65.7317348 94.0877292,65.5844852 C93.6866008,65.4375176 93.3416079,65.2341326 93.0519041,64.9751763 C92.7627645,64.71622 92.5339915,64.406488 92.3664316,64.0459803 C92.1991537,63.6857546 92.1153738,63.287165 92.1153738,62.8504937 L92.1153738,62.8197461 C92.1153738,62.0990127 92.3562764,61.4792666 92.838646,60.961354 C93.3210155,60.4434415 93.9988717,60.0220028 94.8722144,59.6970381 C94.4660085,59.2504937 94.1661495,58.8442877 93.9737659,58.4787024 C93.780536,58.112835 93.6840621,57.7066291 93.6840621,57.2598025 L93.6840621,57.2293371 C93.6840621,56.8843441 93.7500705,56.564457 93.8820874,56.2699577 C94.0138223,55.9754584 94.196897,55.7190409 94.4304654,55.5004231 C94.6640339,55.2823695 94.9458392,55.1119887 95.2758815,54.9901269 C95.6059238,54.8682652 95.9636107,54.8073343 96.3497884,54.8073343 C96.6950635,54.8073343 97.0174894,54.8682652 97.3170663,54.9901269 C97.6166432,55.1119887 97.8755994,55.277292 98.0939351,55.4851904 C98.3122708,55.693653 98.4849083,55.9399154 98.6118477,56.2242595 C98.738787,56.5083216 98.8022567,56.8081805 98.8022567,57.122708 L98.8022567,57.1531735 C98.8022567,57.8234133 98.5712271,58.3794076 98.1091678,58.8214386 C97.6471086,59.2629055 97.0050776,59.6262341 96.1825106,59.9102962 L98.9850494,62.7892807 C99.2490832,62.4236953 99.4953456,62.022567 99.7238364,61.5858956 C99.9523272,61.1492243 100.168124,60.6874471 100.371227,60.1997179 L101.087447,60.4894217 C100.843441,61.0375176 100.592384,61.5503526 100.333427,62.0279267 C100.074471,62.5052186 99.7974612,62.9365303 99.5029619,63.322426 L101.467983,65.348378 L100.843441,65.8662906 L99.0002821,63.9622003 L99.0002821,63.9622003 Z M95.4053597,65.1201693 C96.0045134,65.1201693 96.557969,64.9700987 97.0660085,64.6705219 C97.5734838,64.370945 98.0507757,63.9622003 98.4978843,63.4442877 L95.3444288,60.1844852 C94.4916784,60.4792666 93.8719323,60.8572638 93.4860367,61.319323 C93.100141,61.7816643 92.9071932,62.2713681 92.9071932,62.7892807 L92.9071932,62.8197461 C92.9071932,63.1449929 92.9681241,63.4471086 93.0899859,63.7260931 C93.2121298,64.0053597 93.3844852,64.2493653 93.6081805,64.4572638 C93.8313117,64.6654443 94.0953456,64.8279267 94.4,64.9447109 C94.7049365,65.0617772 95.0397743,65.1201693 95.4053597,65.1201693 L95.4053597,65.1201693 Z M95.7100141,59.4228491 C97.2431594,58.935402 98.0101551,58.1889986 98.0101551,57.1836389 L98.0101551,57.1531735 C98.0101551,56.6761636 97.8502116,56.277292 97.5303244,55.9574048 C97.2104372,55.6375176 96.8070522,55.477574 96.319323,55.477574 C95.7712271,55.477574 95.3266573,55.6428773 94.9867419,55.9726375 C94.6462623,56.3029619 94.4761636,56.7114245 94.4761636,57.1991537 L94.4761636,57.2293371 C94.4761636,57.4022567 94.4964739,57.564457 94.5373766,57.7167842 C94.577433,57.8693935 94.6462623,58.029055 94.7427362,58.196897 C94.8392102,58.3641749 94.9658674,58.5469676 95.1235543,58.7449929 C95.2809591,58.9430183 95.4764457,59.1692525 95.7100141,59.4228491 L95.7100141,59.4228491 Z" id="Fill-10" fill="#1F2121" sketch:type="MSShapeGroup"></path>
                <path d="M107.515374,54.9901269 L111.064598,54.9901269 C111.897038,54.9901269 112.661213,55.1249647 113.357123,55.3937941 C114.052186,55.6629055 114.651622,56.0363893 115.154584,56.5133992 C115.656982,56.9909732 116.045698,57.5520451 116.319887,58.196897 C116.593794,58.8417489 116.731171,59.5396333 116.731171,60.2911142 L116.731171,60.3215797 C116.731171,61.0733427 116.593794,61.774048 116.319887,62.4236953 C116.045698,63.0739069 115.656982,63.6375176 115.154584,64.1145275 C114.651622,64.5918195 114.052186,64.967842 113.357123,65.2417489 C112.661213,65.5159379 111.897038,65.6530324 111.064598,65.6530324 L107.515374,65.6530324 L107.515374,54.9901269 L107.515374,54.9901269 Z M108.307193,55.7060649 L108.307193,64.9370945 L111.064598,64.9370945 C111.805642,64.9370945 112.475882,64.8172073 113.075317,64.5779972 C113.674471,64.3385049 114.181664,64.0126939 114.598307,63.6 C115.014669,63.1873061 115.337094,62.703244 115.565867,62.1480959 C115.794076,61.5929478 115.908604,60.9943583 115.908604,60.3520451 L115.908604,60.3215797 C115.908604,59.6899859 115.794076,59.0939351 115.565867,58.5337094 C115.337094,57.9734838 115.014669,57.4843441 114.598307,57.0662906 C114.181664,56.648519 113.674471,56.3176305 113.075317,56.0727786 C112.475882,55.8284908 111.805642,55.7060649 111.064598,55.7060649 L108.307193,55.7060649 L108.307193,55.7060649 Z" id="Fill-11" fill="#1F2121" sketch:type="MSShapeGroup"></path>
                <path d="M121.925529,65.8361072 C121.417489,65.8361072 120.932581,65.7393512 120.470522,65.5464034 C120.008745,65.3537377 119.602539,65.0795487 119.252186,64.7238364 C118.901834,64.3684062 118.624824,63.9421721 118.422003,63.4442877 C118.218618,62.9469676 118.117348,62.393512 118.117348,61.783921 L118.117348,61.7534556 C118.117348,61.1949224 118.211001,60.6696756 118.39859,60.1768688 C118.585896,59.6843441 118.844288,59.2555712 119.173766,58.8899859 C119.502962,58.5241185 119.89055,58.2346968 120.33653,58.0214386 C120.782228,57.8084626 121.268547,57.7015515 121.795769,57.7015515 C122.343018,57.7015515 122.834415,57.8059238 123.27024,58.0138223 C123.706065,58.2220028 124.07842,58.5088858 124.387306,58.8744711 C124.696474,59.2400564 124.934838,59.6691114 125.101834,60.1619182 C125.269111,60.6544429 125.352891,61.1898449 125.352891,61.7689704 L125.352891,61.9286319 C125.352891,61.964457 125.347532,62.0124118 125.337377,62.0733427 L118.90945,62.0733427 C118.939915,62.5585331 119.046544,62.9881523 119.229337,63.3616361 C119.411848,63.7356841 119.640621,64.0538787 119.91481,64.3167842 C120.188717,64.5794076 120.501269,64.7791255 120.851622,64.9153738 C121.201975,65.0519041 121.569817,65.1201693 121.955994,65.1201693 C122.565303,65.1201693 123.080395,65.003103 123.501834,64.7695346 C123.923554,64.5359661 124.296474,64.2468265 124.621721,63.9012694 L125.139633,64.3582511 C124.743583,64.7847673 124.294217,65.1376587 123.791537,65.4169252 C123.288858,65.6961918 122.666855,65.8361072 121.925529,65.8361072 L121.925529,65.8361072 Z M124.560508,61.403103 C124.530324,61.0070522 124.451622,60.629055 124.324401,60.2682652 C124.197461,59.9080395 124.019746,59.5881523 123.791537,59.3086037 C123.562764,59.0296192 123.281241,58.8059238 122.946121,58.6383639 C122.610719,58.4708039 122.220028,58.387024 121.77292,58.387024 C121.387024,58.387024 121.026798,58.4631876 120.691678,58.6155148 C120.356559,58.767842 120.064598,58.9788434 119.815797,59.2476728 C119.566714,59.5167842 119.361072,59.8366714 119.198872,60.2076164 C119.036107,60.5782793 118.939915,60.9765867 118.90945,61.403103 L124.560508,61.403103 L124.560508,61.403103 Z" id="Fill-12" fill="#1F2121" sketch:type="MSShapeGroup"></path>
                <path d="M126.068547,57.8843441 L126.936812,57.8843441 L129.876728,64.8152327 L132.847109,57.8843441 L133.684908,57.8843441 L130.196615,65.7139633 L129.556841,65.7139633 L126.068547,57.8843441" id="Fill-13" fill="#1F2121" sketch:type="MSShapeGroup"></path>
                <path d="M137.934838,65.8361072 C137.426798,65.8361072 136.94189,65.7393512 136.479831,65.5464034 C136.018054,65.3537377 135.611848,65.0795487 135.261495,64.7238364 C134.911142,64.3684062 134.634133,63.9421721 134.431312,63.4442877 C134.227927,62.9469676 134.126657,62.393512 134.126657,61.783921 L134.126657,61.7534556 C134.126657,61.1949224 134.220028,60.6696756 134.407898,60.1768688 C134.595205,59.6843441 134.853597,59.2555712 135.183075,58.8899859 C135.512271,58.5241185 135.899859,58.2346968 136.345839,58.0214386 C136.791537,57.8084626 137.277856,57.7015515 137.804795,57.7015515 C138.352327,57.7015515 138.843724,57.8059238 139.279549,58.0138223 C139.715374,58.2220028 140.087729,58.5088858 140.396615,58.8744711 C140.705783,59.2400564 140.943865,59.6691114 141.111142,60.1619182 C141.27842,60.6544429 141.3622,61.1898449 141.3622,61.7689704 L141.3622,61.9286319 C141.3622,61.964457 141.356841,62.0124118 141.346685,62.0733427 L134.918759,62.0733427 C134.948942,62.5585331 135.055571,62.9881523 135.238646,63.3616361 C135.421157,63.7356841 135.649929,64.0538787 135.924118,64.3167842 C136.198025,64.5794076 136.510578,64.7791255 136.860931,64.9153738 C137.211283,65.0519041 137.579126,65.1201693 137.965303,65.1201693 C138.574612,65.1201693 139.089704,65.003103 139.511142,64.7695346 C139.932863,64.5359661 140.305783,64.2468265 140.63103,63.9012694 L141.148942,64.3582511 C140.752891,64.7847673 140.303526,65.1376587 139.800846,65.4169252 C139.298166,65.6961918 138.675882,65.8361072 137.934838,65.8361072 L137.934838,65.8361072 Z M140.569817,61.403103 C140.539633,61.0070522 140.460931,60.629055 140.333709,60.2682652 C140.20677,59.9080395 140.029055,59.5881523 139.800846,59.3086037 C139.572073,59.0296192 139.29055,58.8059238 138.95543,58.6383639 C138.620028,58.4708039 138.229055,58.387024 137.782228,58.387024 C137.396333,58.387024 137.036107,58.4631876 136.700705,58.6155148 C136.365867,58.767842 136.073907,58.9788434 135.825106,59.2476728 C135.576023,59.5167842 135.370381,59.8366714 135.208181,60.2076164 C135.045416,60.5782793 134.948942,60.9765867 134.918759,61.403103 L140.569817,61.403103 L140.569817,61.403103 Z" id="Fill-14" fill="#1F2121" sketch:type="MSShapeGroup"></path>
                <path d="M143.053032,54.5331453 L143.799436,54.5331453 L143.799436,65.6530324 L143.053032,65.6530324 L143.053032,54.5331453 Z" id="Fill-15" fill="#1F2121" sketch:type="MSShapeGroup"></path>
                <path d="M149.564739,65.8361072 C148.986742,65.8361072 148.457264,65.7266573 147.976023,65.5086037 C147.494499,65.2899859 147.076446,64.9980254 146.72158,64.6324401 C146.366714,64.2668547 146.09055,63.8406206 145.892807,63.3528914 C145.695346,62.8654443 145.596615,62.3475317 145.596615,61.7991537 L145.596615,61.7689704 C145.596615,61.2203103 145.695346,60.7023977 145.892807,60.2149506 C146.09055,59.7275035 146.369535,59.2959097 146.729196,58.9201693 C147.08914,58.5447109 147.512553,58.2476728 147.998872,58.029055 C148.485472,57.8110014 149.017489,57.7015515 149.594922,57.7015515 C150.172638,57.7015515 150.702398,57.8110014 151.183921,58.029055 C151.665162,58.2476728 152.083498,58.5393512 152.438082,58.9049365 C152.792666,59.2705219 153.069111,59.6970381 153.266573,60.1844852 C153.464316,60.6719323 153.563329,61.1898449 153.563329,61.7382228 L153.563329,61.7689704 C153.563329,62.3170663 153.464316,62.8349788 153.266573,63.322426 C153.069111,63.8098731 152.790691,64.2414669 152.430465,64.6172073 C152.070804,64.9929478 151.647673,65.2899859 151.161072,65.5086037 C150.674753,65.7266573 150.142454,65.8361072 149.564739,65.8361072 L149.564739,65.8361072 Z M149.594922,65.1201693 C150.053032,65.1201693 150.478138,65.0315938 150.87024,64.8544429 C151.262059,64.677574 151.598025,64.4400564 151.877856,64.14189 C152.157687,63.8437236 152.376587,63.4925247 152.534274,63.0880113 C152.692243,62.68378 152.771227,62.2538787 152.771227,61.7988717 L152.771227,61.7689704 C152.771227,61.3035261 152.689422,60.8665726 152.526657,60.4569817 C152.363893,60.0476728 152.137377,59.6916784 151.847391,59.3881523 C151.556841,59.0849083 151.215797,58.8471086 150.82426,58.6753173 C150.43244,58.5035261 150.012694,58.4174894 149.564739,58.4174894 C149.106629,58.4174894 148.681241,58.5060649 148.289704,58.6829337 C147.897602,58.8600846 147.561636,59.0976023 147.281805,59.3957687 C147.001975,59.6939351 146.783075,60.045134 146.625106,60.4496474 C146.467419,60.8541608 146.388717,61.28378 146.388717,61.7385049 L146.388717,61.7689704 C146.388717,62.2338505 146.469958,62.671086 146.632722,63.0803949 C146.795769,63.4897038 147.022285,63.8462623 147.312553,64.1495063 C147.602539,64.4527504 147.943583,64.690268 148.335402,64.8620592 C148.726939,65.0341326 149.14725,65.1201693 149.594922,65.1201693 L149.594922,65.1201693 Z" id="Fill-16" fill="#1F2121" sketch:type="MSShapeGroup"></path>
                <path d="M155.269676,57.8843441 L156.015797,57.8843441 L156.015797,59.6208745 C156.177715,59.3672779 156.365303,59.1235543 156.578279,58.8899859 C156.790973,58.6561354 157.026516,58.4533145 157.284908,58.2803949 C157.5433,58.1077574 157.832158,57.9681241 158.151481,57.8614951 C158.47024,57.754866 158.822567,57.7015515 159.207898,57.7015515 C159.673907,57.7015515 160.132299,57.7929478 160.583357,57.9757405 C161.034133,58.1585331 161.436953,58.422567 161.791819,58.767842 C162.146403,59.1133992 162.43244,59.5373766 162.650494,60.0397743 C162.868265,60.5424542 162.977151,61.1088858 162.977151,61.7382228 L162.977151,61.7689704 C162.977151,62.3985896 162.868265,62.964457 162.650494,63.4671368 C162.43244,63.9700987 162.146403,64.3963329 161.791819,64.7466855 C161.436953,65.0973202 161.034133,65.3664316 160.583357,65.5543018 C160.132299,65.74189 159.673907,65.8361072 159.207898,65.8361072 C158.822567,65.8361072 158.467701,65.7850494 158.143583,65.68378 C157.819464,65.5822285 157.52835,65.445134 157.269676,65.2724965 C157.011001,65.0995769 156.777997,64.9015515 156.570663,64.6781382 C156.363047,64.4550071 156.177715,64.2211566 156.015797,63.977433 L156.015797,68.090268 L155.269676,68.090268 L155.269676,57.8843441 L155.269676,57.8843441 Z M159.138505,65.1201693 C159.565021,65.1201693 159.963329,65.0437236 160.334274,64.8913963 C160.704937,64.7390691 161.027362,64.5210155 161.301551,64.2363893 C161.57574,63.9523272 161.791537,63.6045134 161.948942,63.1932299 C162.106347,62.7816643 162.185049,62.3170663 162.185049,61.7991537 L162.185049,61.7689704 C162.185049,61.261213 162.103526,60.7991537 161.941326,60.3827927 C161.778843,59.9661495 161.557969,59.6132581 161.278702,59.3241185 C160.999154,59.0344147 160.674471,58.8110014 160.303808,58.6535966 C159.933145,58.4961918 159.544711,58.4174894 159.138505,58.4174894 C158.732299,58.4174894 158.339069,58.4990127 157.957969,58.661213 C157.577151,58.8236953 157.239492,59.0524683 156.944993,59.3466855 C156.650212,59.6414669 156.414104,59.9918195 156.236671,60.3977433 C156.058956,60.8042313 155.970099,61.2558533 155.970099,61.7534556 L155.970099,61.783921 C155.970099,62.2815233 156.058956,62.7359661 156.236671,63.1472496 C156.414104,63.5585331 156.650212,63.9091678 156.944993,64.1983075 C157.239492,64.4877292 157.577151,64.7139633 157.957969,64.8761636 C158.339069,65.038646 158.732299,65.1201693 159.138505,65.1201693 L159.138505,65.1201693 Z" id="Fill-17" fill="#1F2121" sketch:type="MSShapeGroup"></path>
                <path d="M164.713681,57.8843441 L165.460085,57.8843441 L165.460085,59.2705219 C165.581664,59.067701 165.721298,58.8722144 165.878984,58.6840621 C166.036389,58.4961918 166.216361,58.3286319 166.419746,58.1813822 C166.622849,58.0341326 166.858956,57.9173484 167.128068,57.8313117 C167.396897,57.7449929 167.704372,57.7015515 168.049365,57.7015515 C168.384767,57.7015515 168.691678,57.7472496 168.971227,57.838646 C169.250212,57.9300423 169.496474,58.0519041 169.710014,58.2042313 C169.923272,58.3565585 170.108322,58.5345557 170.266008,58.7376587 C170.423131,58.9404795 170.557687,59.1540197 170.669394,59.3771509 C170.791537,59.1638928 170.938505,58.9559944 171.111425,58.7526093 C171.28378,58.5497884 171.484626,58.3695346 171.713117,58.2118477 C171.941326,58.054725 172.200564,57.9300423 172.489704,57.838646 C172.779408,57.7472496 173.106911,57.7015515 173.472496,57.7015515 C173.929478,57.7015515 174.343018,57.7802539 174.713681,57.9379408 C175.084626,58.0953456 175.399436,58.3136812 175.658392,58.5926657 C175.917348,58.8722144 176.115374,59.2121298 176.252186,59.6132581 C176.389563,60.0146685 176.45811,60.4586742 176.45811,60.9464034 L176.45811,65.6530324 L175.711425,65.6530324 L175.711425,61.0375176 C175.711425,60.1949224 175.508322,59.5424542 175.102116,59.0803949 C174.696192,58.6183357 174.132581,58.387024 173.411566,58.387024 C173.086319,58.387024 172.774048,58.4479549 172.474753,58.5698166 C172.174894,58.6919605 171.913681,58.8693935 171.690268,59.1029619 C171.466855,59.3368124 171.288858,59.6234133 171.157123,59.9636107 C171.024824,60.3038082 170.959097,60.6925247 170.959097,61.128914 L170.959097,65.6530324 L170.212412,65.6530324 L170.212412,60.9918195 C170.212412,60.1796897 170.009591,59.5424542 169.603385,59.0803949 C169.197179,58.6183357 168.643724,58.387024 167.942736,58.387024 C167.597743,58.387024 167.272496,58.45811 166.967842,58.6002821 C166.663188,58.7427362 166.399154,58.9404795 166.176023,59.1943583 C165.952609,59.448237 165.777433,59.7427362 165.650212,60.0781382 C165.523272,60.412976 165.460085,60.7785614 165.460085,61.1746121 L165.460085,65.6530324 L164.713681,65.6530324 L164.713681,57.8843441" id="Fill-18" fill="#1F2121" sketch:type="MSShapeGroup"></path>
                <path d="M181.865444,65.8361072 C181.357405,65.8361072 180.872496,65.7393512 180.410719,65.5464034 C179.94866,65.3537377 179.542736,65.0795487 179.192102,64.7238364 C178.841749,64.3684062 178.565021,63.9421721 178.361918,63.4442877 C178.158533,62.9469676 178.057264,62.393512 178.057264,61.783921 L178.057264,61.7534556 C178.057264,61.1949224 178.150917,60.6696756 178.338505,60.1768688 C178.525811,59.6843441 178.784203,59.2555712 179.113681,58.8899859 C179.442877,58.5241185 179.830465,58.2346968 180.276446,58.0214386 C180.722144,57.8084626 181.208745,57.7015515 181.735684,57.7015515 C182.282934,57.7015515 182.774612,57.8059238 183.210155,58.0138223 C183.64598,58.2220028 184.018618,58.5088858 184.327221,58.8744711 C184.636389,59.2400564 184.874753,59.6691114 185.042031,60.1619182 C185.209027,60.6544429 185.292807,61.1898449 185.292807,61.7689704 L185.292807,61.9286319 C185.292807,61.964457 185.287729,62.0124118 185.277574,62.0733427 L178.849365,62.0733427 C178.879831,62.5585331 178.98646,62.9881523 179.169252,63.3616361 C179.352045,63.7356841 179.580536,64.0538787 179.854725,64.3167842 C180.128914,64.5794076 180.441185,64.7791255 180.791537,64.9153738 C181.14189,65.0519041 181.509732,65.1201693 181.89591,65.1201693 C182.505219,65.1201693 183.020592,65.003103 183.442031,64.7695346 C183.86347,64.5359661 184.236389,64.2468265 184.561636,63.9012694 L185.079549,64.3582511 C184.683498,64.7847673 184.234133,65.1376587 183.731453,65.4169252 C183.228773,65.6961918 182.60677,65.8361072 181.865444,65.8361072 L181.865444,65.8361072 Z M184.500705,61.403103 C184.47024,61.0070522 184.391537,60.629055 184.264598,60.2682652 C184.137659,59.9080395 183.959944,59.5881523 183.731453,59.3086037 C183.502962,59.0296192 183.221157,58.8059238 182.886037,58.6383639 C182.550917,58.4708039 182.159944,58.387024 181.713117,58.387024 C181.327221,58.387024 180.966714,58.4631876 180.631594,58.6155148 C180.296474,58.767842 180.004513,58.9788434 179.755712,59.2476728 C179.506911,59.5167842 179.300987,59.8366714 179.138787,60.2076164 C178.976305,60.5782793 178.879831,60.9765867 178.849365,61.403103 L184.500705,61.403103 L184.500705,61.403103 Z" id="Fill-19" fill="#1F2121" sketch:type="MSShapeGroup"></path>
                <path d="M186.87701,57.8843441 L187.623413,57.8843441 L187.623413,59.3314528 C187.887165,58.8744711 188.242595,58.4888575 188.689704,58.174048 C189.136248,57.8589563 189.715374,57.7015515 190.425952,57.7015515 C190.913681,57.7015515 191.350353,57.7802539 191.736248,57.9379408 C192.121862,58.0953456 192.449365,58.3159379 192.718759,58.6002821 C192.98787,58.8846262 193.190973,59.2222849 193.328068,59.6132581 C193.465162,60.0045134 193.533709,60.4332863 193.533709,60.9007052 L193.533709,65.6530324 L192.787306,65.6530324 L192.787306,61.0375176 C192.787306,60.235543 192.574048,59.5932299 192.147532,59.1105783 C191.721016,58.6284908 191.111707,58.387024 190.319605,58.387024 C189.933427,58.387024 189.578279,58.4558533 189.253315,58.5926657 C188.928068,58.7297602 188.644006,58.9201693 188.400282,59.1638928 C188.156559,59.4078984 187.96615,59.699859 187.829055,60.0397743 C187.691961,60.3802539 187.623413,60.7534556 187.623413,61.1596615 L187.623413,65.6530324 L186.87701,65.6530324 L186.87701,57.8843441" id="Fill-20" fill="#1F2121" sketch:type="MSShapeGroup"></path>
                <path d="M197.890268,65.790409 C197.585331,65.790409 197.300987,65.7495063 197.036953,65.6682652 C196.77292,65.5873061 196.54189,65.4578279 196.343865,65.2798307 C196.145839,65.1023977 195.990973,64.8787024 195.879549,64.609591 C195.76756,64.3407616 195.711989,64.0231312 195.711989,63.6575458 L195.711989,58.5698166 L194.584767,58.5698166 L194.584767,57.8843441 L195.711989,57.8843441 L195.711989,55.4016925 L196.45811,55.4016925 L196.45811,57.8843441 L199.184767,57.8843441 L199.184767,58.5698166 L196.45811,58.5698166 L196.45811,63.5695346 C196.45811,64.1272214 196.602821,64.5173484 196.892243,64.7401975 C197.181946,64.9627645 197.554866,65.0744711 198.011848,65.0744711 C198.204795,65.0744711 198.387588,65.0552891 198.560226,65.0166432 C198.732863,64.9785614 198.930889,64.9111425 199.154302,64.8152327 L199.154302,65.5159379 C198.951199,65.6073343 198.750635,65.6758815 198.552609,65.7215797 C198.354584,65.7672779 198.133992,65.790409 197.890268,65.790409" id="Fill-21" fill="#1F2121" sketch:type="MSShapeGroup"></path>
                <path d="M0.263469676,0.943864598 L7.98138223,0.943864598 L33.3692525,33.7114245 L33.3692525,0.943864598 L41.5610719,0.943864598 L41.5610719,48.3345557 L34.5881523,48.3345557 L8.45528914,14.6197461 L8.45528914,48.3345557 L0.263469676,48.3345557 L0.263469676,0.943864598" id="Fill-22" fill="#231814" sketch:type="MSShapeGroup"></path>
                <path d="M172.919605,41.1847673 L172.919605,28.2087447 L196.614951,28.2087447 L196.614951,20.8744711 L172.919605,20.8744711 L172.919605,8.46262341 L199.717913,8.46262341 L199.717913,1.12834979 L164.456982,1.12834979 L164.456982,20.8744711 L153.847955,20.8744711 C153.55543,18.899859 153.048801,17.0493653 152.318759,15.3317348 C151.100141,12.4662906 149.373484,9.90578279 147.139633,7.78392102 C144.905501,5.6629055 142.241749,4.06149506 139.150917,2.8651622 C136.058674,1.6696756 132.662059,1.12834979 128.961918,1.12834979 L111.424542,1.12834979 L111.424542,20.8744711 L100.910578,20.8744711 C100.618336,18.899859 100.110296,16.9746121 99.377433,15.196615 C98.1588152,12.2409027 96.4662906,9.58956276 94.299859,7.377433 C92.1331453,5.16671368 89.5373766,3.38335684 86.5142454,2.09703808 C83.4899859,0.81100141 80.1503526,0.150916784 76.4944993,0.150916784 C72.838646,0.150916784 69.4978843,0.797461213 66.4747532,2.10578279 C63.4504937,3.41551481 60.8324401,5.1819464 58.6214386,7.41607898 C56.409591,9.65021157 54.822567,12.2442877 53.6039492,15.1997179 C52.3856135,18.1562764 51.9040903,21.3023977 51.9040903,24.6417489 L51.9040903,24.777433 C51.9040903,28.1179126 52.3856135,31.2660085 53.6039492,34.2214386 C54.822567,37.1782793 56.4513399,39.7624824 58.6174894,41.9734838 C60.7842031,44.1853315 63.3469676,45.9339915 66.3712271,47.2203103 C69.3943583,48.506347 72.7190409,49.1495063 76.3748942,49.1495063 C80.0307475,49.1495063 83.3624824,48.4947814 86.3867419,47.1861777 C89.4098731,45.8778561 92.0239774,44.1060649 94.2361072,41.8719323 C96.4468265,39.6377997 98.1607898,37.1207334 99.3794076,34.1641749 C100.174612,32.235543 100.703244,30.4654443 100.97969,28.2087447 L111.424542,28.2087447 L111.424542,48.5190409 L128.961918,48.5190409 C132.662059,48.5190409 136.058674,47.8188999 139.150917,46.6 C142.241749,45.3816643 144.905501,43.6668547 147.139633,41.5447109 C149.373484,39.4239774 151.100141,36.97433 152.318759,34.0851904 C153.112271,32.2045134 153.642877,30.4654443 153.919605,28.2087447 L164.456982,28.2087447 L164.456982,48.5190409 L200,48.5190409 L200,41.1847673 L172.919605,41.1847673 L172.919605,41.1847673 Z M91.2868829,31.3345557 C90.4970381,33.3698166 89.4019746,35.0942172 88.0036671,36.5867419 C86.6042313,38.0792666 84.9232722,39.2468265 82.9599436,40.128914 C80.996615,41.0110014 78.8406206,41.4411848 76.4944993,41.4411848 C74.1472496,41.4411848 71.980536,40.996615 69.9952045,40.1142454 C68.0084626,39.232158 66.3055007,38.0205924 64.88378,36.4823695 C63.4620592,34.9444288 62.4891396,33.1574048 61.700141,31.122426 C60.909732,29.087165 60.6488011,26.9150917 60.6488011,24.6078984 L60.6488011,24.4727786 C60.6488011,22.1664316 60.909732,19.9960508 61.700141,17.9607898 C62.4891396,15.9252468 63.5173484,14.1503526 64.9167842,12.635543 C66.3153738,11.1207334 67.9636107,9.92214386 69.9269394,9.04005642 C71.890268,8.15768688 74.0284908,7.71650212 76.3757405,7.71650212 C78.7218618,7.71650212 80.8801128,8.16953456 82.8665726,9.07390691 C84.8521862,9.97827927 86.5523272,11.1884344 87.974048,12.703244 C89.3957687,14.2180536 90.4990127,16.138787 91.2891396,18.1963329 C91.606488,19.0239774 91.8550071,20.0282087 92.0448519,20.8744711 L84.5695346,20.8744711 C84.1523272,20.0282087 83.5410437,18.9796897 82.8755994,18.2708039 C82.1269394,17.4733427 81.1748942,16.7619182 80.1373766,16.2894217 C79.08378,15.8098731 77.8795487,15.5328632 76.6499295,15.5328632 C75.4214386,15.5328632 74.2708039,15.7534556 73.2299013,16.2211566 C72.1963329,16.6854725 71.2964739,17.3196051 70.5554302,18.1221439 C69.8217207,18.91622 69.1260931,19.8510578 68.71622,20.9086037 C68.3066291,21.9630465 67.9830748,23.0959097 67.9830748,24.28378 L67.9830748,24.3447109 C67.9830748,25.5328632 68.3066291,26.6702398 68.7165021,27.7252468 C69.125811,28.7816643 69.7689704,29.725811 70.5133992,30.5308886 C71.2657264,31.3449929 72.2062059,31.9929478 73.251622,32.4572638 C74.300141,32.9229901 75.4688293,33.1593794 76.6961918,33.1593794 C77.9252468,33.1593794 79.0832158,32.922426 80.1235543,32.454725 C81.1534556,31.9921016 82.054725,31.4349788 82.7949224,30.6456982 C83.4685472,29.9266573 84.164457,29.3370945 84.5943583,28.2087447 L92.1830748,28.2087447 C91.9856135,29.3370945 91.6874471,30.3015515 91.2868829,31.3345557 L91.2868829,31.3345557 Z M119.887165,8.74471086 L128.961918,8.74471086 C131.443441,8.74471086 133.700987,9.04315938 135.732017,9.85557123 C137.763047,10.6679831 139.489422,11.7311707 140.91086,13.1528914 C142.332863,14.5746121 143.438364,16.3858956 144.228491,18.3715092 C144.536248,19.1461213 144.781946,20.0282087 144.969817,20.8744711 L119.887165,20.8744711 L119.887165,8.74471086 L119.887165,8.74471086 Z M144.228491,31.2530324 C143.438364,33.2163611 142.332863,34.8699577 140.91086,36.2916784 C139.489422,37.7133992 137.763047,38.874189 135.732017,39.6634697 C133.700987,40.4535966 131.443441,40.9026798 128.961918,40.9026798 L119.887165,40.9026798 L119.887165,28.2087447 L145.124683,28.2087447 C144.927221,29.3370945 144.629055,30.2561354 144.228491,31.2530324 L144.228491,31.2530324 Z" id="Fill-23" fill="#231814" sketch:type="MSShapeGroup"></path>
            </g>
        </g>
    </g>
</svg>