<?xml version="1.0" encoding="UTF-8" standalone="no"?>
<svg width="100px" height="25px" viewBox="0 0 100 25" version="1.1" xmlns="http://www.w3.org/2000/svg" xmlns:xlink="http://www.w3.org/1999/xlink" xmlns:sketch="http://www.bohemiancoding.com/sketch/ns">
    <!-- Generator: Sketch 3.3.3 (12072) - http://www.bohemiancoding.com/sketch -->
    <title>logo_node</title>
    <desc>Created with Sketch.</desc>
    <defs></defs>
    <g id="archive" stroke="none" stroke-width="1" fill="none" fill-rule="evenodd" sketch:type="MSPage">
        <g id="Desktop" sketch:type="MSArtboardGroup" transform="translate(-50.000000, -34.000000)" fill="#231814">
            <g id="header" sketch:type="MSLayerGroup" transform="translate(50.000000, 34.000000)">
                <g id="logo_node" sketch:type="MSShapeGroup">
                    <path d="M0,0.423728814 L3.85508475,0.423728814 L16.5254237,16.8276836 L16.5254237,0.423728814 L20.6214689,0.423728814 L20.6214689,24.1525424 L17.1771186,24.1525424 L4.0960452,7.26836158 L4.0960452,24.1525424 L0,24.1525424 L0,0.423728814" id="Fill-1"></path>
                    <path d="M86.440678,20.480226 L86.440678,13.9830508 L98.3050847,13.9830508 L98.3050847,10.3107345 L86.440678,10.3107345 L86.440678,4.0960452 L99.8587571,4.0960452 L99.8587571,0.423728814 L82.2033898,0.423728814 L82.2033898,10.3107345 L76.8913842,10.3107345 C76.7449153,9.3220339 76.4912429,8.44011299 76.1257062,7.58022599 C75.5155367,6.14548023 74.6509887,4.88573446 73.5324859,3.82330508 C72.4138418,2.76129944 71.0800847,1.9259887 69.5324859,1.3269774 C67.9841808,0.728248588 66.2834746,0.423728814 64.430791,0.423728814 L55.6497175,0.423728814 L55.6497175,10.3107345 L50.3853107,10.3107345 C50.2389831,9.3220339 49.9846045,8.40282486 49.6176554,7.51242938 C49.0074859,6.03262712 48.1600282,4.72740113 47.0752825,3.61977401 C45.9903955,2.51285311 44.690678,1.63107345 43.1769774,0.987146893 C41.6627119,0.343079096 39.9905367,0.018220339 38.1600282,0.018220339 C36.3295198,0.018220339 34.6567797,0.344632768 33.1430791,0.999858757 C31.6288136,1.65550847 30.3179379,2.54152542 29.2108757,3.66016949 C28.1033898,4.77881356 27.3087571,6.07824859 26.6985876,7.55805085 C26.0885593,9.03841808 25.8474576,10.6144068 25.8474576,12.2865819 L25.8474576,12.3543785 C25.8474576,14.0269774 26.0885593,15.6032486 26.6985876,17.0831921 C27.3087571,18.5635593 28.1241525,19.8574859 29.2088983,20.964548 C30.2937853,22.0720339 31.5769774,22.9475989 33.0912429,23.5916667 C34.6049435,24.2357345 36.2696328,24.5577684 38.1001412,24.5577684 C39.9306497,24.5577684 41.5988701,24.2299435 43.1131356,23.5747175 C44.6268362,22.9194915 45.9357345,22.0323446 47.0433616,20.9137006 C48.1502825,19.7950565 49.0084746,18.4899718 49.6186441,17.0097458 C50.0168079,16.0440678 50.2814972,15.1129944 50.4199153,13.9830508 L55.6497175,13.9830508 L55.6497175,24.1525424 L64.430791,24.1525424 C66.2834746,24.1525424 67.9841808,23.8466102 69.5324859,23.2364407 C71.0800847,22.6264124 72.4138418,21.790113 73.5324859,20.7275424 C74.6509887,19.665678 75.5155367,18.4055085 76.1257062,16.9590395 C76.5230226,16.0173729 76.7887006,15.1129944 76.9272599,13.9830508 L82.2033898,13.9830508 L82.2033898,24.1525424 L100,24.1525424 L100,20.480226 L86.440678,20.480226 L86.440678,20.480226 Z M45.5666667,15.5929379 C45.1711864,16.6118644 44.6228814,17.4977401 43.9227401,18.2450565 C43.2220339,18.9923729 42.3803672,19.5881356 41.3973164,20.0298023 C40.4142655,20.4716102 39.3347458,20.6925141 38.1600282,20.6925141 C36.9847458,20.6925141 35.8998588,20.4725989 34.905791,20.030791 C33.9110169,19.5891243 33.0583333,18.9840395 32.3464689,18.2137006 C31.6346045,17.4436441 31.1473164,16.5497175 30.7524011,15.5306497 C30.3566384,14.5115819 30.2259887,13.4247175 30.2259887,12.2696328 L30.2259887,12.2018362 C30.2259887,11.0471751 30.3566384,9.96031073 30.7524011,8.94124294 C31.1473164,7.92217514 31.6622881,7.03347458 32.3629944,6.27485876 C33.0632768,5.51638418 33.8885593,4.91624294 34.8716102,4.47457627 C35.854661,4.03276836 36.9251412,3.81200565 38.100565,3.81200565 C39.2752825,3.81200565 40.3559322,4.03870056 41.350565,4.49152542 C42.344774,4.94435028 43.1960452,5.55042373 43.9077684,6.30889831 C44.619774,7.06737288 45.1721751,7.98432203 45.5677966,9.01454802 C45.7266949,9.42881356 45.8511299,9.88700565 45.9461864,10.3107345 L42.2032486,10.3107345 C41.9943503,9.88700565 41.6882768,9.40677966 41.3550847,9.05183616 C40.980226,8.65240113 40.5035311,8.31864407 39.9840395,8.08206215 C39.4564972,7.84194915 38.8535311,7.71440678 38.2378531,7.71440678 C37.6227401,7.71440678 37.0466102,7.83050847 36.5254237,8.06468927 C36.0079096,8.29717514 35.5573446,8.61737288 35.1862994,9.01920904 C34.8189266,9.41694915 34.4706215,9.88629944 34.2653955,10.4158192 C34.0603107,10.9437853 33.8983051,11.5125706 33.8983051,12.1073446 L33.8983051,12.1377119 C33.8983051,12.7326271 34.0603107,13.3021186 34.2655367,13.8305085 C34.4704802,14.359322 34.7925141,14.8320621 35.1652542,15.2353107 C35.5419492,15.6427966 36.0128531,15.9672316 36.5362994,16.1997175 C37.0612994,16.4330508 37.6463277,16.5512712 38.2610169,16.5512712 C38.8764124,16.5512712 39.4562147,16.4326271 39.9771186,16.1985876 C40.4927966,15.9668079 40.9440678,15.6432203 41.3146893,15.2480226 C41.6519774,14.8878531 42.0004237,14.5480226 42.215678,13.9830508 L46.0153955,13.9830508 C45.9165254,14.5480226 45.7672316,15.0757062 45.5666667,15.5929379 L45.5666667,15.5929379 Z M59.8870056,4.23728814 L64.430791,4.23728814 C65.6733051,4.23728814 66.8036723,4.43149718 67.8206215,4.83827684 C68.8375706,5.2450565 69.7018362,5.79971751 70.4137006,6.51158192 C71.1257062,7.22344633 71.679096,8.09689266 72.0748588,9.09110169 C72.2289548,9.47881356 72.3519774,9.88700565 72.4460452,10.3107345 L59.8870056,10.3107345 L59.8870056,4.23728814 L59.8870056,4.23728814 Z M72.0748588,15.5519774 C71.679096,16.5350282 71.1257062,17.385452 70.4137006,18.0973164 C69.7018362,18.8091808 68.8375706,19.3567797 67.8206215,19.7519774 C66.8036723,20.1477401 65.6733051,20.3389831 64.430791,20.3389831 L59.8870056,20.3389831 L59.8870056,13.9830508 L72.5235876,13.9830508 C72.4247175,14.5480226 72.2754237,15.0529661 72.0748588,15.5519774 L72.0748588,15.5519774 Z" id="Fill-2"></path>
                </g>
            </g>
        </g>
    </g>
</svg>